<svg id="Text" xmlns="http://www.w3.org/2000/svg" viewBox="0 0 93.28 89.53"><defs><style>.cls-1,.cls-2,.cls-4{fill:#e5ddd5;stroke-linecap:round;stroke-linejoin:round;stroke-width:1.6px;}.cls-1{stroke:#f9c1cf;}.cls-2{stroke:#fcdfeb;}.cls-3{fill:none;stroke:#facad5;stroke-miterlimit:3.86;stroke-width:3px;}.cls-4{stroke:#942c61;}.cls-5{fill:#942c61;}</style></defs><title>tech2017_2</title><line class="cls-1" x1="2.5" y1="88.73" x2="2.5" y2="81.14"/><line class="cls-2" x1="2.5" y1="81.29" x2="2.5" y2="73.7"/><path class="cls-3" d="M261.35,279.11h15.55" transform="translate(-183.61 -205.75)"/><path class="cls-3" d="M199.92,262.68a39,39,0,0,0,9.2,4.39c3.21,0.85,5.92.37,9.31,1.28,3.07,0.82,6.16,2.89,9.33,3.73,9.3,2.47,18.14,2.83,28.72,4.46" transform="translate(-183.61 -205.75)"/><path class="cls-3" d="M183.61,279.11H203" transform="translate(-183.61 -205.75)"/><line class="cls-3" x1="93.28" y1="87.91" y2="87.91"/><line class="cls-1" x1="26.76" y1="88.31" x2="26.76" y2="80.73"/><line class="cls-2" x1="20.86" y1="67.89" x2="23.47" y2="60.77"/><line class="cls-2" x1="31.62" y1="80.73" x2="31.62" y2="88.31"/><line class="cls-1" x1="27.83" y1="61.91" x2="25.88" y2="69.24"/><line class="cls-2" x1="36.47" y1="88.31" x2="36.47" y2="80.73"/><line class="cls-4" x1="30.57" y1="70.49" x2="32.52" y2="63.15"/><line class="cls-2" x1="41.32" y1="88.31" x2="41.32" y2="80.73"/><line class="cls-4" x1="35.26" y1="71.74" x2="37.21" y2="64.4"/><line class="cls-1" x1="46.17" y1="88.31" x2="46.17" y2="80.73"/><line class="cls-4" x1="39.94" y1="72.98" x2="41.9" y2="65.65"/><line class="cls-1" x1="51.02" y1="88.31" x2="51.02" y2="80.73"/><line class="cls-2" x1="45.58" y1="74.18" x2="46.63" y2="66.66"/><line class="cls-1" x1="55.88" y1="88.31" x2="55.88" y2="80.73"/><line class="cls-2" x1="50.38" y1="74.85" x2="51.43" y2="67.33"/><line class="cls-1" x1="60.73" y1="88.31" x2="60.73" y2="80.73"/><line class="cls-2" x1="55.19" y1="75.52" x2="56.24" y2="68"/><line class="cls-2" x1="65.58" y1="88.31" x2="65.58" y2="80.73"/><line class="cls-2" x1="70.43" y1="80.73" x2="70.43" y2="88.31"/><line class="cls-2" x1="7.36" y1="88.31" x2="7.36" y2="80.73"/><line class="cls-1" x1="7.36" y1="80.88" x2="7.36" y2="73.29"/><line class="cls-1" x1="12.21" y1="88.31" x2="12.21" y2="80.73"/><line class="cls-2" x1="12.21" y1="80.88" x2="12.21" y2="73.29"/><line class="cls-1" x1="17.06" y1="88.31" x2="17.06" y2="80.73"/><line class="cls-2" x1="17.06" y1="80.88" x2="17.06" y2="73.29"/><line class="cls-1" x1="21.91" y1="88.31" x2="21.91" y2="80.73"/><line class="cls-2" x1="15.96" y1="66.22" x2="19.29" y2="59.39"/><line class="cls-2" x1="65.42" y1="88.31" x2="65.42" y2="80.73"/><line class="cls-1" x1="59.84" y1="76.17" x2="60.89" y2="68.65"/><line class="cls-1" x1="70.27" y1="88.31" x2="70.27" y2="80.73"/><line class="cls-2" x1="64.64" y1="76.84" x2="65.69" y2="69.33"/><line class="cls-2" x1="75.13" y1="88.31" x2="75.13" y2="80.73"/><line class="cls-1" x1="69.45" y1="77.51" x2="70.5" y2="70"/><line class="cls-2" x1="79.98" y1="88.31" x2="79.98" y2="80.73"/><line class="cls-1" x1="79.98" y1="80.88" x2="79.98" y2="73.29"/><line class="cls-2" x1="84.83" y1="88.31" x2="84.83" y2="80.73"/><line class="cls-1" x1="84.83" y1="80.88" x2="84.83" y2="73.29"/><line class="cls-1" x1="89.68" y1="88.31" x2="89.68" y2="80.73"/><line class="cls-2" x1="89.68" y1="80.88" x2="89.68" y2="73.29"/><path class="cls-5" d="M196.71,247.28q-0.86.4-.82,2l0,1.42a1.43,1.43,0,0,1-.26,1.07l-0.11.9-0.7-.45-0.11.06a1.1,1.1,0,0,1-.94-0.28l-2-1.27a1.82,1.82,0,0,0-1.56-.45,0.86,0.86,0,0,0-.48.61,1.38,1.38,0,0,0,.13.91,3.12,3.12,0,0,0,1.59,1.49,2.07,2.07,0,0,0,1.89.13l0.27-.15,0.14-.08,0,0a0.73,0.73,0,0,1,.88.18l0.1,0.1a3.9,3.9,0,0,0,.44.33l0.11,0.08,0,0.36-0.76,5.9a3.62,3.62,0,0,0,1.12,1.77l0.64-7.36,6.07,4.2A4.46,4.46,0,0,0,202,257a2.26,2.26,0,0,0-.17-0.3l-5.4-3.48,0.09-1.33c0-.09,0-0.18,0-0.28a1,1,0,0,1,.4-1l0.19-.08,0.13-.06,0.32-.12a1.59,1.59,0,0,0,.85-1,2,2,0,0,0-.11-1.44,1.31,1.31,0,0,0-.71-0.68A1.13,1.13,0,0,0,196.71,247.28ZM193.19,253a1.77,1.77,0,0,1-1.53-.16,2.56,2.56,0,0,1-1.27-1.19,1.13,1.13,0,0,1-.14-0.6,0.41,0.41,0,0,1,.26-0.34,1.13,1.13,0,0,1,.93.28l1.41,0.92a1.71,1.71,0,0,1,.58.54A0.38,0.38,0,0,1,193.19,253Zm4.77-4.9a1.46,1.46,0,0,1,0,1.11,1.28,1.28,0,0,1-.66.82c-0.42.2-.71,0.15-0.85-0.15a1.67,1.67,0,0,1-.11-0.69v-0.34a1.19,1.19,0,0,1,.51-1.15,0.75,0.75,0,0,1,.6,0A0.81,0.81,0,0,1,198,248.12Z" transform="translate(-183.61 -205.75)"/><path class="cls-5" d="M268.18,266.67q-0.66-.68-2.16-0.12l-1.33.5a1.44,1.44,0,0,1-1.1.1l-0.88.19,0.2-.8-0.1-.08a1.09,1.09,0,0,1,0-1l0.56-2.27a1.81,1.81,0,0,0-.08-1.62,0.84,0.84,0,0,0-.73-0.26,1.37,1.37,0,0,0-.82.42,3.12,3.12,0,0,0-.89,2,2.07,2.07,0,0,0,.49,1.82l0.23,0.21,0.12,0.1,0,0a0.72,0.72,0,0,1,.12.89l-0.06.13a3.79,3.79,0,0,0-.17.52l0,0.13-0.36.08-5.82,1.2a4.15,4.15,0,0,0-.47.39,3.87,3.87,0,0,0-.84,1.25l7.17-1.79-2,7.11a4.56,4.56,0,0,0,1.46-.94,2.65,2.65,0,0,0,.23-0.26l1.54-6.24,1.29-.35L264,268a1,1,0,0,1,1.05.06l0.14,0.15,0.1,0.11,0.22,0.26a1.58,1.58,0,0,0,1.25.46,2,2,0,0,0,1.33-.57,1.3,1.3,0,0,0,.41-0.89A1.12,1.12,0,0,0,268.18,266.67Zm-6.57-1.47a1.75,1.75,0,0,1-.35-1.49,2.54,2.54,0,0,1,.71-1.59,1.12,1.12,0,0,1,.52-0.33,0.41,0.41,0,0,1,.41.13,1.13,1.13,0,0,1,0,1l-0.41,1.64a1.72,1.72,0,0,1-.32.72A0.37,0.37,0,0,1,261.61,265.2Zm6.18,2.91a1.47,1.47,0,0,1-1,.4,1.28,1.28,0,0,1-1-.36q-0.49-.5-0.13-0.85a1.68,1.68,0,0,1,.62-0.33l0.32-.11a1.19,1.19,0,0,1,1.25.11,0.74,0.74,0,0,1,.21.56A0.8,0.8,0,0,1,267.79,268.12Z" transform="translate(-183.61 -205.75)"/><path class="cls-3" d="M214.43,232.91a39.07,39.07,0,0,0,9.86-2.57l17.48-8.19c8.71-4.11,15.69-9.53,24.83-15.11" transform="translate(-183.61 -205.75)"/><line class="cls-2" x1="41.37" y1="32.61" x2="38.77" y2="25.47"/><line class="cls-1" x1="42.84" y1="23.54" x2="46.08" y2="30.4"/><line class="cls-4" x1="50.47" y1="28.33" x2="47.23" y2="21.47"/><line class="cls-4" x1="54.85" y1="26.26" x2="51.62" y2="19.4"/><line class="cls-4" x1="59.24" y1="24.19" x2="56" y2="17.33"/><line class="cls-2" x1="64.32" y1="21.47" x2="60.27" y2="15.05"/><line class="cls-2" x1="68.42" y1="18.89" x2="64.38" y2="12.46"/><line class="cls-2" x1="72.53" y1="16.3" x2="68.49" y2="9.88"/><line class="cls-2" x1="36.54" y1="34.48" x2="34.68" y2="27.12"/><line class="cls-1" x1="76.5" y1="13.8" x2="72.46" y2="7.38"/><line class="cls-2" x1="80.61" y1="11.22" x2="76.57" y2="4.79"/><line class="cls-1" x1="84.71" y1="8.63" x2="80.67" y2="2.21"/><polygon class="cls-5" points="37.56 52.2 37.12 58.55 42.98 56.09 37.56 52.2"/><path class="cls-5" d="M225.18,244.25c4,6.92-.29,16.37-0.29,16.37l-2.63-1.24A24.94,24.94,0,0,0,225.18,244.25Z" transform="translate(-183.61 -205.75)"/></svg>