<svg id="Background" xmlns="http://www.w3.org/2000/svg" viewBox="0 0 134.95 97.2"><defs><style>.cls-1{fill:#fff;}.cls-2,.cls-3,.cls-5{fill:#e5ddd5;stroke-linecap:round;stroke-linejoin:round;stroke-width:1.6px;}.cls-2{stroke:#f9c1cf;}.cls-3{stroke:#fcdfeb;}.cls-4{fill:none;stroke:#facad5;stroke-miterlimit:3.86;stroke-width:3px;}.cls-5{stroke:#942c61;}.cls-6{fill:#942c61;}</style></defs><title>tech2017_2</title><rect id="top" class="cls-1" y="-49.77" width="510.24" height="518.6"/><line class="cls-2" x1="14.93" y1="90.49" x2="14.93" y2="82.9"/><line class="cls-3" x1="14.93" y1="83.06" x2="14.93" y2="75.47"/><path class="cls-4" d="M90.16,75.13H105.7"/><path class="cls-4" d="M28.73,58.69a39,39,0,0,0,9.2,4.39c3.21,0.85,5.92.37,9.31,1.28,3.07,0.82,6.16,2.89,9.33,3.73,9.3,2.47,18.14,2.83,28.72,4.46"/><path class="cls-4" d="M12.42,75.13H31.83"/><line class="cls-4" x1="105.71" y1="89.68" x2="12.42" y2="89.68"/><line class="cls-2" x1="39.19" y1="90.08" x2="39.19" y2="82.49"/><line class="cls-3" x1="33.28" y1="69.66" x2="35.89" y2="62.53"/><line class="cls-3" x1="44.04" y1="82.49" x2="44.04" y2="90.08"/><line class="cls-2" x1="40.25" y1="63.67" x2="38.3" y2="71.01"/><line class="cls-3" x1="48.89" y1="90.08" x2="48.89" y2="82.49"/><line class="cls-5" x1="42.99" y1="72.26" x2="44.94" y2="64.92"/><line class="cls-3" x1="53.74" y1="90.08" x2="53.74" y2="82.49"/><line class="cls-5" x1="47.68" y1="73.5" x2="49.63" y2="66.17"/><line class="cls-2" x1="58.6" y1="90.08" x2="58.6" y2="82.49"/><line class="cls-5" x1="52.37" y1="74.75" x2="54.32" y2="67.42"/><line class="cls-2" x1="63.45" y1="90.08" x2="63.45" y2="82.49"/><line class="cls-3" x1="58" y1="75.94" x2="59.05" y2="68.43"/><line class="cls-2" x1="68.3" y1="90.08" x2="68.3" y2="82.49"/><line class="cls-3" x1="62.81" y1="76.62" x2="63.86" y2="69.1"/><line class="cls-2" x1="73.15" y1="90.08" x2="73.15" y2="82.49"/><line class="cls-3" x1="67.61" y1="77.29" x2="68.66" y2="69.77"/><line class="cls-3" x1="78" y1="90.08" x2="78" y2="82.49"/><line class="cls-3" x1="82.86" y1="82.49" x2="82.86" y2="90.08"/><line class="cls-3" x1="19.78" y1="90.08" x2="19.78" y2="82.49"/><line class="cls-2" x1="19.78" y1="82.65" x2="19.78" y2="75.06"/><line class="cls-2" x1="24.63" y1="90.08" x2="24.63" y2="82.49"/><line class="cls-3" x1="24.63" y1="82.65" x2="24.63" y2="75.06"/><line class="cls-2" x1="29.48" y1="90.08" x2="29.48" y2="82.49"/><line class="cls-3" x1="29.48" y1="82.65" x2="29.48" y2="75.06"/><line class="cls-2" x1="34.34" y1="90.08" x2="34.34" y2="82.49"/><line class="cls-3" x1="28.39" y1="67.98" x2="31.71" y2="61.16"/><line class="cls-3" x1="77.85" y1="90.08" x2="77.85" y2="82.49"/><line class="cls-2" x1="72.26" y1="77.94" x2="73.31" y2="70.42"/><line class="cls-2" x1="82.7" y1="90.08" x2="82.7" y2="82.49"/><line class="cls-3" x1="77.07" y1="78.61" x2="78.12" y2="71.09"/><line class="cls-3" x1="87.55" y1="90.08" x2="87.55" y2="82.49"/><line class="cls-2" x1="81.87" y1="79.28" x2="82.92" y2="71.76"/><line class="cls-3" x1="92.4" y1="90.08" x2="92.4" y2="82.49"/><line class="cls-2" x1="92.4" y1="82.65" x2="92.4" y2="75.06"/><line class="cls-3" x1="97.25" y1="90.08" x2="97.25" y2="82.49"/><line class="cls-2" x1="97.25" y1="82.65" x2="97.25" y2="75.06"/><line class="cls-2" x1="102.11" y1="90.08" x2="102.11" y2="82.49"/><line class="cls-3" x1="102.11" y1="82.65" x2="102.11" y2="75.06"/><path class="cls-6" d="M25.52,43.3q-0.86.4-.82,2l0,1.42a1.43,1.43,0,0,1-.26,1.07l-0.11.9-0.7-.45-0.11.06A1.1,1.1,0,0,1,22.63,48l-2-1.27a1.82,1.82,0,0,0-1.56-.45,0.86,0.86,0,0,0-.48.61,1.38,1.38,0,0,0,.13.91,3.12,3.12,0,0,0,1.59,1.49,2.07,2.07,0,0,0,1.89.13l0.27-.15,0.14-.08,0,0a0.73,0.73,0,0,1,.88.18l0.1,0.1a3.9,3.9,0,0,0,.44.33l0.11,0.08,0,0.36-0.76,5.9a3.62,3.62,0,0,0,1.12,1.77l0.64-7.36,6.07,4.2a4.46,4.46,0,0,0-.42-1.69,2.26,2.26,0,0,0-.17-0.3l-5.4-3.48,0.09-1.33c0-.09,0-0.18,0-0.28a1,1,0,0,1,.4-1L26,46.61l0.13-.06,0.32-.12a1.59,1.59,0,0,0,.85-1A2,2,0,0,0,27.17,44a1.31,1.31,0,0,0-.71-0.68A1.13,1.13,0,0,0,25.52,43.3ZM22,49a1.77,1.77,0,0,1-1.53-.16,2.56,2.56,0,0,1-1.27-1.19,1.13,1.13,0,0,1-.14-0.6,0.41,0.41,0,0,1,.26-0.34,1.13,1.13,0,0,1,.93.28l1.41,0.92a1.71,1.71,0,0,1,.58.54A0.38,0.38,0,0,1,22,49Zm4.77-4.9a1.46,1.46,0,0,1,0,1.11,1.28,1.28,0,0,1-.66.82c-0.42.2-.71,0.15-0.85-0.15a1.67,1.67,0,0,1-.11-0.69V44.88a1.19,1.19,0,0,1,.51-1.15,0.75,0.75,0,0,1,.6,0A0.81,0.81,0,0,1,26.76,44.14Z"/><path class="cls-6" d="M97,62.69q-0.66-.68-2.16-0.12l-1.33.5a1.44,1.44,0,0,1-1.1.1l-0.88.19,0.2-.8-0.1-.08a1.09,1.09,0,0,1,0-1l0.56-2.27a1.81,1.81,0,0,0-.08-1.62,0.84,0.84,0,0,0-.73-0.26,1.37,1.37,0,0,0-.82.42,3.12,3.12,0,0,0-.89,2,2.07,2.07,0,0,0,.49,1.82l0.23,0.21,0.12,0.1,0,0a0.72,0.72,0,0,1,.12.89L90.54,63a3.79,3.79,0,0,0-.17.52l0,0.13L90,63.69l-5.82,1.2a4.15,4.15,0,0,0-.47.39,3.87,3.87,0,0,0-.84,1.25L90,64.73l-2,7.11a4.56,4.56,0,0,0,1.46-.94,2.65,2.65,0,0,0,.23-0.26l1.54-6.24L92.55,64,92.82,64a1,1,0,0,1,1.05.06L94,64.19l0.1,0.11,0.22,0.26a1.58,1.58,0,0,0,1.25.46,2,2,0,0,0,1.33-.57,1.3,1.3,0,0,0,.41-0.89A1.12,1.12,0,0,0,97,62.69Zm-6.57-1.47a1.75,1.75,0,0,1-.35-1.49,2.54,2.54,0,0,1,.71-1.59,1.12,1.12,0,0,1,.52-0.33,0.41,0.41,0,0,1,.41.13,1.13,1.13,0,0,1,0,1l-0.41,1.64a1.72,1.72,0,0,1-.32.72A0.37,0.37,0,0,1,90.42,61.22Zm6.18,2.91a1.47,1.47,0,0,1-1,.4,1.28,1.28,0,0,1-1-.36q-0.49-.5-0.13-0.85A1.68,1.68,0,0,1,95.06,63l0.32-.11a1.19,1.19,0,0,1,1.25.11,0.74,0.74,0,0,1,.21.56A0.8,0.8,0,0,1,96.6,64.13Z"/><path class="cls-4" d="M43.24,28.92a39.07,39.07,0,0,0,9.86-2.57l17.48-8.19C79.29,14,86.27,8.62,95.41,3"/><line class="cls-3" x1="53.79" y1="34.37" x2="51.2" y2="27.24"/><line class="cls-2" x1="55.26" y1="25.3" x2="58.5" y2="32.17"/><line class="cls-5" x1="62.89" y1="30.1" x2="59.65" y2="23.23"/><line class="cls-5" x1="67.28" y1="28.03" x2="64.04" y2="21.16"/><line class="cls-5" x1="71.67" y1="25.96" x2="68.43" y2="19.09"/><line class="cls-3" x1="76.74" y1="23.24" x2="72.7" y2="16.81"/><line class="cls-3" x1="80.85" y1="20.65" x2="76.8" y2="14.23"/><line class="cls-3" x1="84.95" y1="18.07" x2="80.91" y2="11.64"/><line class="cls-3" x1="48.97" y1="36.25" x2="47.11" y2="28.89"/><line class="cls-2" x1="88.93" y1="15.57" x2="84.88" y2="9.14"/><line class="cls-3" x1="93.03" y1="12.98" x2="88.99" y2="6.56"/><line class="cls-2" x1="97.14" y1="10.4" x2="93.1" y2="3.97"/><polygon class="cls-6" points="49.99 53.97 49.54 60.31 55.41 57.85 49.99 53.97"/><path class="cls-6" d="M54,40.26c4,6.92-.29,16.37-0.29,16.37l-2.63-1.24A24.94,24.94,0,0,0,54,40.26Z"/></svg>