<svg id="Background" xmlns="http://www.w3.org/2000/svg" xmlns:xlink="http://www.w3.org/1999/xlink" viewBox="0 0 134.95 97.2"><defs><style>.cls-1{fill:none;}.cls-2{fill:#939598;opacity:0.1;}.cls-3{fill:#fff;}.cls-10,.cls-11,.cls-12,.cls-13,.cls-21,.cls-22,.cls-23,.cls-24,.cls-25,.cls-26,.cls-27,.cls-28,.cls-29,.cls-38,.cls-39,.cls-4,.cls-40,.cls-41,.cls-42,.cls-43,.cls-44,.cls-45,.cls-46,.cls-47,.cls-48,.cls-49,.cls-5,.cls-50,.cls-51,.cls-52,.cls-53,.cls-54,.cls-55,.cls-56,.cls-57,.cls-58,.cls-59,.cls-6,.cls-60,.cls-61,.cls-62,.cls-63,.cls-64,.cls-65,.cls-66,.cls-67,.cls-68,.cls-69,.cls-7,.cls-70,.cls-71,.cls-72,.cls-73,.cls-74,.cls-75,.cls-76,.cls-77,.cls-8{stroke:#fff;}.cls-10,.cls-11,.cls-12,.cls-13,.cls-21,.cls-39,.cls-4,.cls-40,.cls-41,.cls-42,.cls-43,.cls-44,.cls-45,.cls-46,.cls-47,.cls-48,.cls-49,.cls-5,.cls-50,.cls-51,.cls-52,.cls-53,.cls-54,.cls-55,.cls-56,.cls-57,.cls-58,.cls-59,.cls-6,.cls-60,.cls-61,.cls-62,.cls-63,.cls-64,.cls-65,.cls-66,.cls-67,.cls-68,.cls-69,.cls-7,.cls-70,.cls-71,.cls-72,.cls-73,.cls-74,.cls-75,.cls-76,.cls-77,.cls-8{stroke-miterlimit:10;}.cls-11,.cls-12,.cls-13,.cls-21,.cls-22,.cls-23,.cls-24,.cls-25,.cls-26,.cls-27,.cls-28,.cls-29,.cls-30,.cls-31,.cls-32,.cls-33,.cls-34,.cls-35,.cls-36,.cls-37,.cls-39,.cls-4,.cls-40,.cls-41,.cls-42,.cls-43,.cls-44,.cls-45,.cls-46,.cls-47,.cls-48,.cls-49,.cls-5,.cls-50,.cls-51,.cls-52,.cls-53,.cls-54,.cls-55,.cls-56,.cls-57,.cls-58,.cls-59,.cls-6,.cls-60,.cls-61,.cls-62,.cls-63,.cls-64,.cls-65,.cls-66,.cls-67,.cls-68,.cls-69,.cls-7,.cls-70,.cls-71,.cls-72,.cls-73,.cls-74,.cls-75,.cls-76,.cls-77,.cls-8{stroke-width:0.3px;}.cls-4{fill:url(#linear-gradient);}.cls-5{fill:url(#linear-gradient-2);}.cls-6{fill:url(#linear-gradient-3);}.cls-7{fill:url(#linear-gradient-4);}.cls-8{fill:url(#linear-gradient-5);}.cls-10,.cls-9{opacity:0.5;}.cls-10{fill:#bcbec0;stroke-width:0.5px;}.cls-11{fill:url(#linear-gradient-6);}.cls-12{fill:url(#linear-gradient-7);}.cls-13{fill:url(#linear-gradient-8);}.cls-14,.cls-38{fill:#e6a1b7;}.cls-15{fill:#e9abbe;}.cls-16{fill:#ecb4c6;}.cls-17{fill:#efbece;}.cls-18{fill:#f2c8d6;}.cls-19{fill:#f6d3e0;}.cls-20{fill:#fcdfeb;}.cls-21,.cls-30,.cls-31,.cls-32,.cls-33,.cls-34,.cls-35,.cls-36,.cls-37{fill:url(#New_Pattern);}.cls-22,.cls-23,.cls-24,.cls-25,.cls-26,.cls-27,.cls-28,.cls-29,.cls-30,.cls-31,.cls-32,.cls-33,.cls-34,.cls-35,.cls-36,.cls-37,.cls-38{stroke-linecap:round;stroke-linejoin:round;}.cls-22{fill:url(#linear-gradient-9);}.cls-23{fill:url(#linear-gradient-10);}.cls-24{fill:url(#linear-gradient-11);}.cls-25{fill:url(#linear-gradient-12);}.cls-26{fill:url(#linear-gradient-13);}.cls-27{fill:url(#linear-gradient-14);}.cls-28{fill:url(#linear-gradient-15);}.cls-29{fill:url(#linear-gradient-16);}.cls-30{stroke:url(#linear-gradient-17);}.cls-31{stroke:url(#linear-gradient-18);}.cls-32{stroke:url(#linear-gradient-19);}.cls-33{stroke:url(#linear-gradient-20);}.cls-34{stroke:url(#linear-gradient-21);}.cls-35{stroke:url(#linear-gradient-22);}.cls-36{stroke:url(#linear-gradient-23);}.cls-37{stroke:url(#linear-gradient-24);}.cls-38{stroke-width:0.1px;}.cls-39{fill:url(#linear-gradient-25);}.cls-40{fill:url(#linear-gradient-26);}.cls-41{fill:url(#New_Pattern-19);}.cls-42,.cls-43,.cls-44,.cls-45,.cls-46,.cls-47,.cls-48,.cls-49,.cls-50,.cls-51,.cls-52,.cls-53,.cls-54,.cls-55,.cls-56,.cls-57,.cls-58,.cls-59,.cls-60,.cls-61,.cls-62,.cls-63,.cls-64,.cls-65,.cls-66,.cls-67,.cls-68,.cls-69,.cls-70,.cls-71,.cls-72,.cls-73,.cls-74,.cls-75,.cls-76,.cls-77{opacity:0.4;}.cls-42{fill:url(#linear-gradient-27);}.cls-43{fill:url(#linear-gradient-28);}.cls-44{fill:url(#linear-gradient-29);}.cls-45{fill:url(#linear-gradient-30);}.cls-46{fill:url(#linear-gradient-31);}.cls-47{fill:url(#linear-gradient-32);}.cls-48{fill:url(#linear-gradient-33);}.cls-49{fill:url(#linear-gradient-34);}.cls-50{fill:url(#linear-gradient-35);}.cls-51{fill:url(#linear-gradient-36);}.cls-52{fill:url(#linear-gradient-37);}.cls-53{fill:url(#linear-gradient-38);}.cls-54{fill:url(#linear-gradient-39);}.cls-55{fill:url(#linear-gradient-40);}.cls-56{fill:url(#linear-gradient-41);}.cls-57{fill:url(#linear-gradient-42);}.cls-58{fill:url(#linear-gradient-43);}.cls-59{fill:url(#linear-gradient-44);}.cls-60{fill:url(#linear-gradient-45);}.cls-61{fill:url(#linear-gradient-46);}.cls-62{fill:url(#linear-gradient-47);}.cls-63{fill:url(#linear-gradient-48);}.cls-64{fill:url(#linear-gradient-49);}.cls-65{fill:url(#linear-gradient-50);}.cls-66{fill:url(#linear-gradient-51);}.cls-67{fill:url(#linear-gradient-52);}.cls-68{fill:url(#linear-gradient-53);}.cls-69{fill:url(#linear-gradient-54);}.cls-70{fill:url(#linear-gradient-55);}.cls-71{fill:url(#linear-gradient-56);}.cls-72{fill:url(#linear-gradient-57);}.cls-73{fill:url(#linear-gradient-58);}.cls-74{fill:url(#linear-gradient-59);}.cls-75{fill:url(#linear-gradient-60);}.cls-76{fill:url(#linear-gradient-61);}.cls-77{fill:url(#linear-gradient-62);}</style><linearGradient id="linear-gradient" x1="116.05" y1="-24.34" x2="116.05" y2="-33.04" gradientTransform="translate(-47.96 86.12) rotate(-16.63)" gradientUnits="userSpaceOnUse"><stop offset="0" stop-color="#d04e84"/><stop offset="1" stop-color="#fcdfeb"/></linearGradient><linearGradient id="linear-gradient-2" x1="528.85" y1="98.93" x2="528.85" y2="90.23" gradientTransform="matrix(-0.96, -0.29, -0.29, 0.96, 608.76, 86.12)" xlink:href="#linear-gradient"/><linearGradient id="linear-gradient-3" x1="66.92" y1="76.35" x2="66.92" y2="32.52" gradientTransform="matrix(1, 0, 0, 1, 0, 0)" xlink:href="#linear-gradient"/><linearGradient id="linear-gradient-4" x1="449.01" y1="365.6" x2="449.01" y2="356.91" gradientTransform="translate(522.51 417.61) rotate(179.83)" xlink:href="#linear-gradient"/><linearGradient id="linear-gradient-5" x1="221.48" y1="364.36" x2="221.48" y2="355.66" gradientTransform="matrix(1, 0, 0, -1, -162.02, 417.61)" xlink:href="#linear-gradient"/><linearGradient id="linear-gradient-6" x1="65.13" y1="28.03" x2="65.13" y2="24.99" gradientTransform="matrix(1, 0, 0, 1, 0, 0)" xlink:href="#linear-gradient"/><linearGradient id="linear-gradient-7" x1="31.93" y1="44.61" x2="31.93" y2="23.59" gradientTransform="matrix(1, 0, 0, 1, 0, 0)" xlink:href="#linear-gradient"/><linearGradient id="linear-gradient-8" x1="58.24" y1="39.33" x2="58.24" y2="26.64" gradientTransform="matrix(1, 0, 0, 1, 0, 0)" xlink:href="#linear-gradient"/><pattern id="New_Pattern" data-name="New Pattern" width="10.25" height="9.33" patternTransform="translate(-24.59 -16.65) scale(1.31)" patternUnits="userSpaceOnUse" viewBox="0 0 10.25 9.33"><rect class="cls-1" width="10.25" height="9.33"/><circle class="cls-2" cx="2.02" cy="2.21" r="1.07"/><circle class="cls-2" cx="3.78" cy="2.46" r="1.07"/><circle class="cls-2" cx="4.15" cy="7.4" r="1.07"/><circle class="cls-2" cx="6.47" cy="1.45" r="0.75"/><circle class="cls-2" cx="1.71" cy="4.83" r="0.75"/><circle class="cls-2" cx="7.22" cy="5.58" r="0.75"/><circle class="cls-2" cx="8.6" cy="3.53" r="1.11"/><circle class="cls-2" cx="4.55" cy="4.02" r="1.56"/></pattern><linearGradient id="linear-gradient-9" x1="67.55" y1="77.23" x2="67.55" y2="73.28" gradientUnits="userSpaceOnUse"><stop offset="0" stop-color="#d04e84"/><stop offset="1" stop-color="#e6a1b7"/></linearGradient><linearGradient id="linear-gradient-10" x1="66.05" y1="50.33" x2="66.05" y2="44.78" xlink:href="#linear-gradient-9"/><linearGradient id="linear-gradient-11" x1="66.01" y1="45.68" x2="66.01" y2="38.81" xlink:href="#linear-gradient-9"/><linearGradient id="linear-gradient-12" x1="67.23" y1="73.59" x2="67.23" y2="68.48" xlink:href="#linear-gradient-9"/><linearGradient id="linear-gradient-13" x1="66.24" y1="54.99" x2="66.24" y2="49.56" xlink:href="#linear-gradient-9"/><linearGradient id="linear-gradient-14" x1="66.4" y1="59.64" x2="66.4" y2="54.33" xlink:href="#linear-gradient-9"/><linearGradient id="linear-gradient-15" x1="66.98" y1="68.94" x2="66.98" y2="63.8" xlink:href="#linear-gradient-9"/><linearGradient id="linear-gradient-16" x1="66.78" y1="64.29" x2="66.78" y2="59.09" xlink:href="#linear-gradient-9"/><linearGradient id="linear-gradient-17" x1="67.55" y1="77.38" x2="67.55" y2="73.13" gradientUnits="userSpaceOnUse"><stop offset="0" stop-color="#a7a9ac"/><stop offset="1" stop-color="#e6e7e8"/></linearGradient><linearGradient id="linear-gradient-18" x1="66.05" y1="50.48" x2="66.05" y2="44.63" xlink:href="#linear-gradient-17"/><linearGradient id="linear-gradient-19" x1="66.01" y1="45.83" x2="66.01" y2="38.66" xlink:href="#linear-gradient-17"/><linearGradient id="linear-gradient-20" x1="67.23" y1="73.74" x2="67.23" y2="68.33" xlink:href="#linear-gradient-17"/><linearGradient id="linear-gradient-21" x1="66.24" y1="55.14" x2="66.24" y2="49.41" xlink:href="#linear-gradient-17"/><linearGradient id="linear-gradient-22" x1="66.4" y1="59.79" x2="66.4" y2="54.18" xlink:href="#linear-gradient-17"/><linearGradient id="linear-gradient-23" x1="66.98" y1="69.09" x2="66.98" y2="63.65" xlink:href="#linear-gradient-17"/><linearGradient id="linear-gradient-24" x1="66.78" y1="64.44" x2="66.78" y2="58.94" xlink:href="#linear-gradient-17"/><linearGradient id="linear-gradient-25" x1="426.93" y1="43.11" x2="426.93" y2="23.2" gradientTransform="matrix(-1, 0, 0, 1, 527.44, 0)" xlink:href="#linear-gradient"/><linearGradient id="linear-gradient-26" x1="454.85" y1="39.33" x2="454.85" y2="26.64" gradientTransform="matrix(-1, 0, 0, 1, 527.44, 0)" xlink:href="#linear-gradient"/><pattern id="New_Pattern-19" data-name="New Pattern" width="10.25" height="9.33" patternTransform="matrix(-1.31, 0, 0, 1.31, -37.16, -16.65)" patternUnits="userSpaceOnUse" viewBox="0 0 10.25 9.33"><rect class="cls-1" width="10.25" height="9.33"/><circle class="cls-2" cx="2.02" cy="2.21" r="1.07"/><circle class="cls-2" cx="3.78" cy="2.46" r="1.07"/><circle class="cls-2" cx="4.15" cy="7.4" r="1.07"/><circle class="cls-2" cx="6.47" cy="1.45" r="0.75"/><circle class="cls-2" cx="1.71" cy="4.83" r="0.75"/><circle class="cls-2" cx="7.22" cy="5.58" r="0.75"/><circle class="cls-2" cx="8.6" cy="3.53" r="1.11"/><circle class="cls-2" cx="4.55" cy="4.02" r="1.56"/></pattern><linearGradient id="linear-gradient-27" x1="10.84" y1="28.1" x2="12.28" y2="31.01" xlink:href="#linear-gradient-17"/><linearGradient id="linear-gradient-28" x1="73.84" y1="441.5" x2="75.28" y2="444.42" gradientTransform="translate(92.72 470.26) rotate(180)" xlink:href="#linear-gradient-17"/><linearGradient id="linear-gradient-29" x1="-31.47" y1="272.12" x2="-30.03" y2="275.03" gradientTransform="translate(293.29 64) rotate(90)" xlink:href="#linear-gradient-17"/><linearGradient id="linear-gradient-30" x1="-29.6" y1="279.04" x2="-28.16" y2="281.95" gradientTransform="translate(295.98 67.91) rotate(90)" xlink:href="#linear-gradient-17"/><linearGradient id="linear-gradient-31" x1="-35.07" y1="278.63" x2="-33.63" y2="281.54" gradientTransform="translate(292.47 68.85) rotate(90)" xlink:href="#linear-gradient-17"/><linearGradient id="linear-gradient-32" x1="-24.47" y1="272.62" x2="-23.03" y2="275.53" gradientTransform="translate(297.77 62.78) rotate(90)" xlink:href="#linear-gradient-17"/><linearGradient id="linear-gradient-33" x1="73.58" y1="433.13" x2="75.02" y2="436.05" gradientTransform="translate(100.83 461.97) rotate(180)" xlink:href="#linear-gradient-17"/><linearGradient id="linear-gradient-34" x1="-26.18" y1="265.62" x2="-24.74" y2="268.54" gradientTransform="translate(295.17 58.79) rotate(90)" xlink:href="#linear-gradient-17"/><linearGradient id="linear-gradient-35" x1="-19.18" y1="266.12" x2="-17.74" y2="269.04" gradientTransform="translate(299.65 57.58) rotate(90)" xlink:href="#linear-gradient-17"/><linearGradient id="linear-gradient-36" x1="74.1" y1="425.36" x2="75.54" y2="428.28" gradientTransform="translate(109.1 455.05) rotate(180)" xlink:href="#linear-gradient-17"/><linearGradient id="linear-gradient-37" x1="-20.69" y1="260.1" x2="-19.25" y2="263.02" gradientTransform="translate(297.4 54.15) rotate(90)" xlink:href="#linear-gradient-17"/><linearGradient id="linear-gradient-38" x1="-14.48" y1="260.1" x2="-13.04" y2="263.02" gradientTransform="translate(301.27 52.79) rotate(90)" xlink:href="#linear-gradient-17"/><linearGradient id="linear-gradient-39" x1="74.28" y1="418.28" x2="75.72" y2="421.2" gradientTransform="translate(116.33 448.44) rotate(180)" xlink:href="#linear-gradient-17"/><linearGradient id="linear-gradient-40" x1="-16.62" y1="254.31" x2="-15.18" y2="257.23" gradientTransform="translate(298.67 49.65) rotate(90)" xlink:href="#linear-gradient-17"/><linearGradient id="linear-gradient-41" x1="-11.33" y1="254.87" x2="-9.89" y2="257.79" gradientTransform="translate(302.09 48.84) rotate(90)" xlink:href="#linear-gradient-17"/><linearGradient id="linear-gradient-42" x1="75.14" y1="411.12" x2="76.58" y2="414.04" gradientTransform="translate(124.32 442.44) rotate(180)" xlink:href="#linear-gradient-17"/><linearGradient id="linear-gradient-43" x1="-11.27" y1="249.48" x2="-9.83" y2="252.4" gradientTransform="translate(300.95 45.46) rotate(90)" xlink:href="#linear-gradient-17"/><linearGradient id="linear-gradient-44" x1="-12.49" y1="244.65" x2="-11.05" y2="247.57" gradientTransform="translate(299.13 42.72) rotate(90)" xlink:href="#linear-gradient-17"/><linearGradient id="linear-gradient-45" x1="418.64" y1="27.87" x2="420.08" y2="30.79" gradientTransform="matrix(-1, 0, 0, 1, 542.44, 0)" xlink:href="#linear-gradient-17"/><linearGradient id="linear-gradient-46" x1="56.7" y1="34.05" x2="58.14" y2="36.97" gradientTransform="matrix(0, 1, 1, 0, 80.96, -30.35)" xlink:href="#linear-gradient-17"/><linearGradient id="linear-gradient-47" x1="222.82" y1="-46.7" x2="224.26" y2="-43.78" gradientTransform="matrix(-1, 0, 0, 1, 338.45, 78.26)" xlink:href="#linear-gradient-17"/><linearGradient id="linear-gradient-48" x1="224.69" y1="-39.78" x2="226.13" y2="-36.86" gradientTransform="matrix(-1, 0, 0, 1, 344.56, 77.13)" xlink:href="#linear-gradient-17"/><linearGradient id="linear-gradient-49" x1="219.22" y1="-40.19" x2="220.66" y2="-37.27" gradientTransform="matrix(-1, 0, 0, 1, 342.19, 73.01)" xlink:href="#linear-gradient-17"/><linearGradient id="linear-gradient-50" x1="229.82" y1="-46.2" x2="231.26" y2="-43.28" gradientTransform="matrix(-1, 0, 0, 1, 341.47, 83.55)" xlink:href="#linear-gradient-17"/><linearGradient id="linear-gradient-51" x1="56.44" y1="25.68" x2="57.88" y2="28.6" gradientTransform="matrix(0, 1, 1, 0, 80.96, -30)" xlink:href="#linear-gradient-17"/><linearGradient id="linear-gradient-52" x1="228.11" y1="-53.19" x2="229.55" y2="-50.28" gradientTransform="matrix(-1, 0, 0, 1, 335.37, 84.84)" xlink:href="#linear-gradient-17"/><linearGradient id="linear-gradient-53" x1="235.11" y1="-52.69" x2="236.55" y2="-49.77" gradientTransform="matrix(-1, 0, 0, 1, 338.39, 90.12)" xlink:href="#linear-gradient-17"/><linearGradient id="linear-gradient-54" x1="56.96" y1="17.91" x2="58.4" y2="20.83" gradientTransform="matrix(0, 1, 1, 0, 80.99, -29.68)" xlink:href="#linear-gradient-17"/><linearGradient id="linear-gradient-55" x1="233.6" y1="-58.71" x2="235.04" y2="-55.79" gradientTransform="matrix(-1, 0, 0, 1, 333.12, 91.21)" xlink:href="#linear-gradient-17"/><linearGradient id="linear-gradient-56" x1="239.81" y1="-58.71" x2="241.25" y2="-55.79" gradientTransform="matrix(-1, 0, 0, 1, 335.45, 96.06)" xlink:href="#linear-gradient-17"/><linearGradient id="linear-gradient-57" x1="57.14" y1="10.83" x2="58.58" y2="13.75" gradientTransform="matrix(0, 1, 1, 0, 81, -29.38)" xlink:href="#linear-gradient-17"/><linearGradient id="linear-gradient-58" x1="237.67" y1="-64.5" x2="239.11" y2="-61.58" gradientTransform="matrix(-1, 0, 0, 1, 330.13, 96.57)" xlink:href="#linear-gradient-17"/><linearGradient id="linear-gradient-59" x1="242.96" y1="-63.94" x2="244.4" y2="-61.03" gradientTransform="matrix(-1, 0, 0, 1, 332.55, 100.49)" xlink:href="#linear-gradient-17"/><linearGradient id="linear-gradient-60" x1="58" y1="3.67" x2="59.44" y2="6.59" gradientTransform="matrix(0, 1, 1, 0, 81.04, -29.09)" xlink:href="#linear-gradient-17"/><linearGradient id="linear-gradient-61" x1="243.02" y1="-69.34" x2="244.46" y2="-66.42" gradientTransform="matrix(-1, 0, 0, 1, 328.36, 102.56)" xlink:href="#linear-gradient-17"/><linearGradient id="linear-gradient-62" x1="241.8" y1="-74.16" x2="243.24" y2="-71.24" gradientTransform="matrix(-1, 0, 0, 1, 324.13, 103.42)" xlink:href="#linear-gradient-17"/></defs><title>Tech2017_8</title><rect id="top" class="cls-3" y="-49.77" width="510.24" height="518.6"/><path class="cls-4" d="M56.55,26.77c-2.35-2.22-4.84-7-3.9-4.36s3.25,7.29,3.92,7.09S57.81,28,56.55,26.77Z"/><path class="cls-5" d="M73.44,26.77c2.35-2.22,4.84-7,3.9-4.36s-3.25,7.29-3.92,7.09S72.17,28,73.44,26.77Z"/><path class="cls-6" d="M84.3,39.79c-4-1.16-5.44-3.17-6.68-3.94s-2.1-1.93-2.9-.62-1.81.39-3.85,0.77-2.4,1.39-3.7,2.7-2.69,0-3.7-.77S62.23,37.4,60,37.86s-2.32-2.16-3.19-2.24-1.23-2-1.16-2.86-0.44.7-1.89,2.63-3,2.86-6,4.17-11,1.47-15.53,2c-0.38,0-.78.11-1.19,0.18a2.77,2.77,0,0,1-.34.28c-2,1.47-6.53,2.62-6.82,7.3s3,5.76,5,7.77,10.67,4.25,13.35,4.95,8.71,0.15,10.6-.31,3.92-2.24,3.92-3.94,1.81-6.34,2.61-5.56c1.35,1.3.62,3.33,1.49,4.8s0.35,1.12,1.15,3.91S63.1,67.85,64,69.63s0.73,3.17,2.25,4.1S67,75.89,68,76.27s1.67-.7,1.67-2.86,1.31-3.16,1.16-4.95C69.85,57,72.9,57.72,72.68,55.1s0.87-1.85,1.45-.62A7.44,7.44,0,0,1,75,58.88c-0.15,2.24.87,2.78,3.63,3.17s12.77,0.62,18.94-.7,12.83-10.92,12.35-15.48c-0.43-4.09-9.2-5.13-11.09-5.67S88.29,41,84.3,39.79Z"/><path class="cls-7" d="M71.35,56c1.62,2.8,2.68,8,2.51,5.28s-1-7.91-1.75-7.91S70.47,54.46,71.35,56Z"/><path class="cls-8" d="M61.6,56.54c-1.62,2.8-2.68,8-2.51,5.28s1-7.91,1.75-7.91S62.47,55,61.6,56.54Z"/><g class="cls-9"><path class="cls-10" d="M62.39,37.75c-4,.79-32.91,8.37-33.84,10s-0.58,2.4,1.95,1.19S55.29,39.72,60.6,38.46,65.23,37.19,62.39,37.75Z"/><path class="cls-10" d="M61,39.62C54.11,41.83,34.74,48,35.08,49.88s1.64,1.46,3.86.11,15.51-7,21.16-9.32S64.39,38.54,61,39.62Z"/><path class="cls-10" d="M33.16,54.36c-3.77,1.81-3.84,1.92-3.86,2.93s0.46,0.77,2,.15,12.8-6.61,24.18-11.92,12.9-6.39,10.12-5.4S35.88,53.06,33.16,54.36Z"/><path class="cls-10" d="M42.29,54.17c-5.1,2.56-9.34,3.38-8.86,4.72s0.84,0.66,3-.37S70.11,40.7,66.72,41.89,49.21,50.69,42.29,54.17Z"/><path class="cls-10" d="M60.06,48.53C49.64,54.92,40.83,59,41.81,60.13s0.09,3.27,5.44-.58S69.68,42.26,66.62,44,64.33,45.91,60.06,48.53Z"/></g><g class="cls-9"><path class="cls-10" d="M71.89,38.78c4,0.79,32.75,8.37,33.68,10s0.58,2.4-1.94,1.19S79,40.74,73.66,39.49,69.05,38.22,71.89,38.78Z"/><path class="cls-10" d="M73.26,40.65C80.12,42.85,99.4,49,99.06,50.9s-1.64,1.46-3.84.11-15.44-7-21.06-9.32S69.89,39.57,73.26,40.65Z"/><path class="cls-10" d="M99.54,54.36c3.75,1.81,3.82,1.92,3.84,2.93s-0.46.77-2,.15S88.61,50.83,77.29,45.52s-12.84-6.39-10.07-5.4S96.84,53.06,99.54,54.36Z"/><path class="cls-10" d="M91.89,55.19c5.08,2.56,9.3,3.38,8.82,4.72s-0.84.66-3-.37S64.2,41.73,67.57,42.92,85,51.71,91.89,55.19Z"/><path class="cls-10" d="M74.17,49.33c10.26,6.2,18.92,10.15,18,11.24s0,3.07-5.31-.65S64.69,43.25,67.7,45,70,46.79,74.17,49.33Z"/></g><path class="cls-11" d="M65.58,27.85c2.32-.48,3.6.16,4.79-0.88l0.46-.37c-0.29-.54-0.31-1.34-1.5-1.47-1.52-.16-8.15-0.4-9.35.72a2.33,2.33,0,0,0-.57.79c0.8,0.26,1.5.48,1.93,0.65A5.6,5.6,0,0,0,65.58,27.85Z"/><path class="cls-12" d="M56.86,28.46c-0.87.14-1.21,0-2.78-.46A125.29,125.29,0,0,0,37,25.13C31.15,24.65,21.31,23,14.92,23.8,10,24.4,7.38,25,7.06,26.64s1.06,16.83,4.5,17.79,31.26-2,34.53-3.4,5-2.32,6.55-4.31c1.35-1.68,2-3.08,2.06-2.95a13.08,13.08,0,0,1,1.71-4.54A4.23,4.23,0,0,0,56.86,28.46Z"/><path class="cls-13" d="M59.34,33.75c0.35-2.06.91-2.55,1.18-4.07a3.13,3.13,0,0,1,1.27-2.21l-0.43-.18c-0.43-.17-1.13-0.39-1.93-0.65-0.32.74-.13,1.31-1.51,1.61-0.45.1-.78,0.17-1.06,0.22a4.23,4.23,0,0,1-.44.76,13.08,13.08,0,0,0-1.71,4.54,0.4,0.4,0,0,1,0,.23c-0.08.88,0.32,2.88,1.28,3s1,2.8,3.52,2.32l0.57-.12-0.31-.88A7.83,7.83,0,0,1,59.34,33.75Z"/><path class="cls-14" d="M71.52,32.4a43.66,43.66,0,0,0-2.42-4.86c-0.9.15-2,0-3.52,0.3a5.18,5.18,0,0,1-3.8-.38,3.13,3.13,0,0,0-1.27,2.21c-0.27,1.52-.83,2-1.18,4.07a7.83,7.83,0,0,0,.43,4.52l0.31,0.88c1.93-.39,2.24-0.54,3.26.2s2.64,2.16,4.07.8,1.09-.59,3.32-1c0.59-.11,1.86-1.92,2.31-1.9C73.12,35.7,72.66,34.83,71.52,32.4Z"/><path class="cls-15" d="M62.26,28.22a2.91,2.91,0,0,0-1.16,2C60.83,31.54,60.34,32,60,33.83a7.37,7.37,0,0,0,.33,4.06l0.26,0.79c1.61-.27,1.92-0.36,2.83.27s2.37,1.82,3.6.75,1.16-.48,3.13-0.83c0.56-.1,1.68-1.67,2.1-1.73a4.72,4.72,0,0,0-.1-1.57,18.41,18.41,0,0,0-1.11-2.86,29.78,29.78,0,0,0-2.2-4.43,17.39,17.39,0,0,0-3.17.14A5.66,5.66,0,0,1,62.26,28.22Z"/><path class="cls-16" d="M62.73,29a2.73,2.73,0,0,0-1.05,1.73c-0.26,1.17-.7,1.66-1,3.21a7,7,0,0,0,.22,3.59l0.21,0.7c1.29-.15,1.59-0.18,2.39.34s2.1,1.48,3.12.7,1.22-.38,2.93-0.66c0.53-.09,1.5-1.42,1.89-1.55a4.3,4.3,0,0,0,0-1.4,13.54,13.54,0,0,0-.89-2.6,20.24,20.24,0,0,0-2-4,10,10,0,0,0-2.82,0A7,7,0,0,1,62.73,29Z"/><path class="cls-17" d="M63.2,29.73a2.57,2.57,0,0,0-.94,1.49A24,24,0,0,0,61.4,34a6.69,6.69,0,0,0,.12,3.13c0.06,0.23.11,0.43,0.15,0.6a2.79,2.79,0,0,1,2,.41c0.8,0.48,1.83,1.14,2.64.65s1.29-.26,2.73-0.5c0.5-.08,1.32-1.17,1.69-1.38a3.93,3.93,0,0,0,.09-1.24,9.89,9.89,0,0,0-.67-2.34,14,14,0,0,0-1.76-3.56,6.22,6.22,0,0,0-2.47-.18A12.28,12.28,0,0,1,63.2,29.73Z"/><path class="cls-18" d="M63.68,30.49a2.45,2.45,0,0,0-.83,1.24,15.36,15.36,0,0,0-.75,2.35,6.59,6.59,0,0,0,0,2.67c0,0.2.07,0.36,0.1,0.51a3.76,3.76,0,0,1,1.53.48,3.25,3.25,0,0,0,2.16.6A21.22,21.22,0,0,1,68.42,38a5,5,0,0,0,1.48-1.2,3.67,3.67,0,0,0,.18-1.07,7.06,7.06,0,0,0-.45-2.08,9.62,9.62,0,0,0-1.55-3.13A4.1,4.1,0,0,0,66,30.18C64.92,30.31,64.31,30.37,63.68,30.49Z"/><path class="cls-19" d="M64.15,31.25a2.46,2.46,0,0,0-.72,1,9.34,9.34,0,0,0-.65,1.92,7,7,0,0,0-.09,2.2c0,0.16,0,.3,0,0.41a7.1,7.1,0,0,0,1.09.55,5.86,5.86,0,0,0,1.68.55,6.7,6.7,0,0,0,2.33-.17,2.94,2.94,0,0,0,1.27-1,3.59,3.59,0,0,0,.28-0.91A4.94,4.94,0,0,0,69.16,34a6.48,6.48,0,0,0-1.33-2.7,2.84,2.84,0,0,0-1.77-.5A5.19,5.19,0,0,0,64.15,31.25Z"/><path class="cls-20" d="M64.63,32c-1.29,1.1-1.36,3.52-1.36,4.31s1.65,0.64,1.86,1.12,1.49,0.08,2.13,0a2.42,2.42,0,0,0,1.44-1.6A4.6,4.6,0,0,0,67.58,32,2,2,0,0,0,64.63,32Z"/><path class="cls-21" d="M59.34,33.75c0.35-2.06.91-2.55,1.18-4.07a3.13,3.13,0,0,1,1.27-2.21l-0.43-.18c-0.43-.17-1.13-0.39-1.93-0.65-0.32.74-.13,1.31-1.51,1.61-0.45.1-.78,0.17-1.06,0.22a4.23,4.23,0,0,1-.44.76,13.08,13.08,0,0,0-1.71,4.54,0.4,0.4,0,0,1,0,.23c-0.08.88,0.32,2.88,1.28,3s1,2.8,3.52,2.32l0.57-.12-0.31-.88A7.83,7.83,0,0,1,59.34,33.75Z"/><path class="cls-22" d="M65.55,73.59a12.85,12.85,0,0,0,3.24,3.48c1,0.81.54-1.43,0.78-3.78a33.37,33.37,0,0,1-3.44.29H65.55Z"/><path class="cls-23" d="M66.36,50.31A23.16,23.16,0,0,0,72,49.56c0.13-2.86-.48-4.08-0.09-4.61a23.78,23.78,0,0,1-5.47.71,14.55,14.55,0,0,1-6.3-.88,3.49,3.49,0,0,1,.2,1.76,8.08,8.08,0,0,0,.21,3.07A15.29,15.29,0,0,0,66.36,50.31Z"/><path class="cls-24" d="M66.41,45.66A23.78,23.78,0,0,0,71.88,45a0.58,0.58,0,0,1,.17-0.16c0.8-.47.88-5,0-5.68s-1.52-.4-3.91,1.91-4.15-.4-5.43-1a2.25,2.25,0,0,0-3.29,1.36c-0.3,1.43.33,2.38,0.69,3.44A14.55,14.55,0,0,0,66.41,45.66Z"/><path class="cls-25" d="M63.93,68.9c0.19,0.74.46,1.18,0.86,2.81a7.12,7.12,0,0,0,.76,1.88h0.57a33.37,33.37,0,0,0,3.44-.29,8,8,0,0,1,.42-2,11.27,11.27,0,0,0,.55-2.83,28.92,28.92,0,0,1-4.36.45A21.93,21.93,0,0,1,63.93,68.9Z"/><path class="cls-26" d="M72,49.56a23.16,23.16,0,0,1-5.61.75,15.29,15.29,0,0,1-5.85-.71A24.93,24.93,0,0,1,61,52.85a13,13,0,0,0,.26,1.66,16.73,16.73,0,0,0,5,.45,25.06,25.06,0,0,0,5.21-.64c0.12-1.14.24-2.35,0.37-3.71C71.93,50.24,72,49.89,72,49.56Z"/><path class="cls-27" d="M61.29,54.52c0.35,1.67.93,3.16,1.27,4.93a19.22,19.22,0,0,0,3.71.17A27.14,27.14,0,0,0,71,59.09c0.18-1.54.34-3.07,0.51-4.76a25.06,25.06,0,0,1-5.21.64A16.73,16.73,0,0,1,61.29,54.52Z"/><path class="cls-28" d="M63.27,64.2a12.73,12.73,0,0,1,.4,2.64,10.8,10.8,0,0,0,.26,2.07,21.93,21.93,0,0,0,2.24,0,28.92,28.92,0,0,0,4.36-.45c0.13-1.49.14-3.12,0.15-4.67a28.5,28.5,0,0,1-4.47.47A20.72,20.72,0,0,1,63.27,64.2Z"/><path class="cls-29" d="M62.56,59.44a14.17,14.17,0,0,1,.23,1.64,16.45,16.45,0,0,0,.48,3.11,20.72,20.72,0,0,0,2.94.08,28.5,28.5,0,0,0,4.47-.47,31.26,31.26,0,0,1,.16-3.28c0.06-.48.11-1,0.17-1.43a27.14,27.14,0,0,1-4.74.53A19.22,19.22,0,0,1,62.56,59.44Z"/><path class="cls-30" d="M65.55,73.59a12.85,12.85,0,0,0,3.24,3.48c1,0.81.54-1.43,0.78-3.78a33.37,33.37,0,0,1-3.44.29H65.55Z"/><path class="cls-31" d="M66.36,50.31A23.16,23.16,0,0,0,72,49.56c0.13-2.86-.48-4.08-0.09-4.61a23.78,23.78,0,0,1-5.47.71,14.55,14.55,0,0,1-6.3-.88,3.49,3.49,0,0,1,.2,1.76,8.08,8.08,0,0,0,.21,3.07A15.29,15.29,0,0,0,66.36,50.31Z"/><path class="cls-32" d="M66.41,45.66A23.78,23.78,0,0,0,71.88,45a0.58,0.58,0,0,1,.17-0.16c0.8-.47.88-5,0-5.68s-1.52-.4-3.91,1.91-4.15-.4-5.43-1a2.25,2.25,0,0,0-3.29,1.36c-0.3,1.43.33,2.38,0.69,3.44A14.55,14.55,0,0,0,66.41,45.66Z"/><path class="cls-33" d="M63.93,68.9c0.19,0.74.46,1.18,0.86,2.81a7.12,7.12,0,0,0,.76,1.88h0.57a33.37,33.37,0,0,0,3.44-.29,8,8,0,0,1,.42-2,11.27,11.27,0,0,0,.55-2.83,28.92,28.92,0,0,1-4.36.45A21.93,21.93,0,0,1,63.93,68.9Z"/><path class="cls-34" d="M72,49.56a23.16,23.16,0,0,1-5.61.75,15.29,15.29,0,0,1-5.85-.71A24.93,24.93,0,0,1,61,52.85a13,13,0,0,0,.26,1.66,16.73,16.73,0,0,0,5,.45,25.06,25.06,0,0,0,5.21-.64c0.12-1.14.24-2.35,0.37-3.71C71.93,50.24,72,49.89,72,49.56Z"/><path class="cls-35" d="M61.29,54.52c0.35,1.67.93,3.16,1.27,4.93a19.22,19.22,0,0,0,3.71.17A27.14,27.14,0,0,0,71,59.09c0.18-1.54.34-3.07,0.51-4.76a25.06,25.06,0,0,1-5.21.64A16.73,16.73,0,0,1,61.29,54.52Z"/><path class="cls-36" d="M63.27,64.2a12.73,12.73,0,0,1,.4,2.64,10.8,10.8,0,0,0,.26,2.07,21.93,21.93,0,0,0,2.24,0,28.92,28.92,0,0,0,4.36-.45c0.13-1.49.14-3.12,0.15-4.67a28.5,28.5,0,0,1-4.47.47A20.72,20.72,0,0,1,63.27,64.2Z"/><path class="cls-37" d="M62.56,59.44a14.17,14.17,0,0,1,.23,1.64,16.45,16.45,0,0,0,.48,3.11,20.72,20.72,0,0,0,2.94.08,28.5,28.5,0,0,0,4.47-.47,31.26,31.26,0,0,1,.16-3.28c0.06-.48.11-1,0.17-1.43a27.14,27.14,0,0,1-4.74.53A19.22,19.22,0,0,1,62.56,59.44Z"/><path class="cls-38" d="M62.56,22.57a10.61,10.61,0,0,1-4.46-1.08c-2.52-1.08-7.25-2.46-15.16-3.6s-9.59-1.26-12.46-3.24S26,12.51,27,13.11s3.89,3.24,5.81,3.78a92.06,92.06,0,0,0,10.85,1.68,51.21,51.21,0,0,1,12.28,2.88c4,1.44,6,1.56,5.35,2.22s-1.81,2.17-.77,1.9a23.81,23.81,0,0,1,5.4-.56c1.95,0,3.65,0,4,.3s-0.3-.68-1.16-1.4-0.5-1.26.69-1.8a25.15,25.15,0,0,1,10.37-1.92c5,0.18,15,2,17.2,1.56s1.08-.9-0.42-0.78,0,0.24-9.35-.6-10-1.44-14.92.3-5.4,1.86-5.67,1,0.3-2.46-.28-1.92S64.81,22.81,62.56,22.57Z"/><path class="cls-39" d="M74,28.46c0.87,0.14,1.21,0,2.78-.46a125.29,125.29,0,0,1,17.1-2.88c5.83-.48,20-3,24.69-1.44s8.15,2.08,8.47,3.76-1.2,12.78-2.88,13S122,41,118.54,42s-16.28,1.17-16.7,1.12c-5-.56-13.82-0.72-17.1-2.08s-5-2.32-6.55-4.31c-1.35-1.68-2-3.08-2.06-2.95a13.08,13.08,0,0,0-1.71-4.54A4.23,4.23,0,0,1,74,28.46Z"/><path class="cls-40" d="M71.49,33.75c-0.35-2.06-.91-2.55-1.18-4.07A3.13,3.13,0,0,0,69,27.47l0.43-.18c0.43-.17,1.13-0.39,1.93-0.65,0.32,0.74.13,1.31,1.51,1.61,0.45,0.1.78,0.17,1.06,0.22a4.23,4.23,0,0,0,.44.76,13.08,13.08,0,0,1,1.71,4.54,0.4,0.4,0,0,0,0,.23c0.08,0.88-.32,2.88-1.28,3s-1,2.8-3.52,2.32l-0.57-.12,0.31-.88A7.83,7.83,0,0,0,71.49,33.75Z"/><path class="cls-41" d="M71.49,33.75c-0.35-2.06-.91-2.55-1.18-4.07A3.13,3.13,0,0,0,69,27.47l0.43-.18c0.43-.17,1.13-0.39,1.93-0.65,0.32,0.74.13,1.31,1.51,1.61,0.45,0.1.78,0.17,1.06,0.22a4.23,4.23,0,0,0,.44.76,13.08,13.08,0,0,1,1.71,4.54,0.4,0.4,0,0,0,0,.23c0.08,0.88-.32,2.88-1.28,3s-1,2.8-3.52,2.32l-0.57-.12,0.31-.88A7.83,7.83,0,0,0,71.49,33.75Z"/><g class="cls-9"><path class="cls-10" d="M49.63,29.06c-4-.73-33.68-4.33-35.15-3.15s-1.43,2,1.38,1.82,26.45,0.54,31.86,1.33S52.49,29.58,49.63,29.06Z"/><path class="cls-10" d="M47.67,30.29c-7.23-.49-27.5-1.92-27.88,0s1,2,3.55,1.52,17-.84,23.11-0.88S51.21,30.53,47.67,30.29Z"/><path class="cls-10" d="M16.35,33.75c-4.17.3-4.28,0.37-4.67,1.31s0.14,0.88,1.84.88,14.33-1.43,26.87-2.19,14.35-1.2,11.4-1.3S19.35,33.54,16.35,33.75Z"/><path class="cls-10" d="M24.9,36.93c-5.69.51-9.93-.29-10,1.13s0.54,0.92,2.9.75,37.91-4.17,34.32-4.31S32.62,36.24,24.9,36.93Z"/><path class="cls-10" d="M46.39,37c-7.79,1.22-14,1.51-13.73,2.35s-0.72,1.78,3.41.84,17.6-4.52,15.34-4.23S49.58,36.48,46.39,37Z"/></g><g class="cls-9"><path class="cls-10" d="M82.14,29.06c4-.73,33.68-4.33,35.15-3.15s1.43,2-1.38,1.82-26.45.54-31.86,1.33S79.29,29.58,82.14,29.06Z"/><path class="cls-10" d="M84.11,30.29c7.23-.49,27.5-1.92,27.88,0s-1,2-3.55,1.52-17-.84-23.11-0.88S80.57,30.53,84.11,30.29Z"/><path class="cls-10" d="M115.43,33.75c4.17,0.3,4.28.37,4.67,1.31s-0.14.88-1.84,0.88-14.33-1.43-26.87-2.19S77,32.55,80,32.45,112.43,33.54,115.43,33.75Z"/><path class="cls-10" d="M106.87,36.93c5.69,0.51,9.93-.29,10,1.13s-0.54.92-2.9,0.75S76,34.64,79.64,34.5,99.15,36.24,106.87,36.93Z"/><path class="cls-10" d="M85.39,37c7.79,1.22,14,1.51,13.73,2.35s0.72,1.78-3.41.84-17.6-4.52-15.34-4.23S82.2,36.48,85.39,37Z"/></g><g class="cls-9"><circle class="cls-42" cx="11.56" cy="29.56" r="1.63"/><circle class="cls-43" cx="18.16" cy="27.3" r="1.63" transform="translate(-9.88 44.31) rotate(-87.62)"/><circle class="cls-44" cx="19.72" cy="33.25" r="1.63" transform="translate(-16.44 19.57) rotate(-38.61)"/><circle class="cls-45" cx="15.48" cy="39.03" r="1.63" transform="translate(-20.97 18.19) rotate(-38.61)"/><circle class="cls-46" cx="12.39" cy="34.5" r="1.63" transform="translate(-18.82 15.27) rotate(-38.61)"/><circle class="cls-47" cx="23.7" cy="39.03" r="1.63" transform="translate(-19.18 23.32) rotate(-38.61)"/><circle class="cls-48" cx="26.53" cy="27.38" r="1.63" transform="translate(-1.93 52.76) rotate(-87.62)"/><circle class="cls-49" cx="28.09" cy="33.33" r="1.63" transform="matrix(0.78, -0.62, 0.62, 0.78, -14.66, 24.81)"/><circle class="cls-50" cx="32.07" cy="39.12" r="1.63" transform="translate(-17.4 28.56) rotate(-38.61)"/><circle class="cls-51" cx="34.27" cy="28.23" r="1.63" transform="translate(4.64 61.3) rotate(-87.62)"/><circle class="cls-52" cx="35.83" cy="34.18" r="1.63" transform="translate(-13.5 29.83) rotate(-38.61)"/><circle class="cls-53" cx="39.71" cy="39.03" r="1.63" transform="translate(-15.68 33.31) rotate(-38.61)"/><circle class="cls-54" cx="41.34" cy="28.7" r="1.63" transform="translate(10.95 68.81) rotate(-87.62)"/><circle class="cls-55" cx="42.9" cy="33.75" r="1.63" transform="translate(-11.68 34.15) rotate(-38.61)"/><circle class="cls-56" cx="45.76" cy="38.23" r="1.63" transform="translate(-13.85 36.91) rotate(-38.61)"/><circle class="cls-57" cx="48.45" cy="29.86" r="1.63" transform="translate(16.61 77.03) rotate(-87.62)"/><circle class="cls-58" cx="50.02" cy="34.91" r="1.63" transform="translate(-10.85 38.84) rotate(-38.61)"/><circle class="cls-59" cx="53.02" cy="30.94" r="1.63" transform="translate(-7.72 39.85) rotate(-38.61)"/></g><g class="cls-9"><circle class="cls-60" cx="123.08" cy="29.33" r="1.63"/><circle class="cls-61" cx="116.47" cy="27.08" r="1.63" transform="translate(-1.02 4.85) rotate(-2.38)"/><circle class="cls-62" cx="114.91" cy="33.02" r="1.63" transform="translate(17.4 102.21) rotate(-51.39)"/><circle class="cls-63" cx="119.15" cy="38.81" r="1.63" transform="translate(14.48 107.7) rotate(-51.39)"/><circle class="cls-64" cx="122.24" cy="34.28" r="1.63" transform="translate(19.18 108.41) rotate(-51.39)"/><circle class="cls-65" cx="110.93" cy="38.81" r="1.63" transform="matrix(0.62, -0.78, 0.78, 0.62, 11.39, 101.28)"/><circle class="cls-66" cx="108.1" cy="27.16" r="1.63" transform="translate(-1.03 4.51) rotate(-2.38)"/><circle class="cls-67" cx="106.54" cy="33.1" r="1.63" transform="translate(14.19 95.7) rotate(-51.39)"/><circle class="cls-68" cx="102.56" cy="38.89" r="1.63" transform="translate(8.18 94.77) rotate(-51.39)"/><circle class="cls-69" cx="100.36" cy="28.01" r="1.63" transform="translate(-1.08 4.19) rotate(-2.38)"/><circle class="cls-70" cx="98.8" cy="33.95" r="1.63" transform="translate(10.62 89.97) rotate(-51.39)"/><circle class="cls-71" cx="94.92" cy="38.81" r="1.63" transform="translate(5.37 88.77) rotate(-51.39)"/><circle class="cls-72" cx="93.29" cy="28.47" r="1.63" transform="translate(-1.1 3.89) rotate(-2.38)"/><circle class="cls-73" cx="91.73" cy="33.52" r="1.63" transform="translate(8.3 84.29) rotate(-51.39)"/><circle class="cls-74" cx="88.87" cy="38" r="1.63" transform="matrix(0.62, -0.78, 0.78, 0.62, 3.72, 83.73)"/><circle class="cls-75" cx="86.18" cy="29.63" r="1.63" transform="matrix(1, -0.04, 0.04, 1, -1.15, 3.6)"/><circle class="cls-76" cx="84.61" cy="34.69" r="1.63" transform="translate(4.71 79.16) rotate(-51.39)"/><circle class="cls-77" cx="81.61" cy="30.72" r="1.63" transform="matrix(0.62, -0.78, 0.78, 0.62, 6.68, 75.32)"/></g></svg>