<svg id="Text" xmlns="http://www.w3.org/2000/svg" xmlns:xlink="http://www.w3.org/1999/xlink" viewBox="0 0 120.34 64.63"><defs><style>.cls-1{fill:none;}.cls-2{fill:#939598;opacity:0.1;}.cls-10,.cls-11,.cls-12,.cls-20,.cls-21,.cls-22,.cls-23,.cls-24,.cls-25,.cls-26,.cls-27,.cls-28,.cls-3,.cls-37,.cls-38,.cls-39,.cls-4,.cls-40,.cls-41,.cls-42,.cls-43,.cls-44,.cls-45,.cls-46,.cls-47,.cls-48,.cls-49,.cls-5,.cls-50,.cls-51,.cls-52,.cls-53,.cls-54,.cls-55,.cls-56,.cls-57,.cls-58,.cls-59,.cls-6,.cls-60,.cls-61,.cls-62,.cls-63,.cls-64,.cls-65,.cls-66,.cls-67,.cls-68,.cls-69,.cls-7,.cls-70,.cls-71,.cls-72,.cls-73,.cls-74,.cls-75,.cls-76,.cls-9{stroke:#fff;}.cls-10,.cls-11,.cls-12,.cls-20,.cls-3,.cls-38,.cls-39,.cls-4,.cls-40,.cls-41,.cls-42,.cls-43,.cls-44,.cls-45,.cls-46,.cls-47,.cls-48,.cls-49,.cls-5,.cls-50,.cls-51,.cls-52,.cls-53,.cls-54,.cls-55,.cls-56,.cls-57,.cls-58,.cls-59,.cls-6,.cls-60,.cls-61,.cls-62,.cls-63,.cls-64,.cls-65,.cls-66,.cls-67,.cls-68,.cls-69,.cls-7,.cls-70,.cls-71,.cls-72,.cls-73,.cls-74,.cls-75,.cls-76,.cls-9{stroke-miterlimit:10;}.cls-10,.cls-11,.cls-12,.cls-20,.cls-21,.cls-22,.cls-23,.cls-24,.cls-25,.cls-26,.cls-27,.cls-28,.cls-29,.cls-3,.cls-30,.cls-31,.cls-32,.cls-33,.cls-34,.cls-35,.cls-36,.cls-38,.cls-39,.cls-4,.cls-40,.cls-41,.cls-42,.cls-43,.cls-44,.cls-45,.cls-46,.cls-47,.cls-48,.cls-49,.cls-5,.cls-50,.cls-51,.cls-52,.cls-53,.cls-54,.cls-55,.cls-56,.cls-57,.cls-58,.cls-59,.cls-6,.cls-60,.cls-61,.cls-62,.cls-63,.cls-64,.cls-65,.cls-66,.cls-67,.cls-68,.cls-69,.cls-7,.cls-70,.cls-71,.cls-72,.cls-73,.cls-74,.cls-75,.cls-76{stroke-width:0.3px;}.cls-3{fill:url(#linear-gradient);}.cls-4{fill:url(#linear-gradient-2);}.cls-5{fill:url(#linear-gradient-3);}.cls-6{fill:url(#linear-gradient-4);}.cls-7{fill:url(#linear-gradient-5);}.cls-8,.cls-9{opacity:0.5;}.cls-9{fill:#bcbec0;stroke-width:0.5px;}.cls-10{fill:url(#linear-gradient-6);}.cls-11{fill:url(#linear-gradient-7);}.cls-12{fill:url(#linear-gradient-8);}.cls-13,.cls-37{fill:#e6a1b7;}.cls-14{fill:#e9abbe;}.cls-15{fill:#ecb4c6;}.cls-16{fill:#efbece;}.cls-17{fill:#f2c8d6;}.cls-18{fill:#f6d3e0;}.cls-19{fill:#fcdfeb;}.cls-20,.cls-29,.cls-30,.cls-31,.cls-32,.cls-33,.cls-34,.cls-35,.cls-36{fill:url(#New_Pattern);}.cls-21,.cls-22,.cls-23,.cls-24,.cls-25,.cls-26,.cls-27,.cls-28,.cls-29,.cls-30,.cls-31,.cls-32,.cls-33,.cls-34,.cls-35,.cls-36,.cls-37{stroke-linecap:round;stroke-linejoin:round;}.cls-21{fill:url(#linear-gradient-9);}.cls-22{fill:url(#linear-gradient-10);}.cls-23{fill:url(#linear-gradient-11);}.cls-24{fill:url(#linear-gradient-12);}.cls-25{fill:url(#linear-gradient-13);}.cls-26{fill:url(#linear-gradient-14);}.cls-27{fill:url(#linear-gradient-15);}.cls-28{fill:url(#linear-gradient-16);}.cls-29{stroke:url(#linear-gradient-17);}.cls-30{stroke:url(#linear-gradient-18);}.cls-31{stroke:url(#linear-gradient-19);}.cls-32{stroke:url(#linear-gradient-20);}.cls-33{stroke:url(#linear-gradient-21);}.cls-34{stroke:url(#linear-gradient-22);}.cls-35{stroke:url(#linear-gradient-23);}.cls-36{stroke:url(#linear-gradient-24);}.cls-37{stroke-width:0.1px;}.cls-38{fill:url(#linear-gradient-25);}.cls-39{fill:url(#linear-gradient-26);}.cls-40{fill:url(#New_Pattern-19);}.cls-41,.cls-42,.cls-43,.cls-44,.cls-45,.cls-46,.cls-47,.cls-48,.cls-49,.cls-50,.cls-51,.cls-52,.cls-53,.cls-54,.cls-55,.cls-56,.cls-57,.cls-58,.cls-59,.cls-60,.cls-61,.cls-62,.cls-63,.cls-64,.cls-65,.cls-66,.cls-67,.cls-68,.cls-69,.cls-70,.cls-71,.cls-72,.cls-73,.cls-74,.cls-75,.cls-76{opacity:0.4;}.cls-41{fill:url(#linear-gradient-27);}.cls-42{fill:url(#linear-gradient-28);}.cls-43{fill:url(#linear-gradient-29);}.cls-44{fill:url(#linear-gradient-30);}.cls-45{fill:url(#linear-gradient-31);}.cls-46{fill:url(#linear-gradient-32);}.cls-47{fill:url(#linear-gradient-33);}.cls-48{fill:url(#linear-gradient-34);}.cls-49{fill:url(#linear-gradient-35);}.cls-50{fill:url(#linear-gradient-36);}.cls-51{fill:url(#linear-gradient-37);}.cls-52{fill:url(#linear-gradient-38);}.cls-53{fill:url(#linear-gradient-39);}.cls-54{fill:url(#linear-gradient-40);}.cls-55{fill:url(#linear-gradient-41);}.cls-56{fill:url(#linear-gradient-42);}.cls-57{fill:url(#linear-gradient-43);}.cls-58{fill:url(#linear-gradient-44);}.cls-59{fill:url(#linear-gradient-45);}.cls-60{fill:url(#linear-gradient-46);}.cls-61{fill:url(#linear-gradient-47);}.cls-62{fill:url(#linear-gradient-48);}.cls-63{fill:url(#linear-gradient-49);}.cls-64{fill:url(#linear-gradient-50);}.cls-65{fill:url(#linear-gradient-51);}.cls-66{fill:url(#linear-gradient-52);}.cls-67{fill:url(#linear-gradient-53);}.cls-68{fill:url(#linear-gradient-54);}.cls-69{fill:url(#linear-gradient-55);}.cls-70{fill:url(#linear-gradient-56);}.cls-71{fill:url(#linear-gradient-57);}.cls-72{fill:url(#linear-gradient-58);}.cls-73{fill:url(#linear-gradient-59);}.cls-74{fill:url(#linear-gradient-60);}.cls-75{fill:url(#linear-gradient-61);}.cls-76{fill:url(#linear-gradient-62);}</style><linearGradient id="linear-gradient" x1="448.42" y1="523.12" x2="448.42" y2="514.43" gradientTransform="translate(-105.44 106.82) rotate(-16.63)" gradientUnits="userSpaceOnUse"><stop offset="0" stop-color="#d04e84"/><stop offset="1" stop-color="#fcdfeb"/></linearGradient><linearGradient id="linear-gradient-2" x1="141.46" y1="431.46" x2="141.46" y2="422.77" gradientTransform="matrix(-0.96, -0.29, -0.29, 0.96, 750.37, 106.82)" xlink:href="#linear-gradient"/><linearGradient id="linear-gradient-3" x1="484.57" y1="526.51" x2="484.57" y2="482.69" gradientTransform="matrix(1, 0, 0, 1, 0, 0)" xlink:href="#linear-gradient"/><linearGradient id="linear-gradient-4" x1="116.22" y1="328.39" x2="116.22" y2="319.7" gradientTransform="translate(607.25 831.55) rotate(179.83)" xlink:href="#linear-gradient"/><linearGradient id="linear-gradient-5" x1="639.84" y1="329.36" x2="639.84" y2="320.67" gradientTransform="matrix(1, 0, 0, -1, -162.63, 831.55)" xlink:href="#linear-gradient"/><linearGradient id="linear-gradient-6" x1="482.78" y1="478.19" x2="482.78" y2="475.16" gradientTransform="matrix(1, 0, 0, 1, 0, 0)" xlink:href="#linear-gradient"/><linearGradient id="linear-gradient-7" x1="449.58" y1="494.78" x2="449.58" y2="473.75" gradientTransform="matrix(1, 0, 0, 1, 0, 0)" xlink:href="#linear-gradient"/><linearGradient id="linear-gradient-8" x1="475.89" y1="489.49" x2="475.89" y2="476.8" gradientTransform="matrix(1, 0, 0, 1, 0, 0)" xlink:href="#linear-gradient"/><pattern id="New_Pattern" data-name="New Pattern" width="10.25" height="9.33" patternTransform="translate(-11.32 -5.67) scale(1.31)" patternUnits="userSpaceOnUse" viewBox="0 0 10.25 9.33"><rect class="cls-1" width="10.25" height="9.33"/><circle class="cls-2" cx="2.02" cy="2.21" r="1.07"/><circle class="cls-2" cx="3.78" cy="2.46" r="1.07"/><circle class="cls-2" cx="4.15" cy="7.4" r="1.07"/><circle class="cls-2" cx="6.47" cy="1.45" r="0.75"/><circle class="cls-2" cx="1.71" cy="4.83" r="0.75"/><circle class="cls-2" cx="7.22" cy="5.58" r="0.75"/><circle class="cls-2" cx="8.6" cy="3.53" r="1.11"/><circle class="cls-2" cx="4.55" cy="4.02" r="1.56"/></pattern><linearGradient id="linear-gradient-9" x1="485.2" y1="527.39" x2="485.2" y2="523.45" gradientUnits="userSpaceOnUse"><stop offset="0" stop-color="#d04e84"/><stop offset="1" stop-color="#e6a1b7"/></linearGradient><linearGradient id="linear-gradient-10" x1="483.7" y1="500.5" x2="483.7" y2="494.95" xlink:href="#linear-gradient-9"/><linearGradient id="linear-gradient-11" x1="483.66" y1="495.85" x2="483.66" y2="488.98" xlink:href="#linear-gradient-9"/><linearGradient id="linear-gradient-12" x1="484.88" y1="523.75" x2="484.88" y2="518.64" xlink:href="#linear-gradient-9"/><linearGradient id="linear-gradient-13" x1="483.89" y1="505.15" x2="483.89" y2="499.73" xlink:href="#linear-gradient-9"/><linearGradient id="linear-gradient-14" x1="484.05" y1="509.8" x2="484.05" y2="504.49" xlink:href="#linear-gradient-9"/><linearGradient id="linear-gradient-15" x1="484.62" y1="519.11" x2="484.62" y2="513.97" xlink:href="#linear-gradient-9"/><linearGradient id="linear-gradient-16" x1="484.43" y1="514.46" x2="484.43" y2="509.26" xlink:href="#linear-gradient-9"/><linearGradient id="linear-gradient-17" x1="485.2" y1="527.54" x2="485.2" y2="523.3" gradientUnits="userSpaceOnUse"><stop offset="0" stop-color="#a7a9ac"/><stop offset="1" stop-color="#e6e7e8"/></linearGradient><linearGradient id="linear-gradient-18" x1="483.7" y1="500.65" x2="483.7" y2="494.8" xlink:href="#linear-gradient-17"/><linearGradient id="linear-gradient-19" x1="483.66" y1="496" x2="483.66" y2="488.83" xlink:href="#linear-gradient-17"/><linearGradient id="linear-gradient-20" x1="484.88" y1="523.9" x2="484.88" y2="518.49" xlink:href="#linear-gradient-17"/><linearGradient id="linear-gradient-21" x1="483.89" y1="505.3" x2="483.89" y2="499.58" xlink:href="#linear-gradient-17"/><linearGradient id="linear-gradient-22" x1="484.05" y1="509.95" x2="484.05" y2="504.34" xlink:href="#linear-gradient-17"/><linearGradient id="linear-gradient-23" x1="484.62" y1="519.26" x2="484.62" y2="513.82" xlink:href="#linear-gradient-17"/><linearGradient id="linear-gradient-24" x1="484.43" y1="514.61" x2="484.43" y2="509.11" xlink:href="#linear-gradient-17"/><linearGradient id="linear-gradient-25" x1="93.41" y1="493.28" x2="93.41" y2="473.37" gradientTransform="matrix(-1, 0, 0, 1, 611.57, 0)" xlink:href="#linear-gradient"/><linearGradient id="linear-gradient-26" x1="121.34" y1="489.49" x2="121.34" y2="476.8" gradientTransform="matrix(-1, 0, 0, 1, 611.57, 0)" xlink:href="#linear-gradient"/><pattern id="New_Pattern-19" data-name="New Pattern" width="10.25" height="9.33" patternTransform="matrix(-1.31, 0, 0, 1.31, -23.89, -5.67)" patternUnits="userSpaceOnUse" viewBox="0 0 10.25 9.33"><rect class="cls-1" width="10.25" height="9.33"/><circle class="cls-2" cx="2.02" cy="2.21" r="1.07"/><circle class="cls-2" cx="3.78" cy="2.46" r="1.07"/><circle class="cls-2" cx="4.15" cy="7.4" r="1.07"/><circle class="cls-2" cx="6.47" cy="1.45" r="0.75"/><circle class="cls-2" cx="1.71" cy="4.83" r="0.75"/><circle class="cls-2" cx="7.22" cy="5.58" r="0.75"/><circle class="cls-2" cx="8.6" cy="3.53" r="1.11"/><circle class="cls-2" cx="4.55" cy="4.02" r="1.56"/></pattern><linearGradient id="linear-gradient-27" x1="3.97" y1="15.34" x2="5.41" y2="18.26" xlink:href="#linear-gradient-17"/><linearGradient id="linear-gradient-28" x1="343.26" y1="263.19" x2="344.7" y2="266.1" gradientTransform="translate(779.78 742.11) rotate(180)" xlink:href="#linear-gradient-17"/><linearGradient id="linear-gradient-29" x1="434.95" y1="337.37" x2="436.39" y2="340.28" gradientTransform="translate(776.19 47.75) rotate(90)" xlink:href="#linear-gradient-17"/><linearGradient id="linear-gradient-30" x1="436.82" y1="344.29" x2="438.26" y2="347.21" gradientTransform="translate(778.88 51.66) rotate(90)" xlink:href="#linear-gradient-17"/><linearGradient id="linear-gradient-31" x1="431.35" y1="343.88" x2="432.79" y2="346.8" gradientTransform="translate(775.37 52.6) rotate(90)" xlink:href="#linear-gradient-17"/><linearGradient id="linear-gradient-32" x1="441.95" y1="337.87" x2="443.39" y2="340.79" gradientTransform="translate(780.67 46.53) rotate(90)" xlink:href="#linear-gradient-17"/><linearGradient id="linear-gradient-33" x1="342.99" y1="254.82" x2="344.43" y2="257.73" gradientTransform="translate(787.89 733.82) rotate(180)" xlink:href="#linear-gradient-17"/><linearGradient id="linear-gradient-34" x1="440.23" y1="330.87" x2="441.68" y2="333.79" gradientTransform="translate(778.07 42.54) rotate(90)" xlink:href="#linear-gradient-17"/><linearGradient id="linear-gradient-35" x1="447.24" y1="331.38" x2="448.68" y2="334.29" gradientTransform="translate(782.55 41.32) rotate(90)" xlink:href="#linear-gradient-17"/><linearGradient id="linear-gradient-36" x1="343.52" y1="247.05" x2="344.96" y2="249.96" gradientTransform="translate(796.16 726.9) rotate(180)" xlink:href="#linear-gradient-17"/><linearGradient id="linear-gradient-37" x1="445.73" y1="325.35" x2="447.17" y2="328.27" gradientTransform="translate(780.3 37.9) rotate(90)" xlink:href="#linear-gradient-17"/><linearGradient id="linear-gradient-38" x1="451.94" y1="325.35" x2="453.38" y2="328.27" gradientTransform="translate(784.17 36.54) rotate(90)" xlink:href="#linear-gradient-17"/><linearGradient id="linear-gradient-39" x1="343.69" y1="239.97" x2="345.13" y2="242.88" gradientTransform="translate(803.4 720.29) rotate(180)" xlink:href="#linear-gradient-17"/><linearGradient id="linear-gradient-40" x1="449.8" y1="319.57" x2="451.24" y2="322.48" gradientTransform="translate(781.57 33.39) rotate(90)" xlink:href="#linear-gradient-17"/><linearGradient id="linear-gradient-41" x1="455.09" y1="320.12" x2="456.53" y2="323.04" gradientTransform="translate(784.99 32.59) rotate(90)" xlink:href="#linear-gradient-17"/><linearGradient id="linear-gradient-42" x1="344.56" y1="232.81" x2="346" y2="235.73" gradientTransform="translate(811.38 714.29) rotate(180)" xlink:href="#linear-gradient-17"/><linearGradient id="linear-gradient-43" x1="455.15" y1="314.73" x2="456.59" y2="317.65" gradientTransform="translate(783.85 29.21) rotate(90)" xlink:href="#linear-gradient-17"/><linearGradient id="linear-gradient-44" x1="453.92" y1="309.91" x2="455.36" y2="312.82" gradientTransform="translate(782.03 26.46) rotate(90)" xlink:href="#linear-gradient-17"/><linearGradient id="linear-gradient-45" x1="85.13" y1="478.03" x2="86.57" y2="480.95" gradientTransform="matrix(-1, 0, 0, 1, 202.06, -462.92)" xlink:href="#linear-gradient-17"/><linearGradient id="linear-gradient-46" x1="357.27" y1="606.26" x2="358.71" y2="609.17" gradientTransform="matrix(0, 1, 1, 0, -73.59, 119.25)" xlink:href="#linear-gradient-17"/><linearGradient id="linear-gradient-47" x1="220.52" y1="605.54" x2="221.96" y2="608.45" gradientTransform="matrix(-1, 0, 0, 1, 753.8, -123.81)" xlink:href="#linear-gradient-17"/><linearGradient id="linear-gradient-48" x1="222.39" y1="612.46" x2="223.83" y2="615.37" gradientTransform="matrix(-1, 0, 0, 1, 759.91, -124.94)" xlink:href="#linear-gradient-17"/><linearGradient id="linear-gradient-49" x1="216.92" y1="612.05" x2="218.36" y2="614.96" gradientTransform="matrix(-1, 0, 0, 1, 757.53, -129.06)" xlink:href="#linear-gradient-17"/><linearGradient id="linear-gradient-50" x1="227.52" y1="606.04" x2="228.96" y2="608.95" gradientTransform="matrix(-1, 0, 0, 1, 756.82, -118.52)" xlink:href="#linear-gradient-17"/><linearGradient id="linear-gradient-51" x1="357.01" y1="597.89" x2="358.45" y2="600.8" gradientTransform="matrix(0, 1, 1, 0, -73.6, 119.6)" xlink:href="#linear-gradient-17"/><linearGradient id="linear-gradient-52" x1="225.81" y1="599.04" x2="227.25" y2="601.96" gradientTransform="matrix(-1, 0, 0, 1, 750.71, -117.23)" xlink:href="#linear-gradient-17"/><linearGradient id="linear-gradient-53" x1="232.81" y1="599.54" x2="234.25" y2="602.46" gradientTransform="matrix(-1, 0, 0, 1, 753.74, -111.95)" xlink:href="#linear-gradient-17"/><linearGradient id="linear-gradient-54" x1="357.53" y1="590.12" x2="358.97" y2="593.03" gradientTransform="matrix(0, 1, 1, 0, -73.57, 119.92)" xlink:href="#linear-gradient-17"/><linearGradient id="linear-gradient-55" x1="231.3" y1="593.52" x2="232.74" y2="596.44" gradientTransform="matrix(-1, 0, 0, 1, 748.46, -110.86)" xlink:href="#linear-gradient-17"/><linearGradient id="linear-gradient-56" x1="237.51" y1="593.52" x2="238.95" y2="596.44" gradientTransform="matrix(-1, 0, 0, 1, 750.8, -106.01)" xlink:href="#linear-gradient-17"/><linearGradient id="linear-gradient-57" x1="357.7" y1="583.04" x2="359.14" y2="585.95" gradientTransform="matrix(0, 1, 1, 0, -73.55, 120.21)" xlink:href="#linear-gradient-17"/><linearGradient id="linear-gradient-58" x1="235.37" y1="587.73" x2="236.81" y2="590.65" gradientTransform="matrix(-1, 0, 0, 1, 745.47, -105.5)" xlink:href="#linear-gradient-17"/><linearGradient id="linear-gradient-59" x1="240.66" y1="588.29" x2="242.1" y2="591.21" gradientTransform="matrix(-1, 0, 0, 1, 747.9, -101.59)" xlink:href="#linear-gradient-17"/><linearGradient id="linear-gradient-60" x1="358.57" y1="575.88" x2="360.01" y2="578.8" gradientTransform="matrix(0, 1, 1, 0, -73.51, 120.51)" xlink:href="#linear-gradient-17"/><linearGradient id="linear-gradient-61" x1="240.72" y1="582.9" x2="242.16" y2="585.82" gradientTransform="matrix(-1, 0, 0, 1, 743.71, -99.51)" xlink:href="#linear-gradient-17"/><linearGradient id="linear-gradient-62" x1="239.5" y1="578.07" x2="240.94" y2="580.99" gradientTransform="matrix(-1, 0, 0, 1, 739.47, -98.65)" xlink:href="#linear-gradient-17"/></defs><title>Tech2017_8</title><path class="cls-3" d="M474.2,476.93c-2.35-2.22-4.84-7-3.9-4.36s3.25,7.29,3.92,7.09S475.46,478.13,474.2,476.93Z" transform="translate(-424.51 -462.92)"/><path class="cls-4" d="M491.08,476.93c2.35-2.22,4.84-7,3.9-4.36s-3.25,7.29-3.92,7.09S489.82,478.13,491.08,476.93Z" transform="translate(-424.51 -462.92)"/><path class="cls-5" d="M501.94,490c-4-1.16-5.44-3.17-6.68-3.94s-2.1-1.93-2.9-.62-1.81.39-3.85,0.77-2.4,1.39-3.7,2.7-2.69,0-3.7-.77-1.23-.54-3.48-0.08-2.32-2.16-3.19-2.24-1.23-2-1.16-2.86-0.44.7-1.89,2.63-3,2.86-6,4.17-11,1.47-15.53,2c-0.38,0-.78.11-1.19,0.18a2.77,2.77,0,0,1-.34.28c-2,1.47-6.53,2.62-6.82,7.3s3,5.76,5,7.77,10.67,4.25,13.35,4.95,8.71,0.15,10.6-.31,3.92-2.24,3.92-3.94,1.81-6.34,2.61-5.56c1.35,1.3.62,3.33,1.49,4.8s0.35,1.12,1.15,3.91,1.06,6.91,1.93,8.68,0.73,3.17,2.25,4.1,0.8,2.16,1.74,2.55,1.67-.7,1.67-2.86,1.31-3.16,1.16-4.95c-0.94-11.48,2.1-10.74,1.89-13.37s0.87-1.85,1.45-.62a7.44,7.44,0,0,1,.87,4.41c-0.15,2.24.87,2.78,3.63,3.17s12.77,0.62,18.94-.7,12.83-10.92,12.35-15.48c-0.43-4.09-9.2-5.13-11.09-5.67S505.94,491.12,501.94,490Z" transform="translate(-424.51 -462.92)"/><path class="cls-6" d="M489,506.12c1.62,2.8,2.68,8,2.51,5.28s-1-7.91-1.75-7.91S488.12,504.62,489,506.12Z" transform="translate(-424.51 -462.92)"/><path class="cls-7" d="M479.25,506.7c-1.62,2.8-2.68,8-2.51,5.28s1-7.91,1.75-7.91S480.12,505.2,479.25,506.7Z" transform="translate(-424.51 -462.92)"/><g class="cls-8"><path class="cls-9" d="M480,487.92c-4,.79-32.91,8.37-33.84,10s-0.58,2.4,1.95,1.19,24.79-9.23,30.11-10.49S482.88,487.35,480,487.92Z" transform="translate(-424.51 -462.92)"/><path class="cls-9" d="M478.66,489.79c-6.9,2.21-26.27,8.33-25.93,10.26s1.64,1.46,3.86.11,15.51-7,21.16-9.32S482,488.7,478.66,489.79Z" transform="translate(-424.51 -462.92)"/><path class="cls-9" d="M450.81,504.53c-3.77,1.81-3.84,1.92-3.86,2.93s0.46,0.77,2,.15,12.8-6.61,24.18-11.92,12.9-6.39,10.12-5.4S453.52,503.22,450.81,504.53Z" transform="translate(-424.51 -462.92)"/><path class="cls-9" d="M459.93,504.33c-5.1,2.56-9.34,3.38-8.86,4.72s0.84,0.66,3-.37,33.71-17.82,30.33-16.63S466.86,500.85,459.93,504.33Z" transform="translate(-424.51 -462.92)"/><path class="cls-9" d="M477.71,498.69c-10.42,6.39-19.23,10.42-18.25,11.6s0.09,3.27,5.44-.58,22.43-17.29,19.37-15.53S482,496.08,477.71,498.69Z" transform="translate(-424.51 -462.92)"/></g><g class="cls-8"><path class="cls-9" d="M489.54,488.94c4,0.79,32.75,8.37,33.68,10s0.58,2.4-1.94,1.19-24.67-9.23-30-10.49S486.7,488.38,489.54,488.94Z" transform="translate(-424.51 -462.92)"/><path class="cls-9" d="M490.91,490.81c6.87,2.21,26.15,8.33,25.8,10.26s-1.64,1.46-3.84.11-15.44-7-21.06-9.32S487.54,489.73,490.91,490.81Z" transform="translate(-424.51 -462.92)"/><path class="cls-9" d="M517.18,504.53c3.75,1.81,3.82,1.92,3.84,2.93s-0.46.77-2,.15-12.74-6.61-24.06-11.92-12.84-6.39-10.07-5.4S514.48,503.22,517.18,504.53Z" transform="translate(-424.51 -462.92)"/><path class="cls-9" d="M509.54,505.36c5.08,2.56,9.3,3.38,8.82,4.72s-0.84.66-3-.37-33.55-17.82-30.18-16.63S502.65,501.88,509.54,505.36Z" transform="translate(-424.51 -462.92)"/><path class="cls-9" d="M491.82,499.49c10.26,6.2,18.92,10.15,18,11.24s0,3.07-5.31-.65-22.16-16.67-19.14-15S487.61,497,491.82,499.49Z" transform="translate(-424.51 -462.92)"/></g><path class="cls-10" d="M483.23,478c2.32-.48,3.6.16,4.79-0.88l0.46-.37c-0.29-.54-0.31-1.34-1.5-1.47-1.52-.16-8.15-0.4-9.35.72a2.33,2.33,0,0,0-.57.79c0.8,0.26,1.5.48,1.93,0.65A5.6,5.6,0,0,0,483.23,478Z" transform="translate(-424.51 -462.92)"/><path class="cls-11" d="M474.5,478.63c-0.87.14-1.21,0-2.78-.46a125.29,125.29,0,0,0-17.1-2.88c-5.83-.48-15.68-2.12-22.06-1.33-4.92.61-7.54,1.16-7.86,2.84s1.06,16.83,4.5,17.79,31.26-2,34.53-3.4,5-2.32,6.55-4.31c1.35-1.68,2-3.08,2.06-2.95a13.08,13.08,0,0,1,1.71-4.54A4.23,4.23,0,0,0,474.5,478.63Z" transform="translate(-424.51 -462.92)"/><path class="cls-12" d="M477,483.92c0.35-2.06.91-2.55,1.18-4.07a3.13,3.13,0,0,1,1.27-2.21l-0.43-.18c-0.43-.17-1.13-0.39-1.93-0.65-0.32.74-.13,1.31-1.51,1.61-0.45.1-.78,0.17-1.06,0.22a4.23,4.23,0,0,1-.44.76,13.08,13.08,0,0,0-1.71,4.54,0.4,0.4,0,0,1,0,.23c-0.08.88,0.32,2.88,1.28,3s1,2.8,3.52,2.32l0.57-.12-0.31-.88A7.83,7.83,0,0,1,477,483.92Z" transform="translate(-424.51 -462.92)"/><path class="cls-13" d="M489.17,482.56a43.66,43.66,0,0,0-2.42-4.86c-0.9.15-2,0-3.52,0.3a5.18,5.18,0,0,1-3.8-.38,3.13,3.13,0,0,0-1.27,2.21c-0.27,1.52-.83,2-1.18,4.07a7.83,7.83,0,0,0,.43,4.52l0.31,0.88c1.93-.39,2.24-0.54,3.26.2s2.64,2.16,4.07.8,1.09-.59,3.32-1c0.59-.11,1.86-1.92,2.31-1.9C490.77,485.87,490.3,485,489.17,482.56Z" transform="translate(-424.51 -462.92)"/><path class="cls-14" d="M479.9,478.39a2.91,2.91,0,0,0-1.16,2c-0.26,1.34-.76,1.83-1.07,3.64a7.37,7.37,0,0,0,.33,4.06l0.26,0.79c1.61-.27,1.92-0.36,2.83.27s2.37,1.82,3.6.75,1.16-.48,3.13-0.83c0.56-.1,1.68-1.67,2.1-1.73a4.72,4.72,0,0,0-.1-1.57,18.41,18.41,0,0,0-1.11-2.86,29.78,29.78,0,0,0-2.2-4.43,17.39,17.39,0,0,0-3.17.14A5.66,5.66,0,0,1,479.9,478.39Z" transform="translate(-424.51 -462.92)"/><path class="cls-15" d="M480.38,479.14a2.73,2.73,0,0,0-1.05,1.73c-0.26,1.17-.7,1.66-1,3.21a7,7,0,0,0,.22,3.59l0.21,0.7c1.29-.15,1.59-0.18,2.39.34s2.1,1.48,3.12.7,1.22-.38,2.93-0.66c0.53-.09,1.5-1.42,1.89-1.55a4.3,4.3,0,0,0,0-1.4,13.54,13.54,0,0,0-.89-2.6,20.24,20.24,0,0,0-2-4,10,10,0,0,0-2.82,0A7,7,0,0,1,480.38,479.14Z" transform="translate(-424.51 -462.92)"/><path class="cls-16" d="M480.85,479.9a2.57,2.57,0,0,0-.94,1.49,24,24,0,0,0-.86,2.78,6.69,6.69,0,0,0,.12,3.13c0.06,0.23.11,0.43,0.15,0.6a2.79,2.79,0,0,1,2,.41c0.8,0.48,1.83,1.14,2.64.65s1.29-.26,2.73-0.5c0.5-.08,1.32-1.17,1.69-1.38a3.93,3.93,0,0,0,.09-1.24,9.89,9.89,0,0,0-.67-2.34,14,14,0,0,0-1.76-3.56,6.22,6.22,0,0,0-2.47-.18A12.28,12.28,0,0,1,480.85,479.9Z" transform="translate(-424.51 -462.92)"/><path class="cls-17" d="M481.33,480.65a2.45,2.45,0,0,0-.83,1.24,15.36,15.36,0,0,0-.75,2.35,6.59,6.59,0,0,0,0,2.67c0,0.2.07,0.36,0.1,0.51a3.76,3.76,0,0,1,1.53.48,3.25,3.25,0,0,0,2.16.6,21.22,21.22,0,0,1,2.53-.33,5,5,0,0,0,1.48-1.2,3.67,3.67,0,0,0,.18-1.07,7.06,7.06,0,0,0-.45-2.08,9.62,9.62,0,0,0-1.55-3.13,4.1,4.1,0,0,0-2.12-.34C482.57,480.47,482,480.54,481.33,480.65Z" transform="translate(-424.51 -462.92)"/><path class="cls-18" d="M481.8,481.41a2.46,2.46,0,0,0-.72,1,9.34,9.34,0,0,0-.65,1.92,7,7,0,0,0-.09,2.2c0,0.16,0,.3,0,0.41a7.1,7.1,0,0,0,1.09.55,5.86,5.86,0,0,0,1.68.55,6.7,6.7,0,0,0,2.33-.17,2.94,2.94,0,0,0,1.27-1,3.59,3.59,0,0,0,.28-0.91,4.94,4.94,0,0,0-.23-1.82,6.48,6.48,0,0,0-1.33-2.7,2.84,2.84,0,0,0-1.77-.5A5.19,5.19,0,0,0,481.8,481.41Z" transform="translate(-424.51 -462.92)"/><path class="cls-19" d="M482.27,482.17c-1.29,1.1-1.36,3.52-1.36,4.31s1.65,0.64,1.86,1.12,1.49,0.08,2.13,0a2.42,2.42,0,0,0,1.44-1.6,4.6,4.6,0,0,0-1.12-3.84A2,2,0,0,0,482.27,482.17Z" transform="translate(-424.51 -462.92)"/><path class="cls-20" d="M477,483.92c0.35-2.06.91-2.55,1.18-4.07a3.13,3.13,0,0,1,1.27-2.21l-0.43-.18c-0.43-.17-1.13-0.39-1.93-0.65-0.32.74-.13,1.31-1.51,1.61-0.45.1-.78,0.17-1.06,0.22a4.23,4.23,0,0,1-.44.76,13.08,13.08,0,0,0-1.71,4.54,0.4,0.4,0,0,1,0,.23c-0.08.88,0.32,2.88,1.28,3s1,2.8,3.52,2.32l0.57-.12-0.31-.88A7.83,7.83,0,0,1,477,483.92Z" transform="translate(-424.51 -462.92)"/><path class="cls-21" d="M483.19,523.75a12.85,12.85,0,0,0,3.24,3.48c1,0.81.54-1.43,0.78-3.78a33.37,33.37,0,0,1-3.44.29h-0.57Z" transform="translate(-424.51 -462.92)"/><path class="cls-22" d="M484,500.48a23.16,23.16,0,0,0,5.61-.75c0.13-2.86-.48-4.08-0.09-4.61a23.78,23.78,0,0,1-5.47.71,14.55,14.55,0,0,1-6.3-.88,3.49,3.49,0,0,1,.2,1.76,8.08,8.08,0,0,0,.21,3.07A15.29,15.29,0,0,0,484,500.48Z" transform="translate(-424.51 -462.92)"/><path class="cls-23" d="M484.06,495.83a23.78,23.78,0,0,0,5.47-.71,0.58,0.58,0,0,1,.17-0.16c0.8-.47.88-5,0-5.68s-1.52-.4-3.91,1.91-4.15-.4-5.43-1a2.25,2.25,0,0,0-3.29,1.36c-0.3,1.43.33,2.38,0.69,3.44A14.55,14.55,0,0,0,484.06,495.83Z" transform="translate(-424.51 -462.92)"/><path class="cls-24" d="M481.58,519.07c0.19,0.74.46,1.18,0.86,2.81a7.12,7.12,0,0,0,.76,1.88h0.57a33.37,33.37,0,0,0,3.44-.29,8,8,0,0,1,.42-2,11.27,11.27,0,0,0,.55-2.83,28.92,28.92,0,0,1-4.36.45A21.93,21.93,0,0,1,481.58,519.07Z" transform="translate(-424.51 -462.92)"/><path class="cls-25" d="M489.62,499.73a23.16,23.16,0,0,1-5.61.75,15.29,15.29,0,0,1-5.85-.71,24.93,24.93,0,0,1,.51,3.24,13,13,0,0,0,.26,1.66,16.73,16.73,0,0,0,5,.45,25.06,25.06,0,0,0,5.21-.64c0.12-1.14.24-2.35,0.37-3.71C489.58,500.4,489.6,500.06,489.62,499.73Z" transform="translate(-424.51 -462.92)"/><path class="cls-26" d="M478.93,504.68c0.35,1.67.93,3.16,1.27,4.93a19.22,19.22,0,0,0,3.71.17,27.14,27.14,0,0,0,4.74-.53c0.18-1.54.34-3.07,0.51-4.76a25.06,25.06,0,0,1-5.21.64A16.73,16.73,0,0,1,478.93,504.68Z" transform="translate(-424.51 -462.92)"/><path class="cls-27" d="M480.92,514.36a12.73,12.73,0,0,1,.4,2.64,10.8,10.8,0,0,0,.26,2.07,21.93,21.93,0,0,0,2.24,0,28.92,28.92,0,0,0,4.36-.45c0.13-1.49.14-3.12,0.15-4.67a28.5,28.5,0,0,1-4.47.47A20.72,20.72,0,0,1,480.92,514.36Z" transform="translate(-424.51 -462.92)"/><path class="cls-28" d="M480.21,509.61a14.17,14.17,0,0,1,.23,1.64,16.45,16.45,0,0,0,.48,3.11,20.72,20.72,0,0,0,2.94.08,28.5,28.5,0,0,0,4.47-.47,31.26,31.26,0,0,1,.16-3.28c0.06-.48.11-1,0.17-1.43a27.14,27.14,0,0,1-4.74.53A19.22,19.22,0,0,1,480.21,509.61Z" transform="translate(-424.51 -462.92)"/><path class="cls-29" d="M483.19,523.75a12.85,12.85,0,0,0,3.24,3.48c1,0.81.54-1.43,0.78-3.78a33.37,33.37,0,0,1-3.44.29h-0.57Z" transform="translate(-424.51 -462.92)"/><path class="cls-30" d="M484,500.48a23.16,23.16,0,0,0,5.61-.75c0.13-2.86-.48-4.08-0.09-4.61a23.78,23.78,0,0,1-5.47.71,14.55,14.55,0,0,1-6.3-.88,3.49,3.49,0,0,1,.2,1.76,8.08,8.08,0,0,0,.21,3.07A15.29,15.29,0,0,0,484,500.48Z" transform="translate(-424.51 -462.92)"/><path class="cls-31" d="M484.06,495.83a23.78,23.78,0,0,0,5.47-.71,0.58,0.58,0,0,1,.17-0.16c0.8-.47.88-5,0-5.68s-1.52-.4-3.91,1.91-4.15-.4-5.43-1a2.25,2.25,0,0,0-3.29,1.36c-0.3,1.43.33,2.38,0.69,3.44A14.55,14.55,0,0,0,484.06,495.83Z" transform="translate(-424.51 -462.92)"/><path class="cls-32" d="M481.58,519.07c0.19,0.74.46,1.18,0.86,2.81a7.12,7.12,0,0,0,.76,1.88h0.57a33.37,33.37,0,0,0,3.44-.29,8,8,0,0,1,.42-2,11.27,11.27,0,0,0,.55-2.83,28.92,28.92,0,0,1-4.36.45A21.93,21.93,0,0,1,481.58,519.07Z" transform="translate(-424.51 -462.92)"/><path class="cls-33" d="M489.62,499.73a23.16,23.16,0,0,1-5.61.75,15.29,15.29,0,0,1-5.85-.71,24.93,24.93,0,0,1,.51,3.24,13,13,0,0,0,.26,1.66,16.73,16.73,0,0,0,5,.45,25.06,25.06,0,0,0,5.21-.64c0.12-1.14.24-2.35,0.37-3.71C489.58,500.4,489.6,500.06,489.62,499.73Z" transform="translate(-424.51 -462.92)"/><path class="cls-34" d="M478.93,504.68c0.35,1.67.93,3.16,1.27,4.93a19.22,19.22,0,0,0,3.71.17,27.14,27.14,0,0,0,4.74-.53c0.18-1.54.34-3.07,0.51-4.76a25.06,25.06,0,0,1-5.21.64A16.73,16.73,0,0,1,478.93,504.68Z" transform="translate(-424.51 -462.92)"/><path class="cls-35" d="M480.92,514.36a12.73,12.73,0,0,1,.4,2.64,10.8,10.8,0,0,0,.26,2.07,21.93,21.93,0,0,0,2.24,0,28.92,28.92,0,0,0,4.36-.45c0.13-1.49.14-3.12,0.15-4.67a28.5,28.5,0,0,1-4.47.47A20.72,20.72,0,0,1,480.92,514.36Z" transform="translate(-424.51 -462.92)"/><path class="cls-36" d="M480.21,509.61a14.17,14.17,0,0,1,.23,1.64,16.45,16.45,0,0,0,.48,3.11,20.72,20.72,0,0,0,2.94.08,28.5,28.5,0,0,0,4.47-.47,31.26,31.26,0,0,1,.16-3.28c0.06-.48.11-1,0.17-1.43a27.14,27.14,0,0,1-4.74.53A19.22,19.22,0,0,1,480.21,509.61Z" transform="translate(-424.51 -462.92)"/><path class="cls-37" d="M480.21,472.74a10.61,10.61,0,0,1-4.46-1.08c-2.52-1.08-7.25-2.46-15.16-3.6s-9.59-1.26-12.46-3.24-4.43-2.16-3.48-1.56,3.89,3.24,5.81,3.78a92.06,92.06,0,0,0,10.85,1.68,51.21,51.21,0,0,1,12.28,2.88c4,1.44,6,1.56,5.35,2.22s-1.81,2.17-.77,1.9a23.81,23.81,0,0,1,5.4-.56c1.95,0,3.65,0,4,.3s-0.3-.68-1.16-1.4-0.5-1.26.69-1.8a25.15,25.15,0,0,1,10.37-1.92c5,0.18,15,2,17.2,1.56s1.08-.9-0.42-0.78,0,0.24-9.35-.6-10-1.44-14.92.3-5.4,1.86-5.67,1,0.3-2.46-.28-1.92S482.46,473,480.21,472.74Z" transform="translate(-424.51 -462.92)"/><path class="cls-38" d="M491.62,478.63c0.87,0.14,1.21,0,2.78-.46a125.29,125.29,0,0,1,17.1-2.88c5.83-.48,20-3,24.69-1.44s8.15,2.08,8.47,3.76-1.2,12.78-2.88,13-2.16.56-5.59,1.52-16.28,1.17-16.7,1.12c-5-.56-13.82-0.72-17.1-2.08s-5-2.32-6.55-4.31c-1.35-1.68-2-3.08-2.06-2.95a13.08,13.08,0,0,0-1.71-4.54A4.23,4.23,0,0,1,491.62,478.63Z" transform="translate(-424.51 -462.92)"/><path class="cls-39" d="M489.14,483.92c-0.35-2.06-.91-2.55-1.18-4.07a3.13,3.13,0,0,0-1.27-2.21l0.43-.18c0.43-.17,1.13-0.39,1.93-0.65,0.32,0.74.13,1.31,1.51,1.61,0.45,0.1.78,0.17,1.06,0.22a4.23,4.23,0,0,0,.44.76,13.08,13.08,0,0,1,1.71,4.54,0.4,0.4,0,0,0,0,.23c0.08,0.88-.32,2.88-1.28,3s-1,2.8-3.52,2.32l-0.57-.12,0.31-.88A7.83,7.83,0,0,0,489.14,483.92Z" transform="translate(-424.51 -462.92)"/><path class="cls-40" d="M489.14,483.92c-0.35-2.06-.91-2.55-1.18-4.07a3.13,3.13,0,0,0-1.27-2.21l0.43-.18c0.43-.17,1.13-0.39,1.93-0.65,0.32,0.74.13,1.31,1.51,1.61,0.45,0.1.78,0.17,1.06,0.22a4.23,4.23,0,0,0,.44.76,13.08,13.08,0,0,1,1.71,4.54,0.4,0.4,0,0,0,0,.23c0.08,0.88-.32,2.88-1.28,3s-1,2.8-3.52,2.32l-0.57-.12,0.31-.88A7.83,7.83,0,0,0,489.14,483.92Z" transform="translate(-424.51 -462.92)"/><g class="cls-8"><path class="cls-9" d="M467.28,479.22c-4-.73-33.68-4.33-35.15-3.15s-1.43,2,1.38,1.82,26.45,0.54,31.86,1.33S470.14,479.75,467.28,479.22Z" transform="translate(-424.51 -462.92)"/><path class="cls-9" d="M465.31,480.45c-7.23-.49-27.5-1.92-27.88,0s1,2,3.55,1.52,17-.84,23.11-0.88S468.86,480.69,465.31,480.45Z" transform="translate(-424.51 -462.92)"/><path class="cls-9" d="M434,483.92c-4.17.3-4.28,0.37-4.67,1.31s0.14,0.88,1.84.88,14.33-1.43,26.87-2.19,14.35-1.2,11.4-1.3S437,483.7,434,483.92Z" transform="translate(-424.51 -462.92)"/><path class="cls-9" d="M442.55,487.09c-5.69.51-9.93-.29-10,1.13s0.54,0.92,2.9.75,37.91-4.17,34.32-4.31S450.27,486.4,442.55,487.09Z" transform="translate(-424.51 -462.92)"/><path class="cls-9" d="M464,487.14c-7.79,1.22-14,1.51-13.73,2.35s-0.72,1.78,3.41.84,17.6-4.52,15.34-4.23S467.22,486.64,464,487.14Z" transform="translate(-424.51 -462.92)"/></g><g class="cls-8"><path class="cls-9" d="M499.79,479.22c4-.73,33.68-4.33,35.15-3.15s1.43,2-1.38,1.82-26.45.54-31.86,1.33S496.94,479.75,499.79,479.22Z" transform="translate(-424.51 -462.92)"/><path class="cls-9" d="M501.76,480.45c7.23-.49,27.5-1.92,27.88,0s-1,2-3.55,1.52-17-.84-23.11-0.88S498.22,480.69,501.76,480.45Z" transform="translate(-424.51 -462.92)"/><path class="cls-9" d="M533.07,483.92c4.17,0.3,4.28.37,4.67,1.31s-0.14.88-1.84,0.88-14.33-1.43-26.87-2.19-14.35-1.2-11.4-1.3S530.07,483.7,533.07,483.92Z" transform="translate(-424.51 -462.92)"/><path class="cls-9" d="M524.52,487.09c5.69,0.51,9.93-.29,10,1.13s-0.54.92-2.9,0.75-37.91-4.17-34.32-4.31S516.8,486.4,524.52,487.09Z" transform="translate(-424.51 -462.92)"/><path class="cls-9" d="M503,487.14c7.79,1.22,14,1.51,13.73,2.35s0.72,1.78-3.41.84-17.6-4.52-15.34-4.23S499.85,486.64,503,487.14Z" transform="translate(-424.51 -462.92)"/></g><g class="cls-8"><circle class="cls-41" cx="4.69" cy="16.8" r="1.63"/><circle class="cls-42" cx="435.8" cy="477.47" r="1.63" transform="translate(-483.84 430.18) rotate(-87.62)"/><circle class="cls-43" cx="437.37" cy="483.41" r="1.63" transform="translate(-630.56 -84.34) rotate(-38.61)"/><circle class="cls-44" cx="433.13" cy="489.2" r="1.63" transform="translate(-635.1 -85.73) rotate(-38.61)"/><circle class="cls-45" cx="430.04" cy="484.67" r="1.63" transform="translate(-632.95 -88.65) rotate(-38.61)"/><circle class="cls-46" cx="441.34" cy="489.2" r="1.63" transform="translate(-633.3 -80.6) rotate(-38.61)"/><circle class="cls-47" cx="444.18" cy="477.55" r="1.63" transform="translate(-475.89 438.62) rotate(-87.62)"/><circle class="cls-48" cx="445.74" cy="483.5" r="1.63" transform="matrix(0.78, -0.62, 0.62, 0.78, -628.78, -79.1)"/><circle class="cls-49" cx="449.72" cy="489.28" r="1.63" transform="translate(-631.52 -75.36) rotate(-38.61)"/><circle class="cls-50" cx="451.92" cy="478.4" r="1.63" transform="translate(-469.32 447.17) rotate(-87.62)"/><circle class="cls-51" cx="453.48" cy="484.34" r="1.63" transform="translate(-627.62 -74.09) rotate(-38.61)"/><circle class="cls-52" cx="457.36" cy="489.2" r="1.63" transform="translate(-629.8 -70.61) rotate(-38.61)"/><circle class="cls-53" cx="458.99" cy="478.86" r="1.63" transform="translate(-463.01 454.68) rotate(-87.62)"/><circle class="cls-54" cx="460.55" cy="483.92" r="1.63" transform="translate(-625.81 -69.77) rotate(-38.61)"/><circle class="cls-55" cx="463.41" cy="488.39" r="1.63" transform="translate(-627.98 -67.01) rotate(-38.61)"/><circle class="cls-56" cx="466.1" cy="480.02" r="1.63" transform="translate(-457.35 462.9) rotate(-87.62)"/><circle class="cls-57" cx="467.66" cy="485.08" r="1.63" transform="translate(-624.98 -65.08) rotate(-38.61)"/><circle class="cls-58" cx="470.67" cy="481.11" r="1.63" transform="translate(-621.84 -64.07) rotate(-38.61)"/></g><g class="cls-8"><circle class="cls-59" cx="116.21" cy="16.58" r="1.63"/><circle class="cls-60" cx="534.12" cy="477.24" r="1.63" transform="translate(-443.84 -440.35) rotate(-2.38)"/><circle class="cls-61" cx="532.56" cy="483.19" r="1.63" transform="translate(-601.84 134.93) rotate(-51.39)"/><circle class="cls-62" cx="536.8" cy="488.97" r="1.63" transform="translate(-604.77 140.41) rotate(-51.39)"/><circle class="cls-63" cx="539.89" cy="484.44" r="1.63" transform="translate(-600.06 141.13) rotate(-51.39)"/><circle class="cls-64" cx="528.58" cy="488.97" r="1.63" transform="matrix(0.62, -0.78, 0.78, 0.62, -607.86, 133.99)"/><circle class="cls-65" cx="525.75" cy="477.32" r="1.63" transform="translate(-443.85 -440.7) rotate(-2.38)"/><circle class="cls-66" cx="524.19" cy="483.27" r="1.63" transform="translate(-605.05 128.41) rotate(-51.39)"/><circle class="cls-67" cx="520.21" cy="489.05" r="1.63" transform="translate(-611.07 127.48) rotate(-51.39)"/><circle class="cls-68" cx="518.01" cy="478.17" r="1.63" transform="translate(-443.9 -441.02) rotate(-2.38)"/><circle class="cls-69" cx="516.45" cy="484.12" r="1.63" transform="translate(-608.63 122.68) rotate(-51.39)"/><circle class="cls-70" cx="512.57" cy="488.97" r="1.63" transform="translate(-613.88 121.48) rotate(-51.39)"/><circle class="cls-71" cx="510.94" cy="478.64" r="1.63" transform="translate(-443.92 -441.31) rotate(-2.38)"/><circle class="cls-72" cx="509.38" cy="483.69" r="1.63" transform="translate(-610.95 117) rotate(-51.39)"/><circle class="cls-73" cx="506.52" cy="488.17" r="1.63" transform="matrix(0.62, -0.78, 0.78, 0.62, -615.52, 116.45)"/><circle class="cls-74" cx="503.82" cy="479.8" r="1.63" transform="matrix(1, -0.04, 0.04, 1, -443.98, -441.61)"/><circle class="cls-75" cx="502.26" cy="484.85" r="1.63" transform="translate(-614.53 111.88) rotate(-51.39)"/><circle class="cls-76" cx="499.26" cy="480.88" r="1.63" transform="matrix(0.62, -0.78, 0.78, 0.62, -612.56, 108.04)"/></g></svg>