<svg id="Background" xmlns="http://www.w3.org/2000/svg" xmlns:xlink="http://www.w3.org/1999/xlink" viewBox="0 0 134.95 97.2"><defs><style>.cls-1{fill:#fff;}.cls-2{fill:url(#linear-gradient);}.cls-12,.cls-14,.cls-3,.cls-7,.cls-8,.cls-9{fill:none;}.cls-14,.cls-3,.cls-7,.cls-8{stroke:#e6a1b7;}.cls-11,.cls-12,.cls-13,.cls-14,.cls-3{stroke-miterlimit:10;}.cls-3,.cls-7,.cls-8,.cls-9{stroke-width:0.3px;}.cls-4{fill:#e6a1b7;}.cls-5{fill:#eec9d0;}.cls-6{fill:url(#linear-gradient-3);}.cls-7,.cls-8,.cls-9{stroke-linecap:round;stroke-linejoin:round;}.cls-8{stroke-dasharray:0 0.58;}.cls-9{stroke:#dc7a9c;}.cls-10{fill:#d04e84;}.cls-11{fill:#ecb7c5;}.cls-11,.cls-12,.cls-13{stroke:#d04e84;stroke-width:0.2px;}.cls-13{fill:#fcdfeb;}.cls-14{stroke-width:0.1px;}</style><linearGradient id="linear-gradient" x1="76.82" y1="64.76" x2="52.09" y2="45" gradientUnits="userSpaceOnUse"><stop offset="0" stop-color="#fff"/><stop offset="1" stop-color="#fcdfeb"/></linearGradient><linearGradient id="linear-gradient-3" x1="70.98" y1="30.51" x2="70.55" y2="24.7" gradientUnits="userSpaceOnUse"><stop offset="0" stop-color="#ecb7c5" stop-opacity="0"/><stop offset="1" stop-color="#ecb7c5"/></linearGradient></defs><title>Tech2017_4</title><rect id="top" class="cls-1" y="-49.77" width="510.24" height="518.6"/><path class="cls-2" d="M92.15,93.87s-37.53.68-37.57,0.8,0.25-6.42.25-6.42a71.71,71.71,0,0,1-8.62-1c-3.15-.7-6.5-2.36-7.5-2.4s-1.74-.41-2-4a25.28,25.28,0,0,1,1.37-10c1-3,3.31-7.71,4.64-11.06s2.07-8.33,4-11.6,4.93-4,7.83-4.64a32.93,32.93,0,0,0,8.62-3.6A1.37,1.37,0,0,0,63.23,38c-0.41-.7-0.12-1.33-0.62-1.74s-2.32.17-4,0-2-1.24-2.11-2.44,0.62-1.49,0-2.11,0.08-.5-0.08-0.91-1-.7-0.46-1.45,0.12-.83-1-1.74-0.58-1.28.58-2.94,1.33-1.78,1.28-2.82S56.19,17,60.5,13.44s10.23-2.94,13.38-1.53a9.5,9.5,0,0,1,5.84,7.75c0.58,3.89-.87,6.34-2.4,8.82s-0.83,3.6-.41,6.79,1,4.18,2.65,5.3a10.76,10.76,0,0,0,5.55,2,19.29,19.29,0,0,1,7,2.24v49ZM51.59,66.71a55.87,55.87,0,0,1-2,6.5c-0.91,2.07-1.78,3-1.37,3.69s4.52,1.78,5.55,2.28,1.41,0.79,1.49,0a68.87,68.87,0,0,0-.5-7c-0.25-2.2-.75-5.68-1-7.79s-0.29-2.28-.54-1.62S52,65.49,51.59,66.71Z"/><path class="cls-2" d="M92.15,93.87s-37.53.68-37.57,0.8,0.25-6.42.25-6.42a71.71,71.71,0,0,1-8.62-1c-3.15-.7-6.5-2.36-7.5-2.4s-1.74-.41-2-4a25.28,25.28,0,0,1,1.37-10c1-3,3.31-7.71,4.64-11.06s2.07-8.33,4-11.6,4.93-4,7.83-4.64a32.93,32.93,0,0,0,8.62-3.6A1.37,1.37,0,0,0,63.23,38c-0.41-.7-0.12-1.33-0.62-1.74s-2.32.17-4,0-2-1.24-2.11-2.44,0.62-1.49,0-2.11,0.08-.5-0.08-0.91-1-.7-0.46-1.45,0.12-.83-1-1.74-0.58-1.28.58-2.94,1.33-1.78,1.28-2.82S56.19,17,60.5,13.44s10.23-2.94,13.38-1.53a9.5,9.5,0,0,1,5.84,7.75c0.58,3.89-.87,6.34-2.4,8.82s-0.83,3.6-.41,6.79,1,4.18,2.65,5.3a10.76,10.76,0,0,0,5.55,2,19.29,19.29,0,0,1,7,2.24v49ZM51.59,66.71a55.87,55.87,0,0,1-2,6.5c-0.91,2.07-1.78,3-1.37,3.69s4.52,1.78,5.55,2.28,1.41,0.79,1.49,0a68.87,68.87,0,0,0-.5-7c-0.25-2.2-.75-5.68-1-7.79s-0.29-2.28-.54-1.62S52,65.49,51.59,66.71Z"/><path class="cls-3" d="M54.57,94.72c0,0.12.25-6.42,0.25-6.42a71.71,71.71,0,0,1-8.62-1c-3.15-.7-6.5-2.36-7.5-2.4s-1.74-.41-2-4a25.28,25.28,0,0,1,1.37-10c1-3,3.31-7.71,4.64-11.06s2.07-8.33,4-11.6,4.93-4,7.83-4.64A32.93,32.93,0,0,0,63.15,40,1.37,1.37,0,0,0,63.23,38c-0.41-.7-0.12-1.33-0.62-1.74s-2.32.17-4,0-2-1.24-2.11-2.44,0.62-1.49,0-2.11,0.08-.5-0.08-0.91-1-.7-0.46-1.45,0.12-.83-1-1.74-0.58-1.28.58-2.94,1.33-1.78,1.28-2.82-0.62-4.72,3.69-8.33S70.73,10.55,73.88,12a9.5,9.5,0,0,1,5.84,7.75c0.58,3.89-.87,6.34-2.4,8.82s-0.83,3.6-.41,6.79,1,4.18,2.65,5.3a10.76,10.76,0,0,0,5.55,2,19.29,19.29,0,0,1,7,2.24M51.59,66.76a55.87,55.87,0,0,1-2,6.5c-0.91,2.07-1.78,3-1.37,3.69s4.52,1.78,5.55,2.28,1.41,0.79,1.49,0a68.87,68.87,0,0,0-.5-7c-0.25-2.2-.75-5.68-1-7.79s-0.29-2.28-.54-1.62S52,65.53,51.59,66.76Z"/><path class="cls-3" d="M55.25,79.72a14.34,14.34,0,0,0,5.25.71c3,0.08,4.39,1.16,7.71,1.45s6.17-.47,8.37-0.44,1.91,0.65,5.34,1.11a23.84,23.84,0,0,1,6.88,2,0.74,0.74,0,0,1,0,1.41,2.83,2.83,0,0,1-1.86.37c-1.24-.17-1.12.66-2.82,0.83s-5.47-.83-6.63-0.25-2.65.5-4.93,1.2a9.64,9.64,0,0,1-5.5.17c-1.09-.37-2.45,0-4.28-0.12a59.09,59.09,0,0,0-7.79.17"/><path class="cls-3" d="M77.17,84.29c1-.08,3.42.81,5.25,0.9s2.92,0.22,3.17.57a1.3,1.3,0,0,1-.27,1.09"/><path class="cls-3" d="M78,82.76c1,0.68,2.39.7,3.95,0.93s2.71,0.51,3.75.71,2.87,0.4,2.79,1.07a1,1,0,0,1-.35.8"/><path class="cls-3" d="M69.79,88.69a3.34,3.34,0,0,0,1.51.67,35,35,0,0,1,3.82.79,8.72,8.72,0,0,0,2.84.64c1.77,0.25,2.64.47,2.59-.61A1.45,1.45,0,0,0,79,88.62a4,4,0,0,1-2.21-.69A4.16,4.16,0,0,0,76,87.39"/><path class="cls-4" d="M71.14,24.44a15.17,15.17,0,0,0,1.82,1,3.18,3.18,0,0,0,2.38-.48,5.56,5.56,0,0,0,1.51-1.86,1.41,1.41,0,0,0,.08-1.14c-0.17-.35-0.76-0.23-1.57,0-1.71.48-1.62,1.22-2.37,1.26a12.62,12.62,0,0,0-2.25.44C70,23.8,70.25,24.07,71.14,24.44Z"/><path class="cls-5" d="M63.36,22.14c0.51,0,.65-0.14.78,0.23a2.46,2.46,0,0,0,.34,1.26,1.68,1.68,0,0,0,1.34.62c0.45,0.11.39,0.16,1.09,0.37s1.17-.3,1.93-0.26a2.87,2.87,0,0,0,1.83-.5,3.39,3.39,0,0,1,2-.65c0.75,0,1.06-.54,1.83-0.81s1.27-.92,1.79-0.79a1.77,1.77,0,0,0,1.69,0,1.25,1.25,0,0,0,.71-1.15,2.81,2.81,0,0,0,.11-1.57c-0.19-.57-0.4-0.57-0.61-1.27s-0.23-1.18-.95-1.35-0.09-.78-0.93-1.38a2,2,0,0,1-1-1.17,1.77,1.77,0,0,0-1.69-1c-0.73,0-.16-0.19-0.95-0.36A7.15,7.15,0,0,1,70.82,12a2.84,2.84,0,0,0-1.41-.2c-0.89-.09-0.71,0-1.85,0A12,12,0,0,0,65,12.2a4,4,0,0,0-2.14.71,7.38,7.38,0,0,1-1.18.78,3.21,3.21,0,0,0-1.63,1.49c-0.37.78-1,1.21-.95,2.17s-0.12,1.21,0,1.8a1.92,1.92,0,0,0,.52,1,2.07,2.07,0,0,0,1.29,1.24,1.94,1.94,0,0,1,1.27.33A1.33,1.33,0,0,0,63.36,22.14Z"/><path class="cls-3" d="M63.36,22.14c0.51,0,.65-0.14.78,0.23a2.46,2.46,0,0,0,.34,1.26,1.68,1.68,0,0,0,1.34.62c0.45,0.11.39,0.16,1.09,0.37s1.17-.3,1.93-0.26a2.87,2.87,0,0,0,1.83-.5,3.39,3.39,0,0,1,2-.65c0.75,0,1.06-.54,1.83-0.81s1.27-.92,1.79-0.79a1.77,1.77,0,0,0,1.69,0,1.25,1.25,0,0,0,.71-1.15,2.81,2.81,0,0,0,.11-1.57c-0.19-.57-0.4-0.57-0.61-1.27s-0.23-1.18-.95-1.35-0.09-.78-0.93-1.38a2,2,0,0,1-1-1.17,1.77,1.77,0,0,0-1.69-1c-0.73,0-.16-0.19-0.95-0.36A7.15,7.15,0,0,1,70.82,12a2.84,2.84,0,0,0-1.41-.2c-0.89-.09-0.71,0-1.85,0A12,12,0,0,0,65,12.2a4,4,0,0,0-2.14.71,7.38,7.38,0,0,1-1.18.78,3.21,3.21,0,0,0-1.63,1.49c-0.37.78-1,1.21-.95,2.17s-0.12,1.21,0,1.8a1.92,1.92,0,0,0,.52,1,2.07,2.07,0,0,0,1.29,1.24,1.94,1.94,0,0,1,1.27.33A1.33,1.33,0,0,0,63.36,22.14Z"/><path class="cls-6" d="M70.61,30.81A3.52,3.52,0,0,0,70.69,30a5.29,5.29,0,0,0-.57-2.07,8,8,0,0,1-.62-1.85A1.09,1.09,0,0,0,69,25a1.09,1.09,0,0,1-.25-1.21c0.12-.56,1.36-0.65,2-0.7a1.32,1.32,0,0,1,1.56.84,3.64,3.64,0,0,1,0,2.27,7.69,7.69,0,0,0-.51,2.59,13.22,13.22,0,0,1,.09,1.76,5.87,5.87,0,0,1-.08,1H70.54A0.92,0.92,0,0,1,70.61,30.81Z"/><path class="cls-3" d="M70.61,30.81A3.52,3.52,0,0,0,70.69,30a5.29,5.29,0,0,0-.57-2.07,8,8,0,0,1-.62-1.85A1.09,1.09,0,0,0,69,25a1.09,1.09,0,0,1-.25-1.21c0.12-.56,1.36-0.65,2-0.7a1.32,1.32,0,0,1,1.56.84,3.64,3.64,0,0,1,0,2.27,7.69,7.69,0,0,0-.51,2.59,13.22,13.22,0,0,1,.09,1.76,5.87,5.87,0,0,1-.08,1"/><path class="cls-3" d="M71.73,17.09a2.24,2.24,0,0,1-1.43,1.14,9.86,9.86,0,0,1-1.8.91A4.63,4.63,0,0,0,66,20.42a13.19,13.19,0,0,1-1.3,1.43c-0.31.34-.51,0.53-0.51,0.53"/><line class="cls-7" x1="69.93" y1="12.12" x2="69.93" y2="12.12"/><path class="cls-8" d="M69.83,12.69c0,0.24-.09.57-0.14,1-0.16,1.21-.49,1.06-0.71,1.8s-0.21,2.29-.39,3.14"/><line class="cls-7" x1="68.5" y1="18.92" x2="68.5" y2="18.92"/><path class="cls-9" d="M66,11.56a11,11,0,0,0,.31,2.38,2.89,2.89,0,0,0,1.24,1.76"/><path class="cls-9" d="M68.24,13.92a1.47,1.47,0,0,1-.68-2c0.64-1.28,2.57-.72,3-0.52a0.87,0.87,0,0,0,.89.12"/><path class="cls-10" d="M68.21,16.23a2.33,2.33,0,0,0,.17-0.66,2.32,2.32,0,0,0-.68-0.17,0.54,0.54,0,0,0-.19.59A1.67,1.67,0,0,0,68.21,16.23Z"/><path class="cls-10" d="M68.9,14.69a2.33,2.33,0,0,0,.3-0.6,2.32,2.32,0,0,0-.63-0.31,0.54,0.54,0,0,0-.31.54A1.67,1.67,0,0,0,68.9,14.69Z"/><rect class="cls-11" x="65.38" y="10.7" width="0.95" height="1.01" rx="0.18" ry="0.18" transform="matrix(0.99, -0.15, 0.15, 0.99, -0.94, 10.29)"/><rect class="cls-11" x="64.21" y="10.38" width="3.08" height="0.34" rx="0.17" ry="0.17" transform="translate(-0.84 10.27) rotate(-8.87)"/><rect class="cls-11" x="63.88" y="6.45" width="3.08" height="3.95" rx="0.61" ry="0.61" transform="translate(-0.52 10.19) rotate(-8.87)"/><rect class="cls-11" x="71.1" y="10.58" width="0.95" height="0.94" rx="0.17" ry="0.17" transform="translate(4.38 -15.97) rotate(13.13)"/><rect class="cls-11" x="70.17" y="10.28" width="3.08" height="0.31" rx="0.16" ry="0.16" transform="translate(4.25 -16.02) rotate(13.13)"/><rect class="cls-11" x="70.63" y="6.65" width="3.08" height="3.68" rx="0.59" ry="0.59" transform="translate(3.82 -16.17) rotate(13.13)"/><path class="cls-12" d="M35.66,40.64s8-.06,11.9-6.31S49.49,20.73,51.23,15,56.42,3,64.14,2.89s8.44,1.93,8.5,2.52a2.51,2.51,0,0,1-.19,1.15"/><path class="cls-12" d="M35.66,42.16a22.14,22.14,0,0,0,8.48-2.31c3.56-2.05,6.45-4.75,7.33-9.72a91,91,0,0,0,.9-12.79,15.52,15.52,0,0,1,4.8-9.51c3-2.61,4.85-3.12,6.12-3A1.56,1.56,0,0,1,65,6.42"/><path class="cls-12" d="M19.73,59a2.49,2.49,0,0,1-2.2-1.53c-1-1.66-.54-2.36,1.1-5.55S21.22,46.67,23,44.6a6,6,0,0,1,4.72-2.43,9.33,9.33,0,0,1,2.24,0"/><path class="cls-12" d="M38.71,58.85s3.23-.33,1.82,2.44-3,4.06-3.11,9,3.44,7.66,5.43,9.61,5.14,4.23,8,4.85,4.64-.37,5.05-1a4,4,0,0,0,.5-1.66"/><path class="cls-12" d="M38.66,58.52s3.36,0,2.94,2.28S38.3,65.59,39,71.07s6.62,9.81,9.13,11.39,4.79,1.7,5.37.5a2.53,2.53,0,0,0,.46-1.52"/><path class="cls-12" d="M47.89,58.71a1.54,1.54,0,0,1-1.1,1.58,2.32,2.32,0,0,1-2.3-.17,3.47,3.47,0,0,0-1.93-1.21c-1.2-.2-3.89-0.28-3.89-0.28"/><path class="cls-13" d="M34.12,44H31.33a1.55,1.55,0,0,1-1.54-1.54V33.95a1.55,1.55,0,0,1,1.54-1.54h2.79a1.55,1.55,0,0,1,1.54,1.54v8.48A1.55,1.55,0,0,1,34.12,44Zm0.55-9.9H31v0.65h3.7V34.07Zm0,1.18H31V35.9h3.7V35.25Zm-1.34,4.69H32.4v0.93h0.93V39.94Zm0,1.57H32.4v0.93h0.93V41.51Z"/><rect class="cls-12" x="21.68" y="53.13" width="15.13" height="8.02" rx="0.92" ry="0.92"/><rect class="cls-12" x="23.17" y="53.94" width="12.21" height="6.56"/><rect class="cls-10" x="21.33" y="54.56" width="0.35" height="2.08"/><rect class="cls-10" x="21.33" y="57.32" width="0.35" height="2.99"/><rect class="cls-10" x="21.33" y="57.44" width="0.35" height="2.74"/><rect class="cls-10" x="19.75" y="57.44" width="1.58" height="2.74" transform="translate(41.09 117.62) rotate(180)"/><rect class="cls-10" x="36.81" y="54.56" width="0.35" height="2.08" transform="translate(73.97 111.2) rotate(-180)"/><rect class="cls-10" x="36.81" y="57.32" width="0.35" height="2.99" transform="translate(73.97 117.62) rotate(-180)"/><rect class="cls-10" x="36.81" y="57.44" width="0.35" height="2.74" transform="translate(73.97 117.62) rotate(-180)"/><rect class="cls-10" x="37.16" y="57.44" width="1.58" height="2.74"/><rect class="cls-10" x="45.85" y="58.32" width="4.08" height="1.03" transform="translate(18.5 -11.1) rotate(16.35)"/><rect class="cls-10" x="52.32" y="81.22" width="2.97" height="1.03" transform="translate(145.54 47.66) rotate(102.98)"/><rect class="cls-10" x="54.95" y="81.82" width="2.97" height="1.03" transform="translate(149.35 45.84) rotate(102.98)"/><path class="cls-14" d="M52.09,46.32a4.23,4.23,0,0,0-3.5,2.44c-1,2.44-.08,2.13-0.87,4.83s-1.15,4.33-1.15,4.33"/><circle class="cls-4" cx="52.06" cy="46.33" r="0.38" transform="translate(-3.95 4.87) rotate(-5.15)"/><path class="cls-14" d="M49.72,48.15a3.43,3.43,0,0,0-1,1.84c-0.27,1.42-.13,1.67-0.49,3.13S46.93,58,46.93,58"/><circle class="cls-4" cx="49.71" cy="48.18" r="0.38" transform="translate(-19.44 45.07) rotate(-41.53)"/><path class="cls-14" d="M49.68,50.36c-0.16.47-.44,1.36-0.67,2.17-0.33,1.16-1.74,5.6-1.74,5.6"/><circle class="cls-4" cx="49.68" cy="50.38" r="0.38" transform="translate(-13.24 82.74) rotate(-72.62)"/><path class="cls-14" d="M51.52,48.37a53.58,53.58,0,0,0-2.37,5.4c-0.4,1.42-1.4,4.48-1.4,4.48"/><circle class="cls-4" cx="51.52" cy="48.4" r="0.38" transform="translate(-14.37 73.98) rotate(-64.44)"/><path class="cls-14" d="M54.11,47.44a9.92,9.92,0,0,0-2.73,3.18,40.38,40.38,0,0,0-2.62,5.75c-0.43,1.44-.64,2-0.64,2"/><circle class="cls-4" cx="54.09" cy="47.46" r="0.38" transform="translate(-17.54 40.58) rotate(-35.78)"/><path class="cls-14" d="M64.5,52.91a15.22,15.22,0,0,0-7.14-2.1c-3.66.09-5.88,0.91-7.26,3.81a20.29,20.29,0,0,0-1.57,3.87"/><circle class="cls-4" cx="64.48" cy="52.9" r="0.38" transform="matrix(0.5, -0.87, 0.87, 0.5, -13.43, 82.68)"/><path class="cls-14" d="M59.31,54.57a9.27,9.27,0,0,0-3.82-1.16c-2.42-.18-4.13.34-4.88,1.4a21.18,21.18,0,0,0-1.67,3.79"/><circle class="cls-4" cx="59.29" cy="54.56" r="0.38" transform="translate(-18.1 77) rotate(-58.79)"/><path class="cls-14" d="M51.25,62.61a9,9,0,0,0,1.08-2.72c0.54-2.19.56-2.82,0-3.37a1.39,1.39,0,0,0-2.23.37,6.49,6.49,0,0,0-.77,1.84"/><circle class="cls-4" cx="51.25" cy="62.59" r="0.38" transform="translate(-29.39 68.93) rotate(-55.19)"/><path class="cls-14" d="M49.77,65.68c-0.69,1.42-3.45,7.19-3.78,8.66-0.37,1.68.09,3.15,2.19,4.41a18.8,18.8,0,0,0,5.36,1.83"/><circle class="cls-4" cx="49.76" cy="65.7" r="0.38" transform="translate(-30.9 82.6) rotate(-64.69)"/><path class="cls-14" d="M44,64.46a25.19,25.19,0,0,0-.51,5.62c0.06,3.51.51,6.46,2.63,8a16.57,16.57,0,0,0,7.27,3.2"/><circle class="cls-4" cx="44" cy="64.48" r="0.38" transform="translate(-27.6 95.59) rotate(-79.18)"/><path class="cls-14" d="M41.8,66.19c0.16,1.17.67,5,1,7.28a7.6,7.6,0,0,0,3.4,5.67,16.2,16.2,0,0,0,7,2.79"/><circle class="cls-4" cx="41.8" cy="66.21" r="0.38" transform="translate(-8.69 6.36) rotate(-7.88)"/><path class="cls-14" d="M41.15,69.11c0.16,1.38.86,6.46,2.85,8.72a13.64,13.64,0,0,0,9.11,4.6"/><circle class="cls-4" cx="41.16" cy="69.13" r="0.38" transform="translate(-7.95 5.4) rotate(-6.85)"/><path class="cls-14" d="M54.34,87a12.86,12.86,0,0,1,.19-3c0.33-1.7-.38-1.52-0.38-1.52"/><circle class="cls-4" cx="54.35" cy="87.02" r="0.38" transform="translate(-3.45 2.25) rotate(-2.3)"/><path class="cls-14" d="M55.39,86.06a3.74,3.74,0,0,1-.16-0.92,14.61,14.61,0,0,0-.07-2.54A1.29,1.29,0,0,0,54.28,82"/><circle class="cls-4" cx="55.38" cy="86.04" r="0.38" transform="translate(-28.57 27.54) rotate(-22.36)"/><path class="cls-14" d="M62.32,81.57a5.11,5.11,0,0,0-2.5-.86,36,36,0,0,0-3.72-.42,2.14,2.14,0,0,0-1,.33,0.91,0.91,0,0,1-.52,0"/><circle class="cls-4" cx="62.29" cy="81.57" r="0.38" transform="translate(-40.19 75.94) rotate(-49.49)"/><path class="cls-14" d="M60.56,81.35A3.68,3.68,0,0,0,59,80.9a15,15,0,0,0-3.17-.29,5.8,5.8,0,0,0-.64.74,0.85,0.85,0,0,1-.73-0.05"/><circle class="cls-4" cx="60.54" cy="81.34" r="0.38" transform="translate(-40.47 72.41) rotate(-48.29)"/><path class="cls-14" d="M61,82.42c-0.31-.14-0.78-0.37-1.18-0.61a1.58,1.58,0,0,0-1.2-.49c-0.68,0-1.43-.08-1.43-0.08"/><circle class="cls-4" cx="61.02" cy="82.41" r="0.38" transform="translate(-39.91 100.56) rotate(-63.68)"/><path class="cls-14" d="M58.5,81.91l-0.75-.12a5.27,5.27,0,0,1-.62-0.16"/><circle class="cls-4" cx="58.48" cy="81.9" r="0.38" transform="translate(-31.67 126.62) rotate(-80.85)"/><path class="cls-14" d="M71.11,87.44c-0.79-.2-2.75-0.69-3.8-1a15.49,15.49,0,0,1-3.58-1.61c-1-.58-2.55-1.31-3.45-1.74a27.23,27.23,0,0,0-2.65-1,3.1,3.1,0,0,0-.56-0.16"/><circle class="cls-4" cx="71.09" cy="87.44" r="0.38" transform="translate(-31.33 134.43) rotate(-75.53)"/><path class="cls-14" d="M68.84,87.57a34.68,34.68,0,0,1-5.18-2c-1.56-.89-2.76-1.65-3.79-2.14S57,82.22,57,82.22"/><circle class="cls-4" cx="68.82" cy="87.55" r="0.38" transform="translate(-35.6 126.26) rotate(-72.17)"/><path class="cls-14" d="M56.53,87.07a7.67,7.67,0,0,0,.64-1.87c0.13-.91.17-1.31-0.1-1.47a0.47,0.47,0,0,0-.39-0.11"/><circle class="cls-4" cx="56.53" cy="87.05" r="0.38" transform="translate(-46.22 101.72) rotate(-65.13)"/><path class="cls-14" d="M57.69,86.17a4,4,0,0,0,.2-2.1,1.43,1.43,0,0,0-1.12-.91"/><circle class="cls-4" cx="57.7" cy="86.15" r="0.38" transform="translate(-42.8 111.67) rotate(-70.44)"/><path class="cls-14" d="M58.61,87.28a6.41,6.41,0,0,0,.07-3,2.54,2.54,0,0,0-1.83-1.51"/><circle class="cls-4" cx="58.6" cy="87.25" r="0.38" transform="translate(-38.34 127.86) rotate(-78.84)"/><path class="cls-14" d="M59.73,86.41a4.74,4.74,0,0,0-.39-2.32,3.93,3.93,0,0,0-2.41-1.6"/><circle class="cls-4" cx="59.72" cy="86.39" r="0.38" transform="translate(-27.52 144.87) rotate(-89.18)"/></svg>