<svg xmlns="http://www.w3.org/2000/svg" viewBox="0 0 67.73 63.29"><defs><style>.cls-1{isolation:isolate;}.cls-2{fill:#fcdfeb;}.cls-3{fill:#d04e84;opacity:0.3;mix-blend-mode:multiply;}</style></defs><title>Tech2017_7</title><g class="cls-1"><g id="Picture"><path class="cls-2" d="M396.55,511.85a12.92,12.92,0,0,0-10.94-10.72,2.27,2.27,0,0,0-3.63,0,12.89,12.89,0,0,0-8,4.39l-3.84-3.84a15.52,15.52,0,0,0,.95-5.3,17.75,17.75,0,0,0-1-5.65l4-4a12.89,12.89,0,0,0,7.94,4.32,2.27,2.27,0,0,0,3.63,0,12.92,12.92,0,0,0,10.94-10.72,2.28,2.28,0,0,0,0-4,12.92,12.92,0,0,0-10.51-10.82,2.28,2.28,0,0,0-3.87-.1A12.92,12.92,0,0,0,371,476.3a2.28,2.28,0,0,0-.07,3.5,12.83,12.83,0,0,0,1.42,4.57c-1.21.75-2.77,1.72-4,2.56-1.47-2.61-3.23-4.43-4.43-4.43s-3,1.8-4.46,4.4c-1.3-.86-2.91-1.87-4.12-2.61a12.83,12.83,0,0,0,1.38-4.48,2.28,2.28,0,0,0-.07-3.5,12.92,12.92,0,0,0-11.16-10.81,2.28,2.28,0,0,0-3.87.1,12.92,12.92,0,0,0-10.51,10.82,2.28,2.28,0,0,0,0,4,12.92,12.92,0,0,0,10.94,10.72,2.27,2.27,0,0,0,3.63,0,12.89,12.89,0,0,0,8-4.42l4,4a18.07,18.07,0,0,0-1,5.68,15.52,15.52,0,0,0,1,5.31l-3.92,3.92a12.9,12.9,0,0,0-8.08-4.49,2.27,2.27,0,0,0-3.63,0,12.92,12.92,0,0,0-10.94,10.72,2.28,2.28,0,0,0,0,4,12.92,12.92,0,0,0,10.51,10.82,2.28,2.28,0,0,0,3.87.1,12.92,12.92,0,0,0,11.16-10.81,2.28,2.28,0,0,0,.07-3.5A12.83,12.83,0,0,0,355.4,508c1.2-.74,2.78-1.72,4.06-2.57,0.06,1.74-2.92,3.73-3,3.75l0.31,0.49,5.64,1.51-0.5,1.59,2,1.12,2-1.12-0.44-1.6,5.58-1.5,0.31-.49a11,11,0,0,1-1.92-1.64,3.18,3.18,0,0,1-1-2.13c1.24,0.82,2.75,1.77,3.94,2.5a12.82,12.82,0,0,0-1.38,4.47,2.28,2.28,0,0,0,.07,3.5,12.92,12.92,0,0,0,11.16,10.81,2.28,2.28,0,0,0,3.87-.1,12.92,12.92,0,0,0,10.51-10.82A2.28,2.28,0,0,0,396.55,511.85Zm-22.65-32a2.27,2.27,0,0,0,.07-3.48,9.93,9.93,0,0,1,.67-2.12L380,477.5a3.9,3.9,0,0,0,3.82,4.69,3.87,3.87,0,0,0,2.1-.62l4.48,4.27a10,10,0,0,1-4.89,2.32,2.27,2.27,0,0,0-3.37,0A10,10,0,0,1,373.91,479.85Zm19.81-3a2.27,2.27,0,0,0,0,3,9.9,9.9,0,0,1-.3,1.33l-5.71-2.7c0-.06,0-0.12,0-0.18a3.9,3.9,0,0,0-5.45-3.57l-4-4.75a10,10,0,0,1,4.27-1.61,2.27,2.27,0,0,0,3.11.08A10,10,0,0,1,393.72,476.87Zm-51.63-8.43a2.27,2.27,0,0,0,3.11-.08,10,10,0,0,1,4.27,1.61l-4,4.75A3.9,3.9,0,0,0,340,478.3c0,0.06,0,.12,0,0.18l-5.71,2.7a9.91,9.91,0,0,1-.3-1.33,2.27,2.27,0,0,0,0-3A10,10,0,0,1,342.09,468.45Zm3.49,19.72a2.27,2.27,0,0,0-3.37,0,10,10,0,0,1-4.89-2.32l4.48-4.27a3.89,3.89,0,0,0,6-3.28,3.92,3.92,0,0,0-.08-0.79l5.34-3.27a9.93,9.93,0,0,1,.67,2.12,2.27,2.27,0,0,0,.07,3.48A10,10,0,0,1,345.59,488.17Zm8.21,24.19a2.27,2.27,0,0,0-.07,3.48,9.93,9.93,0,0,1-.67,2.12l-5.34-3.27a3.89,3.89,0,0,0-5.92-4.07l-4.47-4.27a10,10,0,0,1,4.89-2.32,2.27,2.27,0,0,0,3.37,0A10,10,0,0,1,353.8,512.36Zm-19.81,3a2.27,2.27,0,0,0,0-3,9.9,9.9,0,0,1,.3-1.33l5.71,2.7c0,0.06,0,.12,0,0.18a3.9,3.9,0,0,0,5.45,3.57l4,4.75a10,10,0,0,1-4.27,1.61,2.27,2.27,0,0,0-3.11-.08A10,10,0,0,1,334,515.34ZM382.12,504a2.27,2.27,0,0,0,3.37,0,10,10,0,0,1,4.89,2.32l-4.48,4.27a3.9,3.9,0,0,0-5.92,4.07L374.64,518a9.93,9.93,0,0,1-.67-2.12,2.27,2.27,0,0,0-.07-3.48A10,10,0,0,1,382.12,504Zm3.49,19.72a2.27,2.27,0,0,0-3.11.08,10,10,0,0,1-4.27-1.61l4-4.75a3.9,3.9,0,0,0,5.45-3.57c0-.06,0-0.12,0-0.18l5.71-2.7a9.93,9.93,0,0,1,.3,1.33,2.27,2.27,0,0,0,0,3A10,10,0,0,1,385.61,523.76Z" transform="translate(-329.99 -464.46)"/><path class="cls-3" d="M382,491.08a2.27,2.27,0,0,0,3.63,0,12.92,12.92,0,0,0,10.94-10.72,2.28,2.28,0,0,0,0-4,12.92,12.92,0,0,0-10.51-10.82,2.28,2.28,0,0,0-3.87-.1A12.92,12.92,0,0,0,371,476.3a2.28,2.28,0,0,0-.07,3.5,12.82,12.82,0,0,0,1.42,4.57c-1.21.75-2.77,1.72-4,2.56-1.47-2.61-3.23-4.43-4.43-4.43h-0.08v31.36l0.08,0,2-1.12-0.44-1.6,5.58-1.5,0.31-.49a11,11,0,0,1-1.92-1.64,3.18,3.18,0,0,1-1-2.13c1.24,0.82,2.75,1.77,3.94,2.5a12.82,12.82,0,0,0-1.38,4.47,2.28,2.28,0,0,0,.07,3.5,12.92,12.92,0,0,0,11.16,10.81,2.28,2.28,0,0,0,3.87-.1,12.92,12.92,0,0,0,10.51-10.82,2.28,2.28,0,0,0,0-4,12.92,12.92,0,0,0-10.94-10.72,2.27,2.27,0,0,0-3.63,0,12.89,12.89,0,0,0-8,4.39l-3.84-3.84a15.52,15.52,0,0,0,.95-5.3,17.75,17.75,0,0,0-1-5.65l4-4A12.89,12.89,0,0,0,382,491.08ZM393.4,511a9.9,9.9,0,0,1,.3,1.33,2.27,2.27,0,0,0,0,3,10,10,0,0,1-8.1,8.43,2.27,2.27,0,0,0-3.11.08,10,10,0,0,1-4.27-1.61l4-4.75a3.9,3.9,0,0,0,5.45-3.57c0-.06,0-0.12,0-0.18Zm-11.28-7a2.27,2.27,0,0,0,3.37,0,10,10,0,0,1,4.89,2.32l-4.48,4.27a3.9,3.9,0,0,0-5.92,4.07L374.64,518a10,10,0,0,1-.67-2.12,2.27,2.27,0,0,0-.07-3.48A10,10,0,0,1,382.12,504Zm0.38-35.67a2.27,2.27,0,0,0,3.11.08,10,10,0,0,1,8.1,8.43,2.27,2.27,0,0,0,0,3,9.91,9.91,0,0,1-.3,1.33l-5.71-2.7c0-.06,0-0.12,0-0.18a3.9,3.9,0,0,0-5.45-3.57l-4-4.75A10,10,0,0,1,382.5,468.37Zm-8.53,8a9.94,9.94,0,0,1,.67-2.12L380,477.5a3.9,3.9,0,0,0,3.82,4.69,3.87,3.87,0,0,0,2.1-.62l4.48,4.27a10,10,0,0,1-4.89,2.32,2.27,2.27,0,0,0-3.37,0,10,10,0,0,1-8.21-8.32A2.27,2.27,0,0,0,374,476.36Z" transform="translate(-329.99 -464.46)"/></g></g></svg>