<svg xmlns="http://www.w3.org/2000/svg" viewBox="0 0 104.55 68.61"><defs><style>.cls-1{isolation:isolate;}.cls-2,.cls-7,.cls-8{fill:#ecb7c5;}.cls-3{fill:#eed3e0;}.cls-4{fill:#fcdfeb;}.cls-5{fill:#e6a1b7;}.cls-6{fill:#dc7a9c;}.cls-7,.cls-8{stroke:#d04e84;stroke-miterlimit:10;stroke-width:0.5px;mix-blend-mode:multiply;}.cls-7{opacity:0.7;}.cls-9{mix-blend-mode:overlay;}.cls-10{fill:#fff;}.cls-11{fill:#d04e84;}</style></defs><title>Tech2017_6</title><g class="cls-1"><g id="Picture"><path class="cls-2" d="M225.22,473.08c0-.89.08-1.55,0.08-1.69s-0.28-.36.36-0.42,3.82-.16,3.82-0.16-0.24-.11.69-0.15,3.2-.06,3.2-0.06,0-.16.41-0.2a0.39,0.39,0,0,1,.47.22l3.34,0a0.75,0.75,0,0,1,.6.45h-0.13a0.34,0.34,0,0,1,.26.22c0.09,0.21.18,0.27,0,.27s-0.24.11-.26,0.33,0,0.94,0,.94,0.25-.06.26,0.15,0.07,0.44-.09.45a0.78,0.78,0,0,0-.08.6l-12.63.21-0.06-.55a0.33,0.33,0,0,1-.21-0.28A1,1,0,0,1,225.22,473.08Z" transform="translate(-183.98 -470.38)"/><path class="cls-3" d="M214.6,517.49c7,0.13,44.31.06,47.19,0s10.25-1.62,16.81-3a33.59,33.59,0,0,0,7.14-2.28c0-1,0-1.83-.06-2.44,0-2.19-.35-7.85-1-14-0.54-5.18-1.49-12.44-2-15.12a12.57,12.57,0,0,0-1.22-.92c-3.81-2.5-19.25-2.62-42.56-2.62s-43.75,1.06-47.25,2.75a14.91,14.91,0,0,0-1.91,1.11v0a101.52,101.52,0,0,0-1.94,15c-0.27,4.5-.77,11-0.81,14.48,0,0.56,0,1.13,0,1.71,0,0,2,1.75,11.55,3.5S207.6,517.36,214.6,517.49Z" transform="translate(-183.98 -470.38)"/><path class="cls-4" d="M238.91,477.05c23.31,0,38.75.13,42.56,2.63a12.57,12.57,0,0,1,1.22.92l-0.08-.42c-0.46-2.27-1.81-4-5.54-4.6s-13.44-1.25-22.85-1.48-26.65.1-34,.31-20.17,1.19-24.1,1.63-5.49,1.41-6.39,4.88a14.91,14.91,0,0,1,1.91-1.11C195.16,478.11,215.6,477.05,238.91,477.05Z" transform="translate(-183.98 -470.38)"/><path class="cls-4" d="M190.35,520.71c2.09-.09,8.34.19,11.69,0.16a7.55,7.55,0,0,1,7.44,5.75,34.7,34.7,0,0,1,1.13,5.13h51.06a22.53,22.53,0,0,1,2-7.59c1.72-3.28,8.66-3.47,13.38-3.37,2.15,0,4.5.11,6.42,0.17a0.53,0.53,0,0,1,0-.06c0-.42,1.27-1.17,1.83-1.71a1.11,1.11,0,0,0,.6-1.19c0-.46-0.11-3.37-0.17-5.78a33.59,33.59,0,0,1-7.14,2.28c-6.56,1.38-13.94,2.94-16.81,3s-40.19.13-47.19,0-6.5-.12-16.06-1.87-11.55-3.5-11.55-3.5c0,3.06,0,6.13.12,6.48a7.76,7.76,0,0,0,2.19,1.81,0.62,0.62,0,0,1,.27.32Z" transform="translate(-183.98 -470.38)"/><path class="cls-2" d="M266.85,522.93c1.79-.87,4.71-1,10.46-1,4.45,0,5.93.42,6.93,0.91-0.23-.79-0.72-1.52-0.75-1.89-1.92-.06-4.26-0.13-6.42-0.17-4.72-.09-11.66.09-13.37,3.38-0.16.3-.3,0.61-0.43,0.92l1,0.65A6,6,0,0,1,266.85,522.93Z" transform="translate(-183.98 -470.38)"/><path class="cls-2" d="M205.68,523.43c2.5,1.71,2.75,3.54,2.75,3.54l1.06-.3,0-.06a7.55,7.55,0,0,0-7.44-5.75c-3.34,0-9.59-.25-11.69-0.16l-0.8,0a1.56,1.56,0,0,1-.45,1.54c0,0.06-.08.11-0.11,0.17a22.85,22.85,0,0,1,4.2-.5C199.18,521.68,203.18,521.72,205.68,523.43Z" transform="translate(-183.98 -470.38)"/><path class="cls-5" d="M288.35,533.32c0.23,0,.18-0.15.19-0.73s0-2.85,0-3.08a36.86,36.86,0,0,0-3.9-2.48s-0.21-2.62-.29-3.65a2.82,2.82,0,0,0-.11-0.55c-1-.48-2.48-0.91-6.93-0.91-5.75,0-8.67.13-10.46,1a6,6,0,0,0-2.58,2.79l-1-.65a23.8,23.8,0,0,0-1.6,6.67H210.6a34.58,34.58,0,0,0-1.11-5.07l-1.06.3s-0.25-1.83-2.75-3.54-6.5-1.75-12.5-1.5a22.85,22.85,0,0,0-4.2.5,5.76,5.76,0,0,0-.57,3.08c-0.06,1-.31,1.06-2.25,2.27S183.91,529,184,530.2s0,2.71.27,2.73,0.42-.08.44,0.1,0.17,0.33-.1.44-0.58.38-.19,0.73,1.75,0.9,4.17,1,2.4-.21,2.4-0.21l0-1.15a12.28,12.28,0,0,1,1.67-1.33c1.35-1,14.58-1.12,14.88-.6s0.21,1.52.52,1.77a0.81,0.81,0,0,1,.38.92,1.18,1.18,0,0,0,.48,1.23c0.38,0.17,27.65,0,35.52,0s19.35,0.07,19.35.07a12.7,12.7,0,0,1,.15-3.51c0.35-1.58,15.77-.56,16.73.46s0.83,1.27,1.06,1.31,0.25,0,.25.44,0,1,0,1,1.52,0.08,4.1,0,2.58-1,2.42-1.31a1.43,1.43,0,0,1-.35-0.35C288,533.49,288.12,533.34,288.35,533.32Z" transform="translate(-183.98 -470.38)"/><path class="cls-6" d="M235.79,481.49c-15.31.31-32.94,1.25-35.62,1.69s-2.37,1.25-3.25,5.69a77.7,77.7,0,0,0-1.37,15.75,64.33,64.33,0,0,0,.31,7.5s13,3.19,16.88,3.38,42.75,0.19,46.69,0,17-3.38,17-3.38,0.63-10.62-.56-18.25-1.19-7.56-1.56-9.5-4-1.94-7-2.06S247.91,481.25,235.79,481.49Z" transform="translate(-183.98 -470.38)"/><rect class="cls-7" x="32.99" y="8.67" width="19.25" height="52.69"/><rect class="cls-7" x="52.24" y="8.67" width="19.25" height="52.69"/><path class="cls-8" d="M236.22,481.48v-2.43H217v3.06c5.87-.26,12.53-0.49,18.81-0.62h0.44Z" transform="translate(-183.98 -470.38)"/><path class="cls-8" d="M236.22,515.63V481.48h-0.44c-6.28.13-12.94,0.36-18.81,0.62v33.45C221.53,515.61,228.88,515.63,236.22,515.63Z" transform="translate(-183.98 -470.38)"/><path class="cls-8" d="M255.47,481.78v-2.73H236.22v2.43C242.38,481.37,249.53,481.56,255.47,481.78Z" transform="translate(-183.98 -470.38)"/><path class="cls-8" d="M236.22,481.48v34.15c7.41,0,14.79,0,19.25-.07V481.78C249.53,481.56,242.38,481.37,236.22,481.48Z" transform="translate(-183.98 -470.38)"/><g class="cls-9"><path class="cls-10" d="M215.35,505.33a1.84,1.84,0,0,0-1.83-1.84H187.75c-0.08,1.28-.15,2.53-0.21,3.69h26A1.84,1.84,0,0,0,215.35,505.33Z" transform="translate(-183.98 -470.38)"/><path class="cls-10" d="M258.75,503.49a1.84,1.84,0,0,0,0,3.69h26.41c-0.05-1.06-.13-2.3-0.22-3.69H258.75Z" transform="translate(-183.98 -470.38)"/></g><circle class="cls-5" cx="94.87" cy="36.8" r="1.13"/><circle class="cls-5" cx="94.87" cy="40.61" r="1.13"/><circle class="cls-11" cx="16.45" cy="61.03" r="7.58"/><circle class="cls-4" cx="16.45" cy="61.03" r="5.5"/><circle class="cls-11" cx="202.77" cy="528.7" r="1.21" transform="translate(-532.68 186.87) rotate(-82.14)"/><circle class="cls-11" cx="198.59" cy="528.28" r="1.21" transform="translate(-535.87 182.37) rotate(-82.14)"/><circle class="cls-11" cx="196.91" cy="532.13" r="1.21" transform="translate(-541.14 184.03) rotate(-82.14)"/><circle class="cls-11" cx="200.03" cy="534.9" r="1.21" transform="translate(-541.19 189.52) rotate(-82.14)"/><circle class="cls-11" cx="203.64" cy="532.82" r="1.21" transform="translate(-536.01 191.3) rotate(-82.14)"/><circle class="cls-11" cx="202.77" cy="528.7" r="1.21" transform="translate(-532.68 186.87) rotate(-82.14)"/><circle class="cls-5" cx="200.49" cy="529.79" r="0.46" transform="translate(-446.25 -267.29) rotate(-34.05)"/><circle class="cls-5" cx="199.2" cy="530.74" r="0.46" transform="translate(-447 -267.85) rotate(-34.05)"/><circle class="cls-5" cx="199.7" cy="532.26" r="0.46" transform="translate(-447.77 -267.31) rotate(-34.05)"/><circle class="cls-5" cx="201.3" cy="532.25" r="0.46" transform="translate(-447.49 -266.42) rotate(-34.05)"/><circle class="cls-5" cx="201.79" cy="530.74" r="0.46" transform="translate(-446.56 -266.4) rotate(-34.05)"/><circle class="cls-5" cx="200.49" cy="529.79" r="0.46" transform="translate(-446.25 -267.29) rotate(-34.05)"/><circle class="cls-2" cx="16.51" cy="60.77" r="0.54"/><circle class="cls-11" cx="88.41" cy="61.03" r="7.58"/><circle class="cls-4" cx="88.41" cy="61.03" r="5.5"/><circle class="cls-11" cx="274.73" cy="528.7" r="1.21" transform="translate(-470.56 258.16) rotate(-82.14)"/><circle class="cls-11" cx="270.55" cy="528.28" r="1.21" transform="translate(-473.75 253.66) rotate(-82.14)"/><circle class="cls-11" cx="268.87" cy="532.13" r="1.21" transform="translate(-479.02 255.32) rotate(-82.14)"/><circle class="cls-11" cx="272" cy="534.9" r="1.21" transform="translate(-479.07 260.81) rotate(-82.14)"/><circle class="cls-11" cx="275.61" cy="532.82" r="1.21" transform="translate(-473.89 262.58) rotate(-82.14)"/><circle class="cls-11" cx="274.73" cy="528.7" r="1.21" transform="translate(-470.56 258.16) rotate(-82.14)"/><circle class="cls-5" cx="272.46" cy="529.79" r="0.46" transform="translate(-433.91 -227) rotate(-34.05)"/><circle class="cls-5" cx="271.16" cy="530.74" r="0.46" transform="translate(-434.66 -227.56) rotate(-34.05)"/><circle class="cls-5" cx="271.67" cy="532.26" r="0.46" transform="translate(-435.43 -227.01) rotate(-34.05)"/><circle class="cls-5" cx="273.26" cy="532.25" r="0.46" transform="translate(-435.15 -226.12) rotate(-34.05)"/><circle class="cls-5" cx="273.76" cy="530.74" r="0.46" transform="translate(-434.22 -226.11) rotate(-34.05)"/><circle class="cls-5" cx="272.46" cy="529.79" r="0.46" transform="translate(-433.91 -227) rotate(-34.05)"/><circle class="cls-2" cx="88.48" cy="60.77" r="0.54"/></g></g></svg>