<svg xmlns="http://www.w3.org/2000/svg" viewBox="0 0 134.95 97.2"><defs><style>.cls-1{isolation:isolate;}.cls-2{fill:#fff;}.cls-3,.cls-8,.cls-9{fill:#ecb7c5;}.cls-4{fill:#eed3e0;}.cls-5{fill:#fcdfeb;}.cls-6{fill:#e6a1b7;}.cls-7{fill:#dc7a9c;}.cls-8,.cls-9{stroke:#d04e84;stroke-miterlimit:10;stroke-width:0.5px;mix-blend-mode:multiply;}.cls-8{opacity:0.7;}.cls-10{mix-blend-mode:overlay;}.cls-11{fill:#d04e84;}</style></defs><title>Tech2017_6</title><g class="cls-1"><g id="Background"><rect id="top" class="cls-2" y="-49.77" width="510.24" height="518.6"/></g><g id="Picture"><path class="cls-3" d="M56,13.89c0-.89.08-1.55,0.08-1.69s-0.28-.36.36-0.42,3.82-.16,3.82-0.16S60,11.5,61,11.45s3.2-.06,3.2-0.06,0-.16.41-0.2a0.39,0.39,0,0,1,.47.22l3.34,0a0.75,0.75,0,0,1,.6.45H68.85a0.34,0.34,0,0,1,.26.22c0.09,0.21.18,0.27,0,.27s-0.24.11-.26,0.33,0,0.94,0,.94,0.25-.06.26,0.15,0.07,0.44-.09.45a0.78,0.78,0,0,0-.08.6l-12.63.21-0.06-.55A0.33,0.33,0,0,1,56,14.25,1,1,0,0,1,56,13.89Z"/><path class="cls-4" d="M45.37,58.3c7,0.13,44.31.06,47.19,0s10.25-1.62,16.81-3A33.59,33.59,0,0,0,116.51,53c0-1,0-1.83-.06-2.44,0-2.19-.35-7.85-1-14-0.54-5.18-1.49-12.44-2-15.12a12.57,12.57,0,0,0-1.22-.92C108.43,18,93,17.86,69.68,17.86s-43.75,1.06-47.25,2.75a14.91,14.91,0,0,0-1.91,1.11v0a101.52,101.52,0,0,0-1.94,15c-0.27,4.5-.77,11-0.81,14.48,0,0.56,0,1.13,0,1.71,0,0,2,1.75,11.55,3.5S38.37,58.18,45.37,58.3Z"/><path class="cls-5" d="M69.68,17.86c23.31,0,38.75.13,42.56,2.63a12.57,12.57,0,0,1,1.22.92L113.39,21c-0.46-2.27-1.81-4-5.54-4.6S94.41,15.13,85,14.9s-26.65.1-34,.31-20.17,1.19-24.1,1.63-5.49,1.41-6.39,4.88a14.91,14.91,0,0,1,1.91-1.11C25.93,18.93,46.37,17.86,69.68,17.86Z"/><path class="cls-5" d="M21.12,61.52c2.09-.09,8.34.19,11.69,0.16a7.55,7.55,0,0,1,7.44,5.75,34.7,34.7,0,0,1,1.13,5.13H92.43a22.53,22.53,0,0,1,2-7.59c1.72-3.28,8.66-3.47,13.38-3.37,2.15,0,4.5.11,6.42,0.17a0.53,0.53,0,0,1,0-.06c0-.42,1.27-1.17,1.83-1.71a1.11,1.11,0,0,0,.6-1.19c0-.46-0.11-3.37-0.17-5.78a33.59,33.59,0,0,1-7.14,2.28c-6.56,1.38-13.94,2.94-16.81,3s-40.19.13-47.19,0-6.5-.12-16.06-1.87-11.55-3.5-11.55-3.5c0,3.06,0,6.13.12,6.48a7.76,7.76,0,0,0,2.19,1.81,0.62,0.62,0,0,1,.27.32Z"/><path class="cls-3" d="M97.62,63.74c1.79-.87,4.71-1,10.46-1,4.45,0,5.93.42,6.93,0.91-0.23-.79-0.72-1.52-0.75-1.89-1.92-.06-4.26-0.13-6.42-0.17-4.72-.09-11.66.09-13.37,3.38-0.16.3-.3,0.61-0.43,0.92l1,0.65A6,6,0,0,1,97.62,63.74Z"/><path class="cls-3" d="M36.45,64.24c2.5,1.71,2.75,3.54,2.75,3.54l1.06-.3,0-.06a7.55,7.55,0,0,0-7.44-5.75c-3.34,0-9.59-.25-11.69-0.16l-0.8,0a1.56,1.56,0,0,1-.45,1.54c0,0.06-.08.11-0.11,0.17a22.85,22.85,0,0,1,4.2-.5C30,62.49,34,62.53,36.45,64.24Z"/><path class="cls-6" d="M119.12,74.13c0.23,0,.18-0.15.19-0.73s0-2.85,0-3.08a36.86,36.86,0,0,0-3.9-2.48s-0.21-2.62-.29-3.65a2.82,2.82,0,0,0-.11-0.55c-1-.48-2.48-0.91-6.93-0.91-5.75,0-8.67.13-10.46,1A6,6,0,0,0,95,66.53l-1-.65a23.8,23.8,0,0,0-1.6,6.67H41.37a34.58,34.58,0,0,0-1.11-5.07l-1.06.3S39,65.95,36.45,64.24,30,62.49,24,62.74a22.85,22.85,0,0,0-4.2.5,5.76,5.76,0,0,0-.57,3.08c-0.06,1-.31,1.06-2.25,2.27S14.68,69.78,14.77,71s0,2.71.27,2.73,0.42-.08.44,0.1,0.17,0.33-.1.44-0.58.38-.19,0.73,1.75,0.9,4.17,1,2.4-.21,2.4-0.21l0-1.15a12.28,12.28,0,0,1,1.67-1.33c1.35-1,14.58-1.12,14.88-.6s0.21,1.52.52,1.77a0.81,0.81,0,0,1,.38.92,1.18,1.18,0,0,0,.48,1.23c0.38,0.17,27.65,0,35.52,0s19.35,0.07,19.35.07a12.7,12.7,0,0,1,.15-3.51c0.35-1.58,15.77-.56,16.73.46s0.83,1.27,1.06,1.31,0.25,0,.25.44,0,1,0,1,1.52,0.08,4.1,0,2.58-1,2.42-1.31a1.43,1.43,0,0,1-.35-0.35C118.79,74.3,118.89,74.15,119.12,74.13Z"/><path class="cls-7" d="M66.56,22.3c-15.31.31-32.94,1.25-35.62,1.69s-2.37,1.25-3.25,5.69a77.7,77.7,0,0,0-1.37,15.75,64.33,64.33,0,0,0,.31,7.5s13,3.19,16.88,3.38,42.75,0.19,46.69,0,17-3.38,17-3.38,0.63-10.62-.56-18.25-1.19-7.56-1.56-9.5-4-1.94-7-2.06S78.68,22.06,66.56,22.3Z"/><rect class="cls-8" x="47.74" y="19.86" width="19.25" height="52.69"/><rect class="cls-8" x="66.99" y="19.86" width="19.25" height="52.69"/><path class="cls-9" d="M67,22.29V19.86H47.74v3.06c5.87-.26,12.53-0.49,18.81-0.62H67Z"/><path class="cls-9" d="M67,56.44V22.29H66.56c-6.28.13-12.94,0.36-18.81,0.62V56.38C52.3,56.42,59.65,56.44,67,56.44Z"/><path class="cls-9" d="M86.24,22.59V19.86H67v2.43C73.15,22.18,80.3,22.37,86.24,22.59Z"/><path class="cls-9" d="M67,22.29V56.44c7.41,0,14.79,0,19.25-.07V22.59C80.3,22.37,73.15,22.18,67,22.29Z"/><g class="cls-10"><path class="cls-2" d="M46.12,46.14a1.84,1.84,0,0,0-1.83-1.84H18.52c-0.08,1.28-.15,2.53-0.21,3.69h26A1.84,1.84,0,0,0,46.12,46.14Z"/><path class="cls-2" d="M89.52,44.3a1.84,1.84,0,0,0,0,3.69h26.41c-0.05-1.06-.13-2.3-0.22-3.69H89.52Z"/></g><circle class="cls-6" cx="109.62" cy="47.99" r="1.13"/><circle class="cls-6" cx="109.62" cy="51.8" r="1.13"/><circle class="cls-11" cx="31.2" cy="72.22" r="7.58"/><circle class="cls-5" cx="31.2" cy="72.22" r="5.5"/><circle class="cls-11" cx="33.54" cy="69.51" r="1.21" transform="translate(-39.9 93.23) rotate(-82.14)"/><circle class="cls-11" cx="29.36" cy="69.09" r="1.21" transform="translate(-43.09 88.72) rotate(-82.14)"/><circle class="cls-11" cx="27.68" cy="72.94" r="1.21" transform="translate(-48.36 90.38) rotate(-82.14)"/><circle class="cls-11" cx="30.8" cy="75.71" r="1.21" transform="translate(-48.41 95.87) rotate(-82.14)"/><circle class="cls-11" cx="34.41" cy="73.63" r="1.21" transform="translate(-43.24 97.65) rotate(-82.14)"/><circle class="cls-11" cx="33.54" cy="69.51" r="1.21" transform="translate(-39.9 93.23) rotate(-82.14)"/><circle class="cls-6" cx="31.26" cy="70.6" r="0.46" transform="translate(-34.17 29.61) rotate(-34.05)"/><circle class="cls-6" cx="29.97" cy="71.55" r="0.46" transform="translate(-34.92 29.05) rotate(-34.05)"/><circle class="cls-6" cx="30.47" cy="73.07" r="0.46" transform="translate(-35.69 29.59) rotate(-34.05)"/><circle class="cls-6" cx="32.07" cy="73.06" r="0.46" transform="translate(-35.41 30.48) rotate(-34.05)"/><circle class="cls-6" cx="32.56" cy="71.55" r="0.46" transform="translate(-34.48 30.5) rotate(-34.05)"/><circle class="cls-6" cx="31.26" cy="70.6" r="0.46" transform="translate(-34.17 29.61) rotate(-34.05)"/><circle class="cls-3" cx="31.26" cy="71.96" r="0.54"/><circle class="cls-11" cx="103.16" cy="72.22" r="7.58"/><circle class="cls-5" cx="103.16" cy="72.22" r="5.5"/><circle class="cls-11" cx="105.5" cy="69.51" r="1.21" transform="translate(22.22 164.51) rotate(-82.14)"/><circle class="cls-11" cx="101.32" cy="69.09" r="1.21" transform="translate(19.03 160.01) rotate(-82.14)"/><circle class="cls-11" cx="99.64" cy="72.94" r="1.21" transform="translate(13.76 161.67) rotate(-82.14)"/><circle class="cls-11" cx="102.77" cy="75.71" r="1.21" transform="translate(13.71 167.16) rotate(-82.14)"/><circle class="cls-11" cx="106.38" cy="73.63" r="1.21" transform="translate(18.89 168.94) rotate(-82.14)"/><circle class="cls-11" cx="105.5" cy="69.51" r="1.21" transform="translate(22.22 164.51) rotate(-82.14)"/><circle class="cls-6" cx="103.23" cy="70.6" r="0.46" transform="translate(-21.83 69.9) rotate(-34.05)"/><circle class="cls-6" cx="101.93" cy="71.55" r="0.46" transform="translate(-22.58 69.34) rotate(-34.05)"/><circle class="cls-6" cx="102.44" cy="73.07" r="0.46" transform="translate(-23.35 69.88) rotate(-34.05)"/><circle class="cls-6" cx="104.03" cy="73.06" r="0.46" transform="translate(-23.07 70.78) rotate(-34.05)"/><circle class="cls-6" cx="104.53" cy="71.55" r="0.46" transform="translate(-22.14 70.79) rotate(-34.05)"/><circle class="cls-6" cx="103.23" cy="70.6" r="0.46" transform="translate(-21.83 69.9) rotate(-34.05)"/><circle class="cls-3" cx="103.23" cy="71.96" r="0.54"/></g></g></svg>