<svg id="Picture" xmlns="http://www.w3.org/2000/svg" xmlns:xlink="http://www.w3.org/1999/xlink" viewBox="0 0 82.34 100.71"><defs><style>.cls-1{fill:url(#linear-gradient);}.cls-11,.cls-13,.cls-2,.cls-6,.cls-7,.cls-8{fill:none;}.cls-13,.cls-2,.cls-6,.cls-7{stroke:#e6a1b7;}.cls-10,.cls-11,.cls-12,.cls-13,.cls-2{stroke-miterlimit:10;}.cls-2,.cls-6,.cls-7,.cls-8{stroke-width:0.3px;}.cls-3{fill:#e6a1b7;}.cls-4{fill:#eec9d0;}.cls-5{fill:url(#linear-gradient-3);}.cls-6,.cls-7,.cls-8{stroke-linecap:round;stroke-linejoin:round;}.cls-7{stroke-dasharray:0 0.59;}.cls-8{stroke:#dc7a9c;}.cls-9{fill:#d04e84;}.cls-10{fill:#ecb7c5;}.cls-10,.cls-11,.cls-12{stroke:#d04e84;stroke-width:0.2px;}.cls-12{fill:#fcdfeb;}.cls-13{stroke-width:0.1px;}</style><linearGradient id="linear-gradient" x1="512.36" y1="275.53" x2="485.31" y2="253.92" gradientUnits="userSpaceOnUse"><stop offset="0" stop-color="#fff"/><stop offset="1" stop-color="#fcdfeb"/></linearGradient><linearGradient id="linear-gradient-3" x1="505.98" y1="238.07" x2="505.5" y2="231.72" gradientUnits="userSpaceOnUse"><stop offset="0" stop-color="#ecb7c5" stop-opacity="0"/><stop offset="1" stop-color="#ecb7c5"/></linearGradient></defs><title>Tech2017_4</title><path class="cls-1" d="M529.13,307.38s-41.05.74-41.1,0.88,0.27-7,.27-7a78.44,78.44,0,0,1-9.43-1.13c-3.44-.77-7.11-2.58-8.2-2.63s-1.9-.45-2.22-4.4a27.66,27.66,0,0,1,1.5-10.92c1.09-3.31,3.63-8.43,5.08-12.1s2.27-9.11,4.4-12.69,5.39-4.4,8.56-5.08a36,36,0,0,0,9.43-3.94,1.5,1.5,0,0,0,.09-2.13c-0.45-.77-0.14-1.45-0.68-1.9s-2.54.18-4.35,0-2.18-1.36-2.31-2.67,0.68-1.63,0-2.31,0.09-.54-0.09-1-1-.77-0.5-1.59,0.14-.91-1.13-1.9-0.63-1.4.63-3.22,1.45-1.95,1.4-3.08-0.68-5.17,4-9.11,11.19-3.22,14.64-1.68a10.39,10.39,0,0,1,6.39,8.47c0.63,4.26-1,6.93-2.63,9.65s-0.91,3.94-.45,7.43,1.09,4.58,2.9,5.8a11.77,11.77,0,0,0,6.07,2.22,21.1,21.1,0,0,1,7.7,2.45v53.64Zm-44.36-29.71a61.11,61.11,0,0,1-2.22,7.11c-1,2.27-1.95,3.31-1.5,4s4.94,1.95,6.07,2.49,1.54,0.86,1.63,0a75.34,75.34,0,0,0-.54-7.61c-0.27-2.4-.82-6.21-1-8.52s-0.32-2.49-.59-1.77S485.17,276.33,484.76,277.67Z" transform="translate(-446.86 -207.75)"/><path class="cls-1" d="M529.13,307.38s-41.05.74-41.1,0.88,0.27-7,.27-7a78.44,78.44,0,0,1-9.43-1.13c-3.44-.77-7.11-2.58-8.2-2.63s-1.9-.45-2.22-4.4a27.66,27.66,0,0,1,1.5-10.92c1.09-3.31,3.63-8.43,5.08-12.1s2.27-9.11,4.4-12.69,5.39-4.4,8.56-5.08a36,36,0,0,0,9.43-3.94,1.5,1.5,0,0,0,.09-2.13c-0.45-.77-0.14-1.45-0.68-1.9s-2.54.18-4.35,0-2.18-1.36-2.31-2.67,0.68-1.63,0-2.31,0.09-.54-0.09-1-1-.77-0.5-1.59,0.14-.91-1.13-1.9-0.63-1.4.63-3.22,1.45-1.95,1.4-3.08-0.68-5.17,4-9.11,11.19-3.22,14.64-1.68a10.39,10.39,0,0,1,6.39,8.47c0.63,4.26-1,6.93-2.63,9.65s-0.91,3.94-.45,7.43,1.09,4.58,2.9,5.8a11.77,11.77,0,0,0,6.07,2.22,21.1,21.1,0,0,1,7.7,2.45v53.64Zm-44.36-29.71a61.11,61.11,0,0,1-2.22,7.11c-1,2.27-1.95,3.31-1.5,4s4.94,1.95,6.07,2.49,1.54,0.86,1.63,0a75.34,75.34,0,0,0-.54-7.61c-0.27-2.4-.82-6.21-1-8.52s-0.32-2.49-.59-1.77S485.17,276.33,484.76,277.67Z" transform="translate(-446.86 -207.75)"/><path class="cls-2" d="M488,308.31c0,0.14.27-7,.27-7a78.44,78.44,0,0,1-9.43-1.13c-3.44-.77-7.11-2.58-8.2-2.63s-1.9-.45-2.22-4.4a27.66,27.66,0,0,1,1.5-10.92c1.09-3.31,3.63-8.43,5.08-12.1s2.27-9.11,4.4-12.69,5.39-4.4,8.56-5.08a36,36,0,0,0,9.43-3.94,1.5,1.5,0,0,0,.09-2.13c-0.45-.77-0.14-1.45-0.68-1.9s-2.54.18-4.35,0-2.18-1.36-2.31-2.67,0.68-1.63,0-2.31,0.09-.54-0.09-1-1-.77-0.5-1.59,0.14-.91-1.13-1.9-0.63-1.4.63-3.22,1.45-1.95,1.4-3.08-0.68-5.17,4-9.11,11.19-3.22,14.64-1.68a10.39,10.39,0,0,1,6.39,8.47c0.63,4.26-1,6.93-2.63,9.65s-0.91,3.94-.45,7.43,1.09,4.58,2.9,5.8a11.77,11.77,0,0,0,6.07,2.22,21.1,21.1,0,0,1,7.7,2.45m-44.36,23.93a61.11,61.11,0,0,1-2.22,7.11c-1,2.27-1.95,3.31-1.5,4s4.94,1.95,6.07,2.49,1.54,0.86,1.63,0a75.34,75.34,0,0,0-.54-7.61c-0.27-2.4-.82-6.21-1-8.52s-0.32-2.49-.59-1.77S485.17,276.38,484.76,277.72Z" transform="translate(-446.86 -207.75)"/><path class="cls-2" d="M488.76,291.9a15.69,15.69,0,0,0,5.74.78c3.31,0.09,4.8,1.27,8.43,1.59s6.75-.52,9.15-0.49,2.08,0.71,5.85,1.21a26.08,26.08,0,0,1,7.52,2.22,0.81,0.81,0,0,1,0,1.54c-0.63.14-.68,0.59-2,0.41s-1.22.73-3.08,0.91-6-.91-7.25-0.27-2.9.54-5.39,1.31a10.54,10.54,0,0,1-6,.18c-1.19-.41-2.68,0-4.68-0.14a64.64,64.64,0,0,0-8.52.18" transform="translate(-446.86 -207.75)"/><path class="cls-2" d="M512.74,296.9c1.07-.08,3.74.88,5.74,1s3.19,0.24,3.47.63a1.42,1.42,0,0,1-.3,1.19" transform="translate(-446.86 -207.75)"/><path class="cls-2" d="M513.61,295.22c1.1,0.75,2.62.76,4.32,1s3,0.56,4.1.78,3.14,0.43,3.05,1.17a1.08,1.08,0,0,1-.38.88" transform="translate(-446.86 -207.75)"/><path class="cls-2" d="M504.67,301.71a3.65,3.65,0,0,0,1.65.73,38.28,38.28,0,0,1,4.18.87,9.54,9.54,0,0,0,3.11.7c1.94,0.27,2.89.51,2.84-.66a1.59,1.59,0,0,0-1.67-1.7,4.33,4.33,0,0,1-2.41-.76,4.55,4.55,0,0,0-.93-0.59" transform="translate(-446.86 -207.75)"/><path class="cls-3" d="M506.15,231.43a16.6,16.6,0,0,0,2,1,3.48,3.48,0,0,0,2.61-.52,6.08,6.08,0,0,0,1.65-2,1.54,1.54,0,0,0,.09-1.25c-0.18-.39-0.83-0.25-1.72,0-1.87.52-1.77,1.33-2.6,1.38a13.8,13.8,0,0,0-2.46.48C504.88,230.73,505.18,231,506.15,231.43Z" transform="translate(-446.86 -207.75)"/><path class="cls-4" d="M497.64,228.91c0.56,0,.71-0.15.85,0.25a2.7,2.7,0,0,0,.37,1.38,1.84,1.84,0,0,0,1.46.68c0.49,0.12.42,0.17,1.19,0.41s1.27-.32,2.11-0.29a3.13,3.13,0,0,0,2-.54,3.71,3.71,0,0,1,2.16-.71c0.82,0.05,1.16-.59,2-0.88s1.39-1,2-.87a1.94,1.94,0,0,0,1.85,0,1.37,1.37,0,0,0,.78-1.26,3.07,3.07,0,0,0,.12-1.72c-0.2-.63-0.44-0.63-0.66-1.39s-0.25-1.29-1-1.48-0.1-.85-1-1.51a2.15,2.15,0,0,1-1.14-1.27,1.94,1.94,0,0,0-1.85-1.12c-0.8,0-.17-0.2-1-0.39a7.82,7.82,0,0,1-2-.34,3.11,3.11,0,0,0-1.55-.22c-1-.1-0.78.05-2,0a13.18,13.18,0,0,0-2.75.42,4.42,4.42,0,0,0-2.35.78,8.08,8.08,0,0,1-1.29.85,3.51,3.51,0,0,0-1.78,1.63c-0.41.85-1.1,1.33-1,2.38s-0.13,1.33,0,2a2.1,2.1,0,0,0,.57,1.14c0.39,0.59.75,1.33,1.41,1.36a2.13,2.13,0,0,1,1.39.36A1.45,1.45,0,0,0,497.64,228.91Z" transform="translate(-446.86 -207.75)"/><path class="cls-2" d="M497.64,228.91c0.56,0,.71-0.15.85,0.25a2.7,2.7,0,0,0,.37,1.38,1.84,1.84,0,0,0,1.46.68c0.49,0.12.42,0.17,1.19,0.41s1.27-.32,2.11-0.29a3.13,3.13,0,0,0,2-.54,3.71,3.71,0,0,1,2.16-.71c0.82,0.05,1.16-.59,2-0.88s1.39-1,2-.87a1.94,1.94,0,0,0,1.85,0,1.37,1.37,0,0,0,.78-1.26,3.07,3.07,0,0,0,.12-1.72c-0.2-.63-0.44-0.63-0.66-1.39s-0.25-1.29-1-1.48-0.1-.85-1-1.51a2.15,2.15,0,0,1-1.14-1.27,1.94,1.94,0,0,0-1.85-1.12c-0.8,0-.17-0.2-1-0.39a7.82,7.82,0,0,1-2-.34,3.11,3.11,0,0,0-1.55-.22c-1-.1-0.78.05-2,0a13.18,13.18,0,0,0-2.75.42,4.42,4.42,0,0,0-2.35.78,8.08,8.08,0,0,1-1.29.85,3.51,3.51,0,0,0-1.78,1.63c-0.41.85-1.1,1.33-1,2.38s-0.13,1.33,0,2a2.1,2.1,0,0,0,.57,1.14c0.39,0.59.75,1.33,1.41,1.36a2.13,2.13,0,0,1,1.39.36A1.45,1.45,0,0,0,497.64,228.91Z" transform="translate(-446.86 -207.75)"/><path class="cls-5" d="M505.57,238.4a3.85,3.85,0,0,0,.08-0.9,5.79,5.79,0,0,0-.63-2.26,8.8,8.8,0,0,1-.68-2,1.19,1.19,0,0,0-.57-1.14,1.19,1.19,0,0,1-.28-1.33c0.14-.61,1.49-0.71,2.16-0.76a1.44,1.44,0,0,1,1.71.92,4,4,0,0,1,0,2.48,8.41,8.41,0,0,0-.56,2.84,14.46,14.46,0,0,1,.1,1.92,6.42,6.42,0,0,1-.08,1.05h-1.34A1,1,0,0,1,505.57,238.4Z" transform="translate(-446.86 -207.75)"/><path class="cls-2" d="M505.57,238.4a3.85,3.85,0,0,0,.08-0.9,5.79,5.79,0,0,0-.63-2.26,8.8,8.8,0,0,1-.68-2,1.19,1.19,0,0,0-.57-1.14,1.19,1.19,0,0,1-.28-1.33c0.14-.61,1.49-0.71,2.16-0.76a1.44,1.44,0,0,1,1.71.92,4,4,0,0,1,0,2.48,8.41,8.41,0,0,0-.56,2.84,14.46,14.46,0,0,1,.1,1.92,6.42,6.42,0,0,1-.08,1.05" transform="translate(-446.86 -207.75)"/><path class="cls-2" d="M506.8,223.39a2.45,2.45,0,0,1-1.57,1.24,10.78,10.78,0,0,1-2,1,5.07,5.07,0,0,0-2.79,1.39,14.42,14.42,0,0,1-1.43,1.56c-0.34.37-.56,0.58-0.56,0.58" transform="translate(-446.86 -207.75)"/><line class="cls-6" x1="57.96" y1="10.2" x2="57.96" y2="10.2"/><path class="cls-7" d="M504.72,218.53c0,0.27-.1.64-0.16,1.15-0.17,1.33-.53,1.16-0.78,2s-0.23,2.53-.43,3.46" transform="translate(-446.86 -207.75)"/><line class="cls-6" x1="56.4" y1="17.64" x2="56.4" y2="17.64"/><path class="cls-8" d="M500.53,217.34a12.07,12.07,0,0,0,.34,2.61,3.16,3.16,0,0,0,1.36,1.93" transform="translate(-446.86 -207.75)"/><path class="cls-8" d="M503,219.92a1.6,1.6,0,0,1-.75-2.15c0.7-1.4,2.81-.79,3.26-0.57a1,1,0,0,0,1,.14" transform="translate(-446.86 -207.75)"/><path class="cls-9" d="M502.94,222.44a2.55,2.55,0,0,0,.19-0.72,2.54,2.54,0,0,0-.74-0.19,0.59,0.59,0,0,0-.21.65A1.82,1.82,0,0,0,502.94,222.44Z" transform="translate(-446.86 -207.75)"/><path class="cls-9" d="M503.7,220.77a2.55,2.55,0,0,0,.33-0.66,2.54,2.54,0,0,0-.69-0.34,0.59,0.59,0,0,0-.34.59A1.82,1.82,0,0,0,503.7,220.77Z" transform="translate(-446.86 -207.75)"/><rect class="cls-10" x="499.85" y="216.4" width="1.04" height="1.1" rx="0.18" ry="0.18" transform="translate(-474.34 -127.96) rotate(-8.87)"/><rect class="cls-10" x="498.57" y="216.04" width="3.37" height="0.37" rx="0.18" ry="0.18" transform="translate(-474.23 -127.99) rotate(-8.87)"/><rect class="cls-10" x="498.21" y="211.75" width="3.37" height="4.32" rx="0.61" ry="0.61" transform="translate(-473.88 -128.07) rotate(-8.87)"/><rect class="cls-10" x="506.1" y="216.27" width="1.04" height="1.03" rx="0.17" ry="0.17" transform="translate(-384.37 -317.17) rotate(13.13)"/><rect class="cls-10" x="505.09" y="215.94" width="3.37" height="0.34" rx="0.17" ry="0.17" transform="translate(-384.52 -317.23) rotate(13.13)"/><rect class="cls-10" x="505.59" y="211.97" width="3.37" height="4.03" rx="0.59" ry="0.59" transform="translate(-384.99 -317.39) rotate(13.13)"/><path class="cls-11" d="M467.34,249.15s8.7-.07,13-6.9,2.11-14.89,4-21.11S490,208,498.49,207.86s9.23,2.11,9.3,2.75a2.74,2.74,0,0,1-.21,1.26" transform="translate(-446.86 -207.75)"/><path class="cls-11" d="M467.34,250.82a24.22,24.22,0,0,0,9.28-2.53c3.89-2.24,7.05-5.2,8-10.64s0.87-11.47,1-14a17,17,0,0,1,5.25-10.4c3.33-2.85,5.3-3.42,6.7-3.23s1.7,0.71,1.84,1.68" transform="translate(-446.86 -207.75)"/><path class="cls-11" d="M449.92,269.25s-1.36.14-2.4-1.68-0.59-2.58,1.2-6.07,2.83-5.75,4.74-8a6.59,6.59,0,0,1,5.17-2.66,10.21,10.21,0,0,1,2.45,0" transform="translate(-446.86 -207.75)"/><path class="cls-11" d="M470.67,269.07s3.53-.36,2,2.67-3.26,4.44-3.4,9.83S473,290,475.2,292.09s5.62,4.62,8.79,5.3,5.08-.41,5.53-1a4.39,4.39,0,0,0,.54-1.81" transform="translate(-446.86 -207.75)"/><path class="cls-11" d="M470.62,268.71s3.67,0,3.22,2.49-3.61,5.25-2.9,11.24,7.24,10.74,10,12.46,5.24,1.86,5.87.54a2.77,2.77,0,0,0,.5-1.66" transform="translate(-446.86 -207.75)"/><path class="cls-11" d="M480.71,268.92a1.68,1.68,0,0,1-1.21,1.73,2.53,2.53,0,0,1-2.51-.19,3.8,3.8,0,0,0-2.11-1.33c-1.31-.22-4.26-0.31-4.26-0.31" transform="translate(-446.86 -207.75)"/><path class="cls-12" d="M465.8,252.79h-3.34a1.55,1.55,0,0,1-1.54-1.54v-9.56a1.55,1.55,0,0,1,1.54-1.54h3.34a1.55,1.55,0,0,1,1.54,1.54v9.56A1.55,1.55,0,0,1,465.8,252.79ZM466.25,242h-4v0.71h4V242Zm0,1.29h-4V244h4v-0.71Zm-1.46,5.13h-1v1h1v-1Zm0,1.72h-1v1h1v-1Z" transform="translate(-446.86 -207.75)"/><rect class="cls-11" x="5.18" y="55.06" width="16.55" height="8.77" rx="0.92" ry="0.92"/><rect class="cls-11" x="6.81" y="55.94" width="13.36" height="7.18"/><rect class="cls-9" x="4.81" y="56.62" width="0.38" height="2.28"/><rect class="cls-9" x="4.81" y="59.64" width="0.38" height="3.27"/><rect class="cls-9" x="4.81" y="59.77" width="0.38" height="2.99"/><rect class="cls-9" x="449.93" y="267.53" width="1.73" height="2.99" transform="translate(454.74 330.3) rotate(180)"/><rect class="cls-9" x="468.6" y="264.38" width="0.38" height="2.28" transform="translate(490.71 323.28) rotate(-180)"/><rect class="cls-9" x="468.6" y="267.39" width="0.38" height="3.27" transform="translate(490.71 330.3) rotate(-180)"/><rect class="cls-9" x="468.6" y="267.53" width="0.38" height="2.99" transform="translate(490.71 330.3) rotate(-180)"/><rect class="cls-9" x="22.11" y="59.77" width="1.73" height="2.99"/><rect class="cls-9" x="478.48" y="268.49" width="4.46" height="1.12" transform="translate(-351.67 -332.2) rotate(16.35)"/><rect class="cls-9" x="485.56" y="293.54" width="3.24" height="1.12" transform="translate(436.36 -322.32) rotate(102.98)"/><rect class="cls-9" x="488.44" y="294.2" width="3.24" height="1.12" transform="translate(440.53 -324.31) rotate(102.98)"/><path class="cls-13" d="M485.34,255.36a4.64,4.64,0,0,0-3.86,2.67c-1.11,2.67-.09,2.33-1,5.28s-1.26,4.73-1.26,4.73" transform="translate(-446.86 -207.75)"/><circle class="cls-3" cx="485.32" cy="255.37" r="0.38" transform="translate(-467.84 -163.13) rotate(-5.15)"/><path class="cls-13" d="M482.74,257.35a3.75,3.75,0,0,0-1.11,2c-0.29,1.55-.14,1.83-0.54,3.43s-1.44,5.35-1.44,5.35" transform="translate(-446.86 -207.75)"/><circle class="cls-3" cx="482.73" cy="257.37" r="0.38" transform="translate(-497.01 173.36) rotate(-41.14)"/><path class="cls-13" d="M482.69,259.75c-0.17.51-.49,1.51-0.75,2.4-0.36,1.27-1.9,6.12-1.9,6.12" transform="translate(-446.86 -207.75)"/><circle class="cls-3" cx="482.69" cy="259.77" r="0.38" transform="translate(-356.3 435.04) rotate(-72.62)"/><path class="cls-13" d="M484.7,257.58a59,59,0,0,0-2.61,5.94c-0.43,1.55-1.54,4.9-1.54,4.9" transform="translate(-446.86 -207.75)"/><circle class="cls-3" cx="484.7" cy="257.6" r="0.38" transform="translate(-403.7 375.94) rotate(-64.44)"/><path class="cls-13" d="M487.54,256.57a10.85,10.85,0,0,0-3,3.49,44.17,44.17,0,0,0-2.87,6.29c-0.47,1.57-.7,2.18-0.7,2.18" transform="translate(-446.86 -207.75)"/><circle class="cls-3" cx="487.52" cy="256.59" r="0.38" transform="translate(-504.88 125.68) rotate(-35.78)"/><path class="cls-13" d="M498.91,262.58c-1-.59-4.47-2.4-7.83-2.31-4,.1-6.44,1-7.95,4.17a22.2,22.2,0,0,0-1.71,4.24" transform="translate(-446.86 -207.75)"/><circle class="cls-3" cx="498.89" cy="262.58" r="0.38" transform="translate(-423.31 357.97) rotate(-60.29)"/><path class="cls-13" d="M493.23,264.41a10.14,10.14,0,0,0-4.2-1.29c-2.65-.19-4.52.37-5.34,1.54a23.17,23.17,0,0,0-1.83,4.15" transform="translate(-446.86 -207.75)"/><circle class="cls-3" cx="493.21" cy="264.4" r="0.38" transform="translate(-436.73 339.12) rotate(-58.51)"/><path class="cls-13" d="M484.37,273.21a9.73,9.73,0,0,0,1.2-3c0.59-2.39.61-3.08,0-3.69a1.52,1.52,0,0,0-2.44.4,7.1,7.1,0,0,0-.84,2" transform="translate(-446.86 -207.75)"/><circle class="cls-3" cx="484.37" cy="273.19" r="0.38" transform="matrix(0.58, -0.82, 0.82, 0.58, -464.69, 304.26)"/><path class="cls-13" d="M482.78,276.51c-0.73,1.5-3.79,7.89-4.15,9.5-0.41,1.84.1,3.45,2.4,4.83a20.57,20.57,0,0,0,5.87,2" transform="translate(-446.86 -207.75)"/><circle class="cls-3" cx="482.78" cy="276.53" r="0.38" transform="translate(-420.43 387.03) rotate(-64.7)"/><path class="cls-13" d="M476.45,275.17a27.48,27.48,0,0,0-.56,6.18c0.07,3.84.56,7.07,2.87,8.8a18.12,18.12,0,0,0,8,3.5" transform="translate(-446.86 -207.75)"/><circle class="cls-3" cx="476.46" cy="275.2" r="0.38" transform="translate(-330.16 483.77) rotate(-79.18)"/><path class="cls-13" d="M474,277.07c0.17,1.24.73,5.46,1.11,8a8.31,8.31,0,0,0,3.72,6.2,17.73,17.73,0,0,0,7.69,3" transform="translate(-446.86 -207.75)"/><circle class="cls-3" cx="474.05" cy="277.09" r="0.38" transform="translate(-480.39 -140.11) rotate(-7.88)"/><path class="cls-13" d="M473.34,280.26c0.17,1.46.93,7.08,3.12,9.57a14.92,14.92,0,0,0,10,5" transform="translate(-446.86 -207.75)"/><circle class="cls-3" cx="473.35" cy="280.28" r="0.38" transform="translate(-476.92 -149.27) rotate(-6.85)"/><path class="cls-13" d="M487.77,299.94a14.09,14.09,0,0,1,.21-3.29c0.36-1.86-.42-1.66-0.42-1.66" transform="translate(-446.86 -207.75)"/><circle class="cls-3" cx="487.78" cy="299.91" r="0.38" transform="translate(-458.51 -187.93) rotate(-2.3)"/><path class="cls-13" d="M488.93,298.86a4,4,0,0,1-.18-1,16,16,0,0,0-.08-2.78,1.41,1.41,0,0,0-1-.7" transform="translate(-446.86 -207.75)"/><circle class="cls-3" cx="488.92" cy="298.84" r="0.38" transform="translate(-524.92 8.12) rotate(-23.11)"/><path class="cls-13" d="M496.52,293.94a5.52,5.52,0,0,0-2.76-1,39.39,39.39,0,0,0-4.06-.45,2.34,2.34,0,0,0-1.1.36,1,1,0,0,1-.57,0" transform="translate(-446.86 -207.75)"/><circle class="cls-3" cx="496.5" cy="293.94" r="0.38" transform="translate(-497.96 267.98) rotate(-48.99)"/><path class="cls-13" d="M494.6,293.7a3.92,3.92,0,0,0-1.76-.52,16.44,16.44,0,0,0-3.47-.31c-0.41.15-.34,0.63-0.7,0.81a0.93,0.93,0,0,1-.8-0.06" transform="translate(-446.86 -207.75)"/><circle class="cls-3" cx="494.58" cy="293.7" r="0.38" transform="translate(-501.84 255.8) rotate(-47.88)"/><path class="cls-13" d="M495.12,294.87c-0.34-.16-0.88-0.41-1.33-0.68a1.72,1.72,0,0,0-1.32-.54,15.66,15.66,0,0,1-1.56-.08" transform="translate(-446.86 -207.75)"/><circle class="cls-3" cx="495.1" cy="294.86" r="0.38" transform="translate(-436.11 399.32) rotate(-63.58)"/><path class="cls-13" d="M492.36,294.3l-0.86-.14a5.76,5.76,0,0,1-.68-0.17" transform="translate(-446.86 -207.75)"/><circle class="cls-3" cx="492.34" cy="294.29" r="0.38" transform="translate(-323.34 525.83) rotate(-80.85)"/><path class="cls-13" d="M506.14,300.36c-0.84-.21-3-0.76-4.19-1.08a17,17,0,0,1-3.92-1.77c-1.06-.63-2.79-1.43-3.78-1.9a29.8,29.8,0,0,0-2.9-1.13,3.4,3.4,0,0,0-.62-0.17" transform="translate(-446.86 -207.75)"/><circle class="cls-3" cx="506.12" cy="300.35" r="0.38" transform="translate(-358 507.64) rotate(-75.53)"/><path class="cls-13" d="M503.67,300.49a38.19,38.19,0,0,1-5.7-2.16c-1.71-1-3-1.81-4.15-2.34s-3.15-1.37-3.15-1.37" transform="translate(-446.86 -207.75)"/><circle class="cls-3" cx="503.65" cy="300.48" r="0.38" transform="translate(-383.5 480.15) rotate(-72.17)"/><path class="cls-13" d="M490.15,300a8.48,8.48,0,0,0,.71-2.07c0.15-1,.19-1.43-0.11-1.61a0.52,0.52,0,0,0-.43-0.12" transform="translate(-446.86 -207.75)"/><circle class="cls-3" cx="490.15" cy="299.95" r="0.38" transform="translate(-435 410.71) rotate(-65.13)"/><path class="cls-13" d="M491.43,299a4.47,4.47,0,0,0,.23-2.33,1.56,1.56,0,0,0-1.23-1" transform="translate(-446.86 -207.75)"/><circle class="cls-3" cx="491.43" cy="298.96" r="0.38" transform="translate(-404.08 451.21) rotate(-70.06)"/><path class="cls-13" d="M492.44,300.2a7.08,7.08,0,0,0,.09-3.29,2.78,2.78,0,0,0-2-1.65" transform="translate(-446.86 -207.75)"/><circle class="cls-3" cx="492.43" cy="300.17" r="0.38" transform="translate(-344.22 517.46) rotate(-78.84)"/><path class="cls-13" d="M493.67,299.25a5.25,5.25,0,0,0-.43-2.57,4.3,4.3,0,0,0-2.64-1.75" transform="translate(-446.86 -207.75)"/><circle class="cls-3" cx="493.66" cy="299.23" r="0.38" transform="translate(-259.48 580.79) rotate(-89.18)"/></svg>